<?xml version="1.0" standalone="no"?>
<!DOCTYPE svg PUBLIC "-//W3C//DTD SVG 1.1//EN" "http://www.w3.org/Graphics/SVG/1.1/DTD/svg11.dtd" >
<svg xmlns="http://www.w3.org/2000/svg" xmlns:xlink="http://www.w3.org/1999/xlink" version="1.1">
<metadata>
Created by FontForge 20170731 at Wed Sep 30 19:53:36 2009
 By Aleksey,,,
Copyright (c) 2007 by Alexandra Korolkova. All rights reserved. PDFx by atburn
</metadata>
<defs>
<font id="LeksaPro" horiz-adv-x="531" >
  <font-face 
    font-family="LeksaPro"
    font-weight="400"
    font-stretch="normal"
    units-per-em="1000"
    panose-1="2 0 0 0 0 0 0 0 0 0"
    ascent="750"
    descent="-250"
    x-height="463"
    cap-height="667"
    bbox="-107.333 -293 1235 943"
    underline-thickness="50"
    underline-position="-200"
    unicode-range="U+0020-FB02"
  />
<missing-glyph horiz-adv-x="810" 
d="M161 296q-16 -7 -32 -6.5t-28.5 8t-20 22.5t-7.5 39q0 33 18.5 56.5t46 38.5t60 22.5t60.5 7.5q40 0 74 -10.5t58.5 -32.5t38 -57t13.5 -83v-25.5t-2 -23.5q30 7 49 25.5t33 42.5t25.5 51t25 50t32.5 39.5t49 19.5q16 1 32 -2.5t29 -10.5q-26 -5 -42.5 -22.5t-30 -41
t-26 -50t-29.5 -50t-42.5 -41.5t-63.5 -23v-1q0 -1 0.5 -1.5t0.5 -1.5q41 -1 68 -17.5t47 -41t34.5 -53t30.5 -53.5t35.5 -43t49.5 -22q-14 -11 -31.5 -16.5t-33.5 -3.5q-34 1 -56 16.5t-37.5 39.5t-29 52t-29 53t-37.5 43.5t-56 23.5q-2 -23 -3 -48.5t-1 -58.5
q0 -18 2 -34.5t8 -27.5t18 -16.5t32 -0.5q-4 -20 -22 -30.5t-42 -10.5q-23 0 -37.5 9.5t-22.5 24.5t-11.5 32.5t-4.5 32.5q-12 -29 -30.5 -49.5t-39.5 -33t-42 -18.5t-37 -6q-29 0 -54.5 8t-44.5 24.5t-30.5 41.5t-11.5 58q0 53 31 86.5t76.5 50.5t97.5 18.5t94 -9.5l1 43
q0 65 -28 105.5t-89 40.5q-27 0 -49 -13t-34.5 -34t-14 -47.5t12.5 -54.5zM361 216q-43 13 -81.5 11t-68 -15.5t-46.5 -37t-17 -54.5q0 -42 25.5 -63t58.5 -21q36 0 71 29t52 81z" />
    <glyph glyph-name=".notdef" horiz-adv-x="810" 
d="M161 296q-16 -7 -32 -6.5t-28.5 8t-20 22.5t-7.5 39q0 33 18.5 56.5t46 38.5t60 22.5t60.5 7.5q40 0 74 -10.5t58.5 -32.5t38 -57t13.5 -83v-25.5t-2 -23.5q30 7 49 25.5t33 42.5t25.5 51t25 50t32.5 39.5t49 19.5q16 1 32 -2.5t29 -10.5q-26 -5 -42.5 -22.5t-30 -41
t-26 -50t-29.5 -50t-42.5 -41.5t-63.5 -23v-1q0 -1 0.5 -1.5t0.5 -1.5q41 -1 68 -17.5t47 -41t34.5 -53t30.5 -53.5t35.5 -43t49.5 -22q-14 -11 -31.5 -16.5t-33.5 -3.5q-34 1 -56 16.5t-37.5 39.5t-29 52t-29 53t-37.5 43.5t-56 23.5q-2 -23 -3 -48.5t-1 -58.5
q0 -18 2 -34.5t8 -27.5t18 -16.5t32 -0.5q-4 -20 -22 -30.5t-42 -10.5q-23 0 -37.5 9.5t-22.5 24.5t-11.5 32.5t-4.5 32.5q-12 -29 -30.5 -49.5t-39.5 -33t-42 -18.5t-37 -6q-29 0 -54.5 8t-44.5 24.5t-30.5 41.5t-11.5 58q0 53 31 86.5t76.5 50.5t97.5 18.5t94 -9.5l1 43
q0 65 -28 105.5t-89 40.5q-27 0 -49 -13t-34.5 -34t-14 -47.5t12.5 -54.5zM361 216q-43 13 -81.5 11t-68 -15.5t-46.5 -37t-17 -54.5q0 -42 25.5 -63t58.5 -21q36 0 71 29t52 81z" />
    <glyph glyph-name=".null" horiz-adv-x="0" 
 />
    <glyph glyph-name="nonmarkingreturn" horiz-adv-x="213" 
 />
    <glyph glyph-name="space" unicode=" " horiz-adv-x="213" 
 />
    <glyph glyph-name="space" unicode="&#xa0;" horiz-adv-x="213" 
 />
    <glyph glyph-name="exclam" unicode="!" horiz-adv-x="320" 
d="M258 673l-36 -488q-10 -10 -22 -16t-26 -5l-34 501q47 21 95 24zM263 40q0 -16 -9 -28t-23 -20t-30.5 -12t-31.5 -4l-40 71q1 16 11 28t24 19.5t30.5 11.5t30.5 4z" />
    <glyph glyph-name="quotedbl" unicode="&#x22;" horiz-adv-x="468" 
d="M294 741q19 0 37.5 -4t33.5 -13.5t24.5 -25t9.5 -38.5q0 -21 -6.5 -47.5t-17 -54t-24 -53.5t-28.5 -46l-29 1v281zM132 741q19 0 37.5 -4t33.5 -13.5t24.5 -25t9.5 -38.5q0 -21 -6.5 -47.5t-17 -54t-24 -53.5t-28.5 -46l-29 1v281z" />
    <glyph glyph-name="numbersign" unicode="#" horiz-adv-x="837" 
d="M490 193h-187l-61 -211q-23 11 -34 38l51 173h-113q1 25 21 51l107 -1l51 172h-154q3 25 22 47h146l55 187q23 -10 32 -34l-45 -153h189l56 190q23 -13 34 -41l-45 -149h97q-3 -28 -19 -47h-92l-51 -172h137q2 -27 -20 -50h-132l-62 -207q-25 12 -33 37zM318 243h187
l51 172h-188z" />
    <glyph glyph-name="dollar" unicode="$" horiz-adv-x="538" 
d="M274 301q-33 19 -60.5 37.5t-47 40t-30 50t-10.5 67.5q0 36 13.5 65.5t36 51.5t52 37t61.5 22v158q14 5 27.5 4.5t27.5 -4.5v-152h2q12 0 29.5 -2t38.5 -4.5t42.5 -5t41.5 -4.5l7 -15l-36 -151q-18 -8 -32 0l7 89q-23 20 -53.5 29.5t-59.5 11.5v-243q12 -7 24 -13.5
t25 -14.5q32 -20 55.5 -38t39.5 -37.5t23.5 -42.5t7.5 -53q0 -35 -13 -65t-35 -53.5t-51.5 -40t-63.5 -25.5v-176q-27 -12 -54 0v166q-8 -1 -15.5 -1.5t-15.5 -0.5q-19 0 -42.5 7t-47 16.5t-45.5 19.5t-38 17l-6 12l47 158q17 7 37 -2l-5 -89q22 -38 61.5 -57.5t81.5 -23.5
v239q-7 4 -13.5 7.5t-13.5 8.5zM210 519q0 -46 26 -72t65 -48v226q-11 -1 -20 -3.5t-17 -5.5q-19 -11 -36.5 -36.5t-17.5 -60.5zM422 146q0 42 -24.5 68.5t-66.5 52.5v-222q20 1 43 8q19 11 33.5 34.5t14.5 58.5z" />
    <glyph glyph-name="ampersand" unicode="&#x26;" horiz-adv-x="743" 
d="M539 415q-8 1 -13 5.5t-5 15.5q0 22 21.5 39.5t54.5 17.5q22 0 37.5 -7.5t25.5 -19t15 -26.5t5 -30q0 -22 -7.5 -37t-22 -27t-36.5 -21.5t-50 -19.5q23 -43 23 -86q0 -59 -28 -102.5t-70.5 -72.5t-91.5 -43.5t-91 -14.5q-48 0 -92 14.5t-77.5 41.5t-53.5 65t-20 85
q0 45 15 79.5t39.5 60t56 42.5t65.5 26q-21 6 -40 16.5t-34 26.5t-24 37t-9 47q0 42 23.5 71.5t55 48t62.5 26.5t46 8q25 0 50 -7t44.5 -20.5t31.5 -34t12 -47.5q0 -19 -7.5 -34t-19.5 -23t-27.5 -8.5t-31.5 10.5q12 27 8 48t-17.5 35.5t-32.5 21.5t-38 7q-11 0 -19.5 -2.5
t-15.5 -5.5q-23 -11 -32 -31t-9 -51q0 -26 8.5 -46t22 -34.5t29.5 -24.5t32 -14q45 8 66.5 -1.5t21.5 -22.5q0 -12 -21.5 -20.5t-61.5 2.5q-35 0 -64 -12t-51 -32t-34 -47t-12 -58q0 -45 17.5 -79t47 -57t68 -34.5t81.5 -11.5q17 0 33.5 2.5t32.5 8.5q14 5 27.5 17t23.5 30
t16 40t6 46q0 32 -7.5 53.5t-19.5 35.5q-26 -6 -51.5 -12t-48 -15t-40.5 -22t-28 -32q-19 8 -19.5 23.5t7.5 26.5q15 21 43.5 34.5t62.5 23.5t69 18t63.5 18t46.5 23.5t18 34.5q0 16 -8 24t-18.5 9.5t-20.5 -4t-14 -15.5z" />
    <glyph glyph-name="quotesingle" unicode="'" horiz-adv-x="286" 
d="M132 741q19 0 37.5 -4t33.5 -13.5t24.5 -25t9.5 -38.5q0 -21 -6.5 -47.5t-17 -54t-24 -53.5t-28.5 -46l-29 1v281z" />
    <glyph glyph-name="parenleft" unicode="(" horiz-adv-x="396" 
d="M399 -164q-11 -19 -25.5 -31.5t-35.5 -17.5q-35 9 -78.5 40.5t-82.5 86t-65.5 133.5t-26.5 184q0 91 26 168.5t66.5 139.5t90.5 107.5t97 72.5q14 -6 11 -25q-9 -7 -28.5 -22t-43 -39t-49 -57.5t-46 -78.5t-34 -101t-13.5 -125q0 -92 24 -166.5t60 -129.5t77.5 -90
t75.5 -49z" />
    <glyph glyph-name="parenright" unicode=")" horiz-adv-x="396" 
d="M-3 648q22 32 71 49q34 -9 76.5 -43t79.5 -90.5t62 -133.5t25 -171q0 -92 -25.5 -170.5t-65.5 -141.5t-90 -108.5t-99 -69.5q-15 8 -13 22q6 7 24.5 22t42.5 39.5t50.5 58.5t48.5 79.5t36.5 102t14.5 126.5q0 82 -24 155t-60 130t-77.5 94.5t-76.5 49.5z" />
    <glyph glyph-name="asterisk" unicode="*" horiz-adv-x="561" 
d="M285 733q40 14 67.5 0t36.5 -41t-2.5 -59t-50.5 -53l11 -7q48 2 77 21.5t38 51.5l19 2q22 -30 16.5 -60.5t-27.5 -49t-54.5 -19t-63.5 28.5l-6 -10q17 -38 47.5 -61t76.5 -23l3 -14q-27 -40 -60.5 -45.5t-58.5 11.5t-34.5 50.5t11.5 70.5l-14 1q-33 -30 -49.5 -65.5
t-21.5 -81.5l-21 -3q-29 22 -35 52.5t5.5 57t39.5 42.5t68 7l-4 15q-34 20 -70.5 22t-87.5 -19l-13 19q15 46 43 63.5t56 14t50.5 -26t27.5 -57.5l11 8q15 51 2.5 85t-38.5 55l5 17v0z" />
    <glyph glyph-name="plus" unicode="+" 
d="M237 374v206q12 10 27.5 15.5t32.5 7.5v-229h212q3 -17 -0.5 -37t-12.5 -33h-199v-191q-31 -28 -60 -28v219h-194q-6 20 -1 40t19 30h176z" />
    <glyph glyph-name="comma" unicode="," horiz-adv-x="332" 
d="M237 -3q0 -39 -14.5 -70.5t-34 -53.5t-38 -34t-27.5 -12q-12 12 -13 23q19 16 33 38.5t14 51.5q0 19 -7 33t-17 24.5t-20.5 18l-17.5 12.5q7 23 19.5 42.5t32.5 34.5q42 0 66 -29t24 -79z" />
    <glyph glyph-name="hyphen" unicode="-" horiz-adv-x="441" 
d="M353 322q-4 -35 -18 -60.5t-42 -31.5l-202 -42l-6 7q5 35 18 60.5t39 30.5l205 44z" />
    <glyph glyph-name="period" unicode="." horiz-adv-x="324" 
d="M229 40q0 -16 -9 -28t-22.5 -20t-30 -12t-31.5 -4l-41 71q1 16 11 28t24 19.5t30.5 11.5t30.5 4z" />
    <glyph glyph-name="slash" unicode="/" horiz-adv-x="456" 
d="M353 770q17 -5 33.5 -15t22.5 -24l-293 -816q-14 5 -31.5 13.5t-24.5 23.5z" />
    <glyph glyph-name="zero" unicode="0" 
d="M40 327q0 92 24.5 158t62 108t83 62t86.5 20q47 0 84.5 -24.5t64 -69t41 -106.5t14.5 -137q0 -91 -22.5 -157t-57 -109t-77 -63.5t-81.5 -20.5q-48 0 -88.5 23.5t-70.5 68t-46.5 107t-16.5 140.5zM124 362q0 -80 13 -136t36 -91.5t53.5 -51.5t65.5 -16q26 0 41.5 5
t29.5 13q22 27 37.5 77.5t15.5 117.5q0 89 -12 149.5t-33 97.5t-50.5 53t-64.5 16q-17 0 -35 -4.5t-34 -14.5q-11 -12 -22 -28.5t-20 -41.5t-15 -60.5t-6 -84.5z" />
    <glyph glyph-name="one" unicode="1" 
d="M322 671q-3 -31 -4.5 -54.5t-2 -56t-1 -83.5t-0.5 -136q0 -102 1.5 -158.5t4.5 -83.5t8.5 -33t14.5 -7l118 -12q5 -11 4.5 -24.5t-4.5 -23.5h-379q-5 11 -5.5 24t5.5 24l84 12q21 3 33 10t19 34t9 83t2 157v86.5t-0.5 67t-1.5 52.5t-3 43h-96q-8 12 -5.5 26t20.5 18
l174 41z" />
    <glyph glyph-name="two" unicode="2" 
d="M95 548q-13 2 -19.5 14.5t6.5 26.5q20 21 46 37t51.5 27.5t47.5 17.5t35 6q34 0 66 -11t56.5 -33t39.5 -54.5t15 -75.5q0 -58 -24 -113t-62.5 -109t-87.5 -107t-100 -106q94 11 160 15t94 9l20 42q8 14 20 13t20 -7l-24 -141q-23 -11 -59.5 -10.5t-86.5 3.5t-114 4
t-140 -8q-5 4 -7.5 12.5t0.5 16.5q61 58 116.5 117t98 115.5t67.5 109t25 97.5q0 72 -34 107.5t-91 35.5q-29 0 -66 -12.5t-69 -38.5z" />
    <glyph glyph-name="three" unicode="3" 
d="M102 557q-9 4 -14 11t-6.5 15t1 15.5t10.5 12.5q17 12 40 24t46 21.5t43.5 15.5t34.5 6q29 0 57 -8t50.5 -25t36 -43t13.5 -63q0 -30 -12 -55t-29.5 -44.5t-36.5 -33t-34 -20.5l-6 -10q25 0 52.5 -8.5t49.5 -27t36.5 -48t14.5 -72.5q0 -57 -29.5 -103.5t-74.5 -79
t-98 -50.5t-100 -18q-29 2 -46.5 16t-23.5 32t1.5 35t30.5 25q10 -8 29.5 -15t42 -11t46 -5t41.5 2q20 9 37.5 21t31 29t21.5 41t8 56q0 44 -22.5 71t-54.5 39.5t-67.5 13.5t-62.5 -7l-7 5q-5 18 5 29.5t25.5 19t32 12t25.5 9.5q14 7 29.5 18.5t29 27t22.5 34t9 39.5
q0 25 -9.5 42.5t-25.5 29t-37 16.5t-43 5q-30 0 -61.5 -13.5t-51.5 -28.5z" />
    <glyph glyph-name="four" unicode="4" 
d="M341 654q16 11 33 17.5t33 4.5q-2 -45 -3 -85t-1.5 -80.5t-1 -84.5t-0.5 -97v-105q35 -1 63 -1.5t47 1.5l3 -4q-7 -35 -35 -48t-78 -15l2 -172q-7 -7 -19 -12t-24.5 -8t-24 -3t-17.5 4q2 46 3 94t2 97q-56 2 -125 2t-154 -8q-19 18 -21 49q11 23 45 69.5t80 108t97 133
t96 143.5zM96 229q44 2 105 1t123 -3q1 17 1 34v34q0 66 -1 126.5t-2 118.5h-5q-20 -29 -48.5 -70t-60 -84.5t-61.5 -85t-51 -71.5z" />
    <glyph glyph-name="five" unicode="5" 
d="M458 676l-18 -49q-6 -16 -20.5 -27t-43.5 -16t-74.5 -5t-111.5 6q-11 -31 -16 -70t-7 -80q62 7 114 -0.5t89.5 -30.5t58 -60.5t20.5 -88.5q0 -70 -28.5 -120.5t-69 -83.5t-85.5 -49t-78 -16q-30 0 -57 12t-41 31t-10 41.5t35 43.5q11 -12 27 -21t34 -15t36.5 -9t34.5 -3
q13 0 30 2.5t25 8.5q9 6 19.5 17t20.5 28t16.5 39.5t6.5 50.5q0 54 -24.5 86.5t-62.5 48t-83 17t-86 -7.5q1 21 3.5 57t6.5 77.5t9.5 83.5t11.5 76l21 17q64 0 112.5 -1t83.5 0.5t56.5 6.5t31.5 16z" />
    <glyph glyph-name="six" unicode="6" 
d="M417 700q14 -5 16 -18t-6 -25q-33 -7 -77.5 -29t-88 -59t-79.5 -88.5t-52 -118.5q20 16 43 30.5t45 26t41.5 18t33.5 6.5q40 0 78 -12.5t68 -38.5t48 -66t18 -95q0 -58 -23.5 -103.5t-59 -77t-76.5 -48t-75 -16.5q-39 0 -80.5 15.5t-75 48.5t-55 84t-21.5 122
q0 82 29 156.5t80 133t120 99t149 55.5zM272 363q-80 0 -150 -55q-1 -8 -1 -15.5v-15.5q0 -50 16 -89.5t41.5 -66.5t58 -41t64.5 -14q28 0 44.5 4.5t30.5 12.5q14 11 29.5 39.5t15.5 75.5q0 37 -12.5 67.5t-33 52t-47.5 33.5t-56 12z" />
    <glyph glyph-name="seven" unicode="7" 
d="M473 667q7 -5 9 -12.5t0 -15.5q-33 -64 -68.5 -141.5t-67.5 -162t-56 -173.5t-34 -176q-16 -13 -42.5 -20t-43.5 -4q4 26 16.5 68.5t30 94.5t38.5 111t44 118.5t46 116.5t43 105q-40 -5 -79 -4.5t-73 2t-61 1.5t-43 -6q-7 -13 -11.5 -25t-15.5 -24q-7 -6 -18 -7t-20 7
q8 40 13 83.5t17 75.5q28 0 70.5 -4.5t92.5 -8t105 -4.5t108 5z" />
    <glyph glyph-name="eight" unicode="8" 
d="M62 162q0 35 11 62.5t29 48.5t42 37t50 29q-24 14 -45 29.5t-37 34t-25.5 41t-9.5 51.5q0 42 23.5 75.5t55.5 57.5t65 37t51 13q40 0 73 -11t57 -32t37.5 -51.5t13.5 -69.5q0 -33 -11 -58.5t-28.5 -45t-39 -34t-41.5 -24.5q27 -15 51.5 -32t43.5 -36.5t30.5 -43.5
t11.5 -53q0 -50 -24 -88t-57 -63t-67.5 -37.5t-56.5 -12.5q-37 0 -73.5 11.5t-65 33.5t-46.5 55t-18 76zM390 151q0 31 -14 55.5t-36.5 44t-51 36t-58.5 32.5q-37 -23 -62 -52.5t-25 -81.5q0 -27 12.5 -50t32.5 -39.5t46.5 -25.5t54.5 -9q16 0 36 3t36 10q15 11 22 31t7 46z
M158 520q0 -25 11.5 -45.5t31 -38t45 -33.5t52.5 -31q31 21 52.5 49.5t21.5 75.5q0 24 -9.5 43.5t-25 33.5t-36.5 22t-44 8q-15 0 -36 -3t-40 -14q-11 -9 -17 -28.5t-6 -38.5z" />
    <glyph glyph-name="nine" unicode="9" 
d="M135 -37q-11 3 -14 14.5t1 21.5q42 13 88 40t87.5 67t72.5 92.5t43 115.5q-16 -16 -36.5 -31.5t-42.5 -27.5t-45 -19.5t-44 -7.5q-33 0 -69.5 12t-67 37.5t-50.5 64.5t-20 92q0 45 13.5 81t35 63t48 46t53.5 31t51.5 17.5t40.5 5.5q40 0 79.5 -16t70.5 -50t50.5 -86.5
t19.5 -125.5q0 -86 -31 -160t-82 -132t-116.5 -95.5t-135.5 -49.5zM291 307q37 0 69 16t58 41l1 15q0 47 -13 87t-36.5 69.5t-56 46.5t-71.5 17q-23 0 -40.5 -3t-37.5 -13q-17 -18 -31 -49.5t-14 -64.5q0 -44 14 -74.5t38 -50t55 -28.5t65 -9z" />
    <glyph glyph-name="colon" unicode=":" horiz-adv-x="326" 
d="M262 405q0 -16 -9 -28t-22.5 -20t-30 -12t-31.5 -4l-41 71q1 16 11 28t24 19.5t30.5 11.5t30.5 4zM264 40q0 -16 -9 -28t-22.5 -20t-30 -12t-31.5 -4l-41 71q1 16 11 28t24 19.5t30.5 11.5t30.5 4z" />
    <glyph glyph-name="semicolon" unicode=";" horiz-adv-x="334" 
d="M270 -3q0 -39 -14.5 -70.5t-34 -53.5t-38 -34t-27.5 -12q-12 12 -13 23q19 16 33 38.5t14 51.5q0 19 -7 33t-17 24.5t-20.5 18l-17.5 12.5q7 23 19.5 42.5t32.5 34.5q42 0 66 -29t24 -79zM264 404q0 -16 -9 -28t-22.5 -20t-30 -12t-31.5 -4l-41 71q1 16 11 28t24 19.5
t30.5 11.5t30.5 4z" />
    <glyph glyph-name="less" unicode="&#x3c;" 
d="M488 612q13 -4 19.5 -19t-1.5 -29l-341 -198l342 -223q2 -12 0 -24.5t-7.5 -24.5t-13.5 -21t-17 -13l-421 273v27z" />
    <glyph glyph-name="equal" unicode="=" 
d="M509 473q4 -17 0.5 -37t-13.5 -33h-453q-6 20 -0.5 40t18.5 30h448zM509 275q4 -17 0.5 -37t-13.5 -33h-453q-6 20 -0.5 40t18.5 30h448z" />
    <glyph glyph-name="question" unicode="?" horiz-adv-x="440" 
d="M181 671q10 -18 29.5 -28.5t43.5 -19t49.5 -18.5t46 -27t34 -44.5t13.5 -70.5q0 -51 -12 -82t-31.5 -49.5t-43.5 -28.5t-47 -19t-43 -20.5t-31 -33.5l-2 -76l-22 -4q-8 5 -13 27t-5 43q0 37 11 62.5t28.5 43.5t38.5 30t42 21q35 14 58.5 29t23.5 41q0 22 -16 35.5
t-39.5 22.5t-51.5 17t-51.5 19.5t-39.5 29.5t-16 47q0 49 9.5 69t34.5 21zM262 40q0 -16 -9 -28t-22.5 -20t-30 -12t-31.5 -4l-41 71q1 16 11 28t24 19.5t30.5 11.5t30.5 4z" />
    <glyph glyph-name="at" unicode="@" horiz-adv-x="1061" 
d="M462 356q-18 -10 -32 -10t-23.5 5.5t-15 15t-5.5 20.5q0 20 12.5 36.5t32 29.5t42.5 22.5t43.5 16t36 10t19.5 3.5q59 0 83.5 -47.5t24.5 -143.5q0 -63 1.5 -99t8.5 -53.5t21.5 -21.5t40.5 -4q13 0 36 14t45.5 41t39 65.5t16.5 86.5q0 67 -24.5 124t-71.5 98.5t-115 65
t-156 23.5q-20 0 -46 -4t-53.5 -12t-55 -20t-49.5 -28q-20 -15 -45 -43t-47 -66.5t-37.5 -87t-15.5 -106.5q0 -95 33 -169.5t88.5 -126t127 -79t148.5 -27.5q49 0 99.5 17t93.5 42t75.5 52.5t47.5 47.5q19 -3 19 -29q-32 -43 -82 -78.5t-104 -60.5t-103.5 -38.5t-79.5 -13.5
q-78 0 -154.5 26.5t-137 78.5t-97.5 130t-37 182q0 98 27.5 171t70.5 125.5t96 87t103.5 54.5t92.5 28t64 8q78 0 148.5 -22.5t123.5 -66t84.5 -106.5t31.5 -144q0 -77 -27.5 -132.5t-70 -91.5t-93 -53.5t-95.5 -17.5q-14 0 -31 15.5t-26 58.5q-39 -40 -78.5 -60.5
t-60.5 -20.5q-44 0 -72.5 29t-28.5 73q0 42 32 68.5t80 41.5l121 26q-1 41 -4 66.5t-10 40.5t-17.5 20.5t-26.5 5.5q-24 0 -43 -4t-39 -14v-71zM604 188q-1 9 -1 19v21v34l-127 -13q-15 -10 -23 -22t-8 -37q0 -20 14 -33t37 -15.5t51 8t57 38.5z" />
    <glyph glyph-name="A" unicode="A" horiz-adv-x="688" 
d="M333 668q26 23 61 21q11 -34 31 -89t44 -120t50.5 -133t50.5 -128t43.5 -105.5t30.5 -65.5l42 -11q8 -18 0 -38h-226q-9 20 0 38l42 11q13 3 22 7t5 20q-11 34 -25.5 75.5t-31.5 86.5q-64 2 -122.5 3t-122.5 -1q-20 -54 -37 -103.5t-28 -87.5l68 -11q9 -19 1 -38h-185
q-9 21 0 43l17 6q11 3 23 13.5t20 24.5q6 11 17.5 38t27.5 64.5t34.5 83t37.5 93t37 94.5t33 88t25.5 72.5t14.5 48.5zM348 553q-8 -21 -19 -50t-24.5 -63.5t-28.5 -73t-30 -77.5q28 -2 52 -3.5t48 -1.5t50 0.5t57 2.5q-16 42 -31.5 82.5t-29.5 76t-24.5 63.5t-15.5 45z" />
    <glyph glyph-name="B" unicode="B" horiz-adv-x="648" 
d="M188 249v108t-0.5 104t-1.5 93.5t-3 75.5q-23 -2 -43.5 -4.5t-39.5 -4.5q-4 9 -5 19t4 20l91 14q12 2 41.5 4.5t61.5 5t60 4t38 1.5q16 0 47 -5.5t62 -23t54.5 -49.5t23.5 -86q0 -32 -10.5 -58.5t-28.5 -46.5t-41.5 -34t-49.5 -21v-4q39 0 68.5 -14t50 -36t31 -49
t10.5 -53q0 -45 -13.5 -77.5t-36.5 -55t-55 -37t-69 -24.5q-42 -11 -102 -13.5t-117 -2.5h-123q-8 18 0 38l61 11q11 2 18 7.5t10.5 25.5t5 59t1.5 109zM349 326q-21 0 -40.5 -2.5t-35.5 -7.5q0 -70 1.5 -134t3.5 -124q49 -6 98 -3t78 12q29 12 46 42.5t17 74.5
q0 66 -45 104t-123 38zM279 636q-1 -22 -2 -53t-1.5 -66t-1.5 -71.5t-1 -67.5q23 -1 46.5 -1h43.5q28 0 51 9t39 25.5t25 38t9 47.5q0 74 -45.5 107t-117.5 33h-23t-22 -1z" />
    <glyph glyph-name="C" unicode="C" horiz-adv-x="661" 
d="M641 677l-23 -188q-22 -10 -39 0l-10 103q-10 7 -27 13.5t-37.5 11.5t-43 8t-43.5 3q-53 0 -83 -6t-55 -18q-18 -11 -37.5 -32.5t-36.5 -53.5t-28 -75t-11 -96q0 -64 18.5 -120.5t56.5 -98.5t95.5 -66.5t134.5 -24.5q50 0 87.5 14t72.5 31q7 -6 11 -14.5t2 -19.5
q-14 -9 -41 -21.5t-60 -23.5t-69 -18.5t-67 -7.5q-70 0 -130.5 22t-105.5 64.5t-70.5 104.5t-25.5 142q0 81 24.5 150t71 120t113.5 79.5t153 28.5q19 0 43 -2.5t49 -4.5t49.5 -1t45.5 9z" />
    <glyph glyph-name="D" unicode="D" horiz-adv-x="752" 
d="M283 59q25 -5 56.5 -6.5t65.5 0.5t69 8.5t67 18.5q21 10 41 33t35 56t24.5 74.5t9.5 87.5q0 81 -25 139.5t-72.5 95t-116.5 52.5t-157 11q-1 -54 -3.5 -124.5t-2.5 -164.5q0 -84 1 -154t8 -127zM104 -1q-4 8 -4.5 18.5t4.5 20.5l51 10q10 2 17 8.5t10.5 34t5 84.5
t1.5 160v86.5t-1 80t-2 69t-2 54.5l-92 11q-3 8 -3.5 16t3.5 19q29 3 76 5t94.5 3.5t87.5 2t57 0.5q74 0 135.5 -19t106 -57.5t69 -97.5t24.5 -138q0 -107 -35 -178t-95 -114t-140 -61t-169 -18h-199z" />
    <glyph glyph-name="E" unicode="E" horiz-adv-x="633" 
d="M99 -1q-8 20 0 39l49 10q9 2 16 5t12 12.5t8 28t4.5 51.5t2 82.5t0.5 121.5q0 33 -0.5 72.5t-1 77t-2 69t-3.5 48.5l-91 13q-6 18 0 38h359q16 0 33.5 1t33.5 3.5t29.5 7t22.5 10.5l11 -9l-23 -170q-23 -8 -42 0v104q-63 5 -119 5.5t-109 -4.5q-8 -49 -10.5 -114
t-2.5 -138q67 -2 111 0t64 11l20 56q11 4 22 3.5t22 -3.5l-20 -194q-15 -7 -36 -2l-1 80q-41 1 -87.5 1t-94.5 -2v-61.5t1 -74t2 -71.5t4 -55q99 -10 154.5 -3.5t74.5 14.5l46 98q9 4 17 3.5t16 -3.5l-27 -162l-17 -12q-9 4 -37.5 8.5t-79.5 4.5h-331z" />
    <glyph glyph-name="F" unicode="F" horiz-adv-x="618" 
d="M100 -1q-6 18 0 38l46 11q10 2 17 5.5t12 12.5t8 27t4.5 49.5t2 79t0.5 116.5q0 33 -0.5 74.5t-1 81.5t-2 73.5t-2.5 50.5l-93 12q-2 9 -2 18t2 19h321q60 0 105 5.5t60 16.5l13 -8l-32 -160q-20 -8 -36 0v93q-62 6 -121.5 6t-112.5 -5q-9 -51 -11 -121t-2 -147
q36 -2 69.5 -2.5t61.5 0t48.5 2.5t29.5 7l22 48q22 7 44 0l-24 -172q-8 -2 -16.5 -3t-16.5 2l-2 69q-44 0 -103 1.5t-113 -2.5q0 -27 1 -62t2 -70.5t3 -66.5t4 -50l141 -11q6 -20 0 -38h-326z" />
    <glyph glyph-name="G" unicode="G" horiz-adv-x="748" 
d="M663 66q-32 -21 -72 -38t-78 -28t-70.5 -17t-50.5 -6q-72 0 -130 23t-99.5 66.5t-64 105t-22.5 139.5q0 81 25 148.5t71.5 116t113 75.5t149.5 27q25 0 47 -3t44.5 -5t47.5 -1t57 9l15 -10l-24 -202q-20 -9 -42 0l-8 111q-30 19 -75 29.5t-111 10.5q-26 0 -50.5 -3
t-39.5 -11q-26 -11 -49.5 -32.5t-41 -52t-28 -70.5t-10.5 -87q0 -65 18 -123.5t52.5 -103t85.5 -71t117 -26.5q21 0 38 3t33.5 8t33 13t35.5 17q3 13 5 32.5t2 41.5t-2 44.5t-5 40.5l-108 11q-9 18 0 38h261q8 -20 0 -38l-35 -11q-12 -4 -19 -10.5t-10.5 -24t-4.5 -49.5
t-1 -87z" />
    <glyph glyph-name="H" unicode="H" horiz-adv-x="868" 
d="M586 -1q-9 17 0 38l50 11q9 1 14.5 7t9 21t5 41t1.5 67v131q-62 3 -113.5 4.5t-98.5 1.5t-91.5 -1t-92.5 -4q0 -43 0.5 -79.5t1 -68.5t1.5 -61.5t3 -58.5l63 -11q6 -20 0 -38h-241q-6 20 0 38l56 11q9 1 15 7.5t9.5 21.5t5 40.5t1.5 66.5v111.5t-1 120.5t-3 113.5
t-6 88.5l-82 11q-8 18 0 38h262q8 -21 0 -38l-53 -11q-8 -2 -13.5 -8.5t-10 -29t-6.5 -65.5t-2 -118v-24q94 -5 193 -5.5t202 5.5q-1 72 -2.5 137.5t-6.5 107.5l-65 11q-8 18 0 38h252q7 -17 -1 -38l-51 -11q-12 -3 -20 -10.5t-12.5 -30t-6 -65t-1.5 -115.5q0 -60 0.5 -109
t1 -90.5t1.5 -77.5t3 -72l82 -11q6 -18 0 -38h-253z" />
    <glyph glyph-name="I" unicode="I" horiz-adv-x="432" 
d="M96 -1q-4 16 2 38l61 11q16 3 25.5 6.5t15 16.5t7.5 39t2 73v112t-1 121t-3 113.5t-6 88.5l-107 11q-6 18 0 38h315q5 -16 0 -38l-55 -11q-19 -4 -30.5 -9.5t-17.5 -26.5t-8 -64t-2 -122q0 -60 0.5 -109t1 -90t1.5 -77t3 -72l107 -11q4 -18 1 -38h-312z" />
    <glyph glyph-name="J" unicode="J" horiz-adv-x="400" 
d="M284 254q0 -111 -17 -184.5t-46 -119.5t-66.5 -69t-77.5 -35q-28 3 -44 15.5t-20 29t4.5 33t29.5 27.5l94 -17q10 10 20 22.5t17 38.5t11.5 70.5t4.5 118.5q0 51 -0.5 111.5t-1.5 120.5t-3 113.5t-6 88.5l-109 11q-9 18 0 38h318q8 -20 0 -38l-55 -11q-13 -3 -22 -7.5
t-14.5 -17t-9 -35.5t-5 -63t-2 -98.5t-0.5 -142.5z" />
    <glyph glyph-name="K" unicode="K" horiz-adv-x="728" 
d="M696 667q5 -18 -5 -39l-48 -11q-19 -4 -49 -33.5t-64.5 -69t-69.5 -81.5t-65 -71q39 -29 78.5 -72t81.5 -91t87 -95.5t96 -86.5q6 -12 -2 -30h-65q-30 0 -65.5 24.5t-72 61.5t-72.5 79.5t-68.5 79.5t-59.5 61.5t-44 24.5h-17q0 -85 1 -148.5t4 -121.5l63 -11q7 -19 1 -38
h-250q-5 22 3 38l61 11q9 1 15 5.5t9.5 18t5 40t1.5 73.5v111.5t-1 120t-3 112.5t-6 88l-81 11q-8 18 0 39h247q8 -22 0 -39l-39 -11q-7 -2 -13 -7.5t-10 -26.5t-6 -64t-2 -122v-41q15 -1 30.5 0.5t25.5 7.5q13 7 37.5 32.5t53.5 61t59.5 77.5t56.5 82l-45 11q-6 19 0 39
h206z" />
    <glyph glyph-name="L" unicode="L" horiz-adv-x="634" 
d="M98 -1q-6 19 1 39l53 10q14 3 22.5 10t13 36t6 88t1.5 167q0 33 -0.5 73.5t-1 78.5t-2 70t-4.5 47l-94 11q-8 21 0 38h281q9 -20 0 -38l-52 -11q-15 -3 -23.5 -10.5t-12.5 -34.5t-5 -82t-1 -152v-58.5t1 -82t2 -84t4 -63.5q131 -9 189 -1t66 31l45 126q8 5 18 5t18 -5
l-34 -209l-15 -12q-5 3 -20.5 5t-36.5 4t-45 3t-44 1h-330z" />
    <glyph glyph-name="M" unicode="M" horiz-adv-x="918" 
d="M75 -1q-9 18 0 38l41 11q8 2 14 10t11.5 29t10.5 58.5t9 100.5t8 154t9 218l-72 11q-7 19 0 38h188q34 -101 83 -222t106 -253h6q26 67 48.5 127.5t43 118.5t39.5 114.5t37 114.5h199q11 -18 0 -38l-63 -11q-6 -1 -6.5 -26t1.5 -68.5t5.5 -103.5t6.5 -131q4 -77 9 -134.5
t13 -106.5l77 -11q8 -20 0 -38h-239q-6 18 0 38l39 11q14 4 17.5 50t0.5 121t-10.5 171t-13.5 200h-15q-19 -56 -39 -112t-41.5 -117t-46.5 -130.5t-54 -152.5q-25 -22 -53 -22q-18 43 -40 94.5t-44.5 105t-43.5 105.5t-38 97t-28.5 79.5t-13.5 52.5l-14 -1q-1 -20 -3 -54.5
t-3.5 -79t-3.5 -96t-3.5 -105t-3.5 -106.5t-3 -100l41 -11q8 -21 0 -38h-168z" />
    <glyph glyph-name="N" unicode="N" horiz-adv-x="793" 
d="M755 618q-12 -5 -21.5 -11t-15.5 -20t-9 -38t-3 -64v-497q-15 -15 -41 -18q-24 19 -63.5 65.5t-85.5 106t-94.5 125.5t-90.5 125t-73 103t-42 61h-7q0 -31 -1 -84t-1 -131v-104.5t0.5 -76.5t2 -59t3.5 -53l71 -11q8 -21 0 -38h-199q-7 19 1 38l40 11q6 2 10.5 5t7.5 12.5
t5.5 28.5t3.5 52.5t1.5 84.5t0.5 125q0 67 -1 129t-4 133l-68 11q-8 18 0 38h167q18 -25 46 -66t62 -90.5t72.5 -103.5t76.5 -106.5t73.5 -99t64.5 -79.5h6q2 55 2.5 112t0.5 120q0 82 -1 145.5t-3 118.5l-76 11q-9 18 0 38h213q10 -20 0 -38z" />
    <glyph glyph-name="O" unicode="O" horiz-adv-x="788" 
d="M778 364q0 -107 -34 -180.5t-86.5 -119.5t-116 -66.5t-122.5 -20.5q-72 0 -135 22.5t-109 66t-72.5 108t-26.5 148.5q0 97 36.5 167t93.5 114t126 65t133 21q54 0 109.5 -20.5t101 -61.5t74 -101.5t28.5 -141.5zM167 364q0 -77 24.5 -137.5t66 -102.5t96.5 -64.5
t115 -22.5q33 0 55 5.5t53 17.5q21 12 40.5 34t35.5 53.5t25.5 73t9.5 93.5q0 77 -24.5 136t-65 98.5t-93 60t-109.5 20.5q-34 0 -63 -6.5t-55 -19.5q-23 -15 -43 -38t-35 -53.5t-24 -67.5t-9 -80z" />
    <glyph glyph-name="P" unicode="P" horiz-adv-x="630" 
d="M101 -1q-6 18 0 38l54 11q10 2 17 9t10.5 34.5t5 84.5t1.5 159q0 88 -1 162.5t-4 125.5l-92 13q-7 18 0 31q20 2 49.5 3.5t62 3t66 3t61.5 2.5t48 1.5t26 0.5q101 0 153.5 -50.5t52.5 -139.5q0 -60 -26 -102.5t-71.5 -69.5t-107 -39t-132.5 -10q0 -63 2 -120t7 -102
l95 -11q7 -20 0 -38h-277zM274 325q44 -5 81.5 -5.5t71.5 7.5q52 23 72.5 61t20.5 82q0 34 -10.5 63.5t-32.5 50.5t-56 33t-81 12h-28.5t-31.5 -1q-1 -54 -3.5 -124t-2.5 -164v-15z" />
    <glyph glyph-name="Q" unicode="Q" horiz-adv-x="788" 
d="M778 364q0 -78 -19 -138.5t-50.5 -105t-72.5 -74t-86 -46.5q72 -47 145 -89t147.5 -73.5t151.5 -50.5t157 -21q7 -15 0 -30q-104 -5 -194 9t-175.5 45t-170.5 78.5t-178 108.5h-14q-72 0 -135 22.5t-109 66t-72.5 108t-26.5 148.5q0 97 36.5 167t93.5 114t126 65t133 21
q54 0 109.5 -20.5t101 -61.5t74 -101.5t28.5 -141.5zM167 364q0 -77 24.5 -137.5t66 -102.5t96.5 -64.5t115 -22.5q33 0 55 5.5t53 17.5q21 12 40.5 34t35.5 53.5t25.5 73t9.5 93.5q0 77 -24.5 136t-65 98.5t-93 60t-109.5 20.5q-34 0 -63 -6.5t-55 -19.5q-23 -15 -43 -38
t-35 -53.5t-24 -67.5t-9 -80z" />
    <glyph glyph-name="R" unicode="R" horiz-adv-x="690" 
d="M101 -1q-5 17 0 38l54 11q10 2 16.5 10t10.5 36t5 84.5t1 156.5v86.5t-0.5 80t-1.5 68t-2 51.5l-91 5q-9 21 0 40q30 3 72.5 5.5t83 5t72 4t37.5 1.5q43 0 80.5 -9t65.5 -28.5t44.5 -51t16.5 -76.5q0 -35 -12 -64t-32.5 -52.5t-46.5 -40t-53 -26.5q32 -40 72.5 -89
t82.5 -96t81.5 -87.5t68.5 -62.5q4 -11 0 -21h-35q-29 0 -63 19.5t-69 50t-69.5 69t-66 76t-57.5 71t-44 54.5q-12 0 -24.5 -0.5t-23.5 0.5q0 -78 1 -147t8 -123l89 -11q11 -21 0 -38h-271zM280 627q-1 -51 -3.5 -115.5t-2.5 -150.5q29 -5 54 -5.5t47 4.5q45 13 72.5 52
t27.5 91q0 34 -11.5 58t-32.5 39t-50.5 22t-64.5 7q-9 0 -17.5 -0.5t-18.5 -1.5z" />
    <glyph glyph-name="S" unicode="S" horiz-adv-x="538" 
d="M274 301q-33 19 -60.5 37.5t-47 40t-30 50t-10.5 67.5q0 45 19.5 79t51 57t70.5 34.5t79 11.5q12 0 29.5 -2t38.5 -4.5t42.5 -5t41.5 -4.5l7 -15l-36 -151q-18 -8 -32 0l7 89q-20 16 -44.5 26t-50 13.5t-48 1t-37.5 -9.5q-19 -11 -36.5 -36.5t-17.5 -60.5
q0 -33 14.5 -55.5t38.5 -40t54.5 -33t62.5 -35.5t55.5 -38t39.5 -37.5t23.5 -42.5t7.5 -53q0 -46 -21 -82t-56 -61.5t-79.5 -39t-91.5 -13.5q-19 0 -42.5 7t-47 16.5t-45.5 19.5t-38 17l-6 12l47 158q17 7 37 -2l-5 -89q16 -27 42 -45t56 -27t61 -9.5t57 7.5
q19 11 33.5 34.5t14.5 58.5q0 28 -11 48.5t-30.5 37.5t-46.5 33.5t-60 35.5z" />
    <glyph glyph-name="T" unicode="T" horiz-adv-x="618" 
d="M673 680l-33 -226q-23 -8 -44 0v161q-13 1 -40 2t-56.5 2t-56 1h-39.5q-2 -10 -3 -25.5t-2.5 -45.5t-2 -79t-0.5 -126q0 -84 0.5 -132t1.5 -76.5t2 -46t3 -39.5l79 -13q8 -21 0 -38h-263q-6 17 0 38l56 11q7 1 12.5 4t9.5 13t6.5 28.5t4.5 51.5t2.5 82t0.5 119
q0 127 -2 191t-4 83q-23 0 -51.5 -1t-54 -3t-43.5 -4.5t-19 -6.5l-52 -151q-21 -7 -40 0l30 227l12 8q27 -9 96 -15.5t177 -6.5q68 0 118.5 1.5t86.5 4.5t59 7t37 9z" />
    <glyph glyph-name="U" unicode="U" horiz-adv-x="793" 
d="M335 667q8 -19 0 -39l-51 -10q-13 -3 -20.5 -15.5t-12 -40.5t-6 -75t-1.5 -118q0 -96 19.5 -159.5t51.5 -101t74.5 -52.5t88.5 -15q29 0 45.5 3t36.5 13q17 8 35 26.5t32.5 51.5t23.5 82.5t9 119.5q0 28 -0.5 66t-1.5 77.5t-3.5 76t-6.5 61.5l-66 10q-6 19 0 39h203
q8 -19 0 -39l-44 -10q-9 -3 -14.5 -15.5t-9 -46t-4.5 -94.5t-1 -160q0 -84 -20.5 -144t-56 -98.5t-84 -56.5t-104.5 -18q-19 0 -48.5 3t-62 14t-65 32.5t-58.5 59.5t-42 95t-16 138q0 85 -0.5 163t-3.5 127l-72 11q-6 20 0 39h256z" />
    <glyph glyph-name="V" unicode="V" horiz-adv-x="643" 
d="M411 -2q-14 -13 -31.5 -18t-37.5 -4q-14 36 -36 87t-48 109t-54 120.5t-54 122t-49 112t-38 91.5l-59 11q-8 20 0 38h247q7 -18 0 -40l-30 -9q-22 -7 -28 -14.5t-7 -21.5q0 -8 13 -42t33.5 -82t45.5 -104t48.5 -108t43 -94t28.5 -61l3 2q23 68 72 203t116 322l-70 11
q-3 9 -3.5 18t3.5 20h182q9 -20 0 -38l-36 -11q-10 -3 -16 -9.5t-14 -21.5q-7 -14 -25 -57t-41 -100.5t-48.5 -123.5t-48 -126.5t-39 -109.5t-22.5 -72z" />
    <glyph glyph-name="W" unicode="W" horiz-adv-x="899" 
d="M359 -2q-31 -24 -68 -22q-11 35 -27.5 85t-35.5 107.5t-40.5 119t-42.5 121t-41.5 113.5t-37.5 96l-48 11q-9 19 0 38h225q6 -21 -2 -38l-26 -11q-15 -6 -22 -12.5t-7 -23.5q0 -7 9 -40.5t23.5 -81t32.5 -103t35.5 -107t32.5 -93t25 -60.5l4 1q8 25 21.5 62t31 82.5
t36.5 99.5t39 113q-16 45 -30 86.5t-26 75.5l-40 11q-8 19 0 39h191q8 -20 0 -38l-39 -12q-6 -2 -7.5 -10.5t-1.5 -16.5q0 -6 9.5 -38.5t24.5 -80.5t33.5 -104.5t36.5 -109t33 -96t24 -64.5l4 1q20 67 56.5 198.5t84.5 320.5l-60 11q-6 19 0 39h188q8 -20 0 -38l-29 -11
q-18 -8 -29.5 -25.5t-17.5 -32.5q-7 -15 -20.5 -56t-30.5 -95t-36.5 -116t-37 -119.5t-32.5 -104.5t-23 -71q-25 -22 -63 -22q-13 34 -29 81.5t-34.5 102.5t-38.5 114t-39 117q-20 -58 -42.5 -118.5t-42 -114.5t-34.5 -96.5t-19 -63.5z" />
    <glyph glyph-name="X" unicode="X" horiz-adv-x="756" 
d="M85 -1q-4 15 1 38l41 11q10 3 27.5 18.5t39 39t45 52.5t46 58.5t42.5 57.5l35 49q-2 3 -4.5 6t-4.5 7q-29 40 -64 87t-67 88.5t-55.5 71.5t-28.5 35l-57 11q-8 18 0 38h229q5 -10 4 -19.5t-4 -18.5l-35 -11q-8 -3 -5.5 -13.5t18 -35t46.5 -67.5t81 -111q15 21 39.5 54.5
t48.5 68t43.5 63.5t24.5 41l-46 8q-9 21 0 41h186q7 -20 0 -38l-40 -11q-18 -5 -49 -35t-64.5 -70.5t-65.5 -83t-53 -72.5l11 -14q28 -39 63 -85t67.5 -88.5t58.5 -75.5t38 -46l59 -11q10 -21 1 -38h-233q-6 18 0 38l40 11q8 2 6.5 9t-18.5 31t-52.5 71t-93.5 129
q-16 -23 -41 -58.5t-49.5 -71.5t-44 -66.5t-24.5 -42.5l47 -12q6 -20 0 -38h-189z" />
    <glyph glyph-name="Y" unicode="Y" horiz-adv-x="626" 
d="M683 667q6 -18 0 -38l-44 -11q-12 -3 -30 -21.5t-39 -47t-44 -63t-45 -70t-41.5 -69t-33.5 -58.5q0 -86 1 -142.5t7 -98.5l84 -11q6 -20 0 -38h-270q-5 20 2 38l57 11q10 1 15.5 12.5t8.5 36.5t4 66t1 101q-16 29 -39 65.5t-48 74.5t-50.5 75t-47 66.5t-36 49t-18.5 23.5
l-56 11q-6 20 0 38h237q9 -18 0 -38l-39 -11q-10 -3 -1 -27.5t32 -63.5t57 -90t74 -109q21 34 47 79t50.5 88t43 77t23.5 46l-45 11q-6 19 1 38h182z" />
    <glyph glyph-name="Z" unicode="Z" horiz-adv-x="646" 
d="M613 668q5 -19 -5 -34l-45 -66t-68.5 -99t-81 -115.5t-82 -116.5t-72 -102.5t-50.5 -72.5l2 -4q91 -5 172 -3.5t166 12.5l43 138q18 8 35 0l-24 -217l-12 -8q-17 3 -36.5 5.5t-46.5 4.5t-64 3.5t-88.5 3t-120.5 2t-160 0.5q-2 9 -0.5 18.5t6.5 17.5q17 20 50 64.5
t73.5 101.5t84.5 120t84 120.5t71.5 103.5t47.5 69l-4 2h-93.5t-90.5 -1t-79 -3t-59 -6l-37 -117q-18 -5 -33 0l13 193l11 7q13 -3 28.5 -5.5t39 -5t57.5 -4.5t84.5 -3.5t120 -2t163.5 -0.5z" />
    <glyph glyph-name="bracketleft" unicode="[" horiz-adv-x="488" 
d="M412 770l10 -11q-2 -15 -20.5 -22t-47 -10t-64.5 -3.5t-72 -2.5v-901q40 -3 93 -0.5t99 8.5l11 -10q0 -19 -9.5 -29t-37.5 -14t-79 -4.5t-134 -0.5l-18 11v918q0 26 10.5 40.5t40 21t82 8t135.5 1.5h1z" />
    <glyph glyph-name="backslash" unicode="\" horiz-adv-x="455" 
d="M59 731q14 27 42 39l294 -818q-6 -15 -17.5 -23.5t-27.5 -13.5z" />
    <glyph glyph-name="bracketright" unicode="]" horiz-adv-x="488" 
d="M66 -219q2 15 20.5 22t47.5 10t64.5 3.5t71.5 2.5v901q-40 3 -92.5 0.5t-99.5 -8.5l-11 10q0 19 10 29t38 14t79 4.5t133 0.5l18 -10v-919q0 -24 -10.5 -38t-40 -21.5t-82 -9.5t-135.5 -2z" />
    <glyph glyph-name="underscore" unicode="_" horiz-adv-x="221" 
d="M221 -52v-61h-221v61h221z" />
    <glyph glyph-name="a" unicode="a" horiz-adv-x="521" 
d="M486 52q7 -17 0 -31l-84 -30q-30 0 -44.5 22t-19.5 57q-18 -15 -43.5 -30t-51 -27t-47.5 -19t-35 -7q-24 0 -43.5 8.5t-33.5 22.5t-22 32t-8 38q0 50 28 82t93 50l57 15q21 6 53 14t56 13q1 11 1 22v22q0 57 -23.5 86.5t-61.5 29.5q-6 0 -17.5 -1t-24.5 -4t-26 -7.5
t-23 -10.5v-73q-13 -14 -29 -18.5t-29.5 -1.5t-23 14.5t-9.5 29.5q0 23 18 45.5t50.5 40t76 28.5t94.5 11q28 0 48 -12.5t33 -34.5t19.5 -52.5t6.5 -65.5q0 -37 -4 -88t-4 -99q0 -32 9 -50.5t28 -20.5h36zM335 131q0 22 0.5 42t1.5 38q-23 -2 -56 -6t-58 -9l-47 -9
q-23 -14 -30.5 -33t-7.5 -36q0 -35 18 -53t49 -18q8 0 24 4.5t34.5 12t37.5 18.5t34 25v24z" />
    <glyph glyph-name="b" unicode="b" horiz-adv-x="563" 
d="M175 698q-3 -19 -5 -39t-4 -50t-3.5 -74.5t-2.5 -111.5q21 10 43.5 19.5t43.5 16.5t39 11t30 4q45 0 81.5 -14.5t62.5 -41.5t40.5 -65.5t14.5 -87.5q0 -59 -22.5 -109.5t-61.5 -87.5t-91.5 -58.5t-112.5 -21.5q-42 0 -81.5 10.5t-69.5 31.5q1 16 2.5 31.5t2 37t1 52.5
t0.5 78.5v114v159.5q0 50 -3.5 81.5t-8.5 45.5h-48q-7 18 0 37l147 34zM265 414q-28 0 -55.5 -9t-50.5 -23v-125q0 -80 -3 -183q26 -17 58 -25t67 -8q23 0 43 6.5t32 12.5q31 17 52.5 58t21.5 105q0 50 -14.5 86t-38 59.5t-53 34.5t-59.5 11z" />
    <glyph glyph-name="c" unicode="c" horiz-adv-x="479" 
d="M439 88q11 -7 14.5 -16.5t5.5 -20.5q-17 -14 -40.5 -26t-49 -20.5t-50 -13t-42.5 -4.5q-53 0 -94.5 18t-70.5 48t-44.5 69.5t-15.5 82.5q0 73 24 124.5t61.5 83.5t83.5 46.5t90 14.5q22 -1 45 -7t42 -17t31 -26.5t12 -36.5q0 -14 -14 -30t-42 -21l-6 2q-15 38 -48 57
t-71 19q-14 0 -32.5 -2.5t-27.5 -8.5q-23 -15 -43 -51t-20 -95q0 -56 17.5 -95.5t44.5 -65t59 -37.5t61 -12q38 0 68.5 13.5t51.5 27.5z" />
    <glyph glyph-name="d" unicode="d" horiz-adv-x="581" 
d="M510 696q-3 -25 -7.5 -53.5t-8.5 -67.5t-7 -93.5t-3 -132.5q0 -80 1 -134t4.5 -89t9.5 -53t16 -25h43q5 -10 4.5 -18.5t-4.5 -16.5l-92 -29q-17 8 -28 22t-18 46q-21 -14 -45.5 -26t-47.5 -20.5t-41 -13t-25 -4.5q-45 0 -83.5 15.5t-66.5 44t-43.5 70t-15.5 93.5
q0 70 22 120t57 82t78.5 46.5t85.5 14.5q29 0 58 -3t55 -8q0 40 -1 67.5t-2 46.5t-3.5 31.5t-5.5 21.5h-42q-12 18 0 37l151 34zM415 90q-5 38 -6 98t-1 150v58q-24 11 -60.5 18.5t-69.5 7.5q-23 0 -43 -3t-34 -8q-34 -19 -49 -60.5t-15 -98.5q0 -50 14 -88.5t36.5 -64
t51.5 -38.5t60 -13q27 0 58.5 10t57.5 32z" />
    <glyph glyph-name="e" unicode="e" horiz-adv-x="512" 
d="M52 208q0 65 24 115t60.5 83.5t81 51t86.5 17.5q31 0 60 -10.5t51.5 -30t37 -49t15.5 -66.5q-5 -8 -14.5 -14.5t-20.5 -12t-22.5 -10t-20.5 -6.5l-250 -67q7 -44 27 -74.5t46.5 -50t57.5 -28.5t60 -9q33 0 64.5 13.5t55.5 32.5q19 -10 21 -38q-17 -13 -39.5 -25
t-48 -21.5t-52.5 -15.5t-54 -6q-50 0 -91.5 16.5t-71.5 45.5t-46.5 70t-16.5 89zM192 396q-20 -18 -36.5 -48.5t-18.5 -84.5l182 33q62 12 62 25q0 16 -8 33t-23 30.5t-37.5 22t-50.5 8.5q-22 0 -40.5 -5.5t-29.5 -13.5z" />
    <glyph glyph-name="f" unicode="f" horiz-adv-x="329" 
d="M306 37q11 -18 0 -38h-267q-6 19 1 38l46 11q8 2 14 8.5t9.5 23t5.5 46.5t2 80q0 57 -1 109.5t-3 95.5h-82q-4 13 -4 25.5t5 25.5h45q21 0 27.5 7t6.5 31q0 48 13.5 82t35 56t48 35t53 19t50 7.5t39.5 1.5q31 -7 52.5 -21t27.5 -30t-6 -30t-46 -21q-17 25 -48.5 40.5
t-67.5 9.5q-20 -13 -33 -29.5t-20.5 -38.5t-10.5 -51.5t-3 -67.5h126q10 -26 0 -51h-125v-228q0 -54 -0.5 -85.5t-2.5 -48.5z" />
    <glyph glyph-name="g" unicode="g" horiz-adv-x="563" 
d="M51 -108q0 43 28 74.5t92 54.5q-21 8 -33.5 21.5t-12.5 38.5q0 15 7 27t19.5 21t29 16.5t34.5 14.5q-27 4 -52.5 15t-45 27.5t-31 38.5t-11.5 48q0 36 13 64t33 48.5t45 34.5t49.5 22.5t45.5 12t33 3.5h5h233q15 -32 0 -64l-102 14q17 -16 27.5 -38.5t10.5 -52.5
q0 -46 -20 -77.5t-50 -52.5t-64.5 -34.5t-64.5 -23.5t-50 -19.5t-20 -23.5q0 -15 18 -20.5t47.5 -5.5t66.5 2.5t76 2.5q11 0 30 -6t37 -19.5t31.5 -37t13.5 -57.5q0 -46 -17.5 -79.5t-44.5 -57t-60.5 -38.5t-64.5 -23.5t-57 -11.5t-39 -3q-20 0 -51 6t-61 22t-51.5 44
t-21.5 72zM304 10q-43 0 -82 3q-37 -14 -64 -35.5t-27 -59.5q0 -31 15 -52t40.5 -33.5t59.5 -18t72 -5.5q33 0 63 10q10 5 20.5 16t19.5 26t14.5 33.5t5.5 39.5q0 17 -6.5 30.5t-22.5 23.5t-42 15.5t-66 6.5zM158 330q0 -30 11 -53.5t30.5 -40.5t46 -27.5t57.5 -14.5
q35 17 59 41.5t24 67.5q0 61 -36 89.5t-88 28.5q-48 0 -75 -21q-11 -14 -20 -30.5t-9 -39.5z" />
    <glyph glyph-name="h" unicode="h" horiz-adv-x="606" 
d="M195 697q-6 -62 -8 -106t-2 -76v-98q24 12 53 22t57 18t51.5 12.5t36.5 4.5q30 0 56 -12t45.5 -36t30.5 -59.5t11 -83.5q0 -47 -1 -83t-2 -64t-2 -49t-1 -39l50 -10q9 -19 -1 -39h-200q-6 21 2 38l39 11q21 6 27.5 48.5t6.5 141.5q0 94 -30.5 135t-104.5 41
q-35 0 -68 -11t-56 -22v-127q0 -90 3 -140.5t5 -65.5l48 -11q8 -18 0 -38h-194q-8 20 0 38l28 11q8 3 14 8.5t10 25t6 59.5t2 114v262q0 41 -3.5 70t-11.5 43h-52q-7 19 0 37l150 34z" />
    <glyph glyph-name="i" unicode="i" horiz-adv-x="326" 
d="M234 625q-1 -17 -10 -28.5t-22.5 -19t-30 -11t-32.5 -3.5l-37 67q1 16 11 28t24.5 19.5t31 11t31.5 3.5zM222 480q-6 -63 -8 -127.5t-2 -142.5q0 -66 0.5 -105t2.5 -56l65 -12q6 -20 0 -38h-218q-5 20 2 38l37 11q10 3 16 9t9.5 22.5t5 47.5t1.5 85q0 45 -1 77t-3.5 54.5
t-6 36.5t-8.5 22l-46 1q-8 20 0 37l148 45z" />
    <glyph glyph-name="j" unicode="j" horiz-adv-x="295" 
d="M207 480q-5 -31 -7 -64.5t-2 -76.5t0.5 -99.5t0.5 -133.5q0 -85 -16 -148.5t-43 -107.5t-62.5 -69t-74.5 -32q-27 0 -45 12.5t-23 29.5t5 33t38 24l70 -30q15 4 28 25.5t23 54t15.5 74t5.5 85.5q0 82 -1.5 141t-4.5 100t-8 66t-12 39h-42q-4 9 -4.5 18t4.5 19l150 45z
M215 625q-1 -16 -10 -28t-22.5 -19.5t-30 -11t-32.5 -3.5l-37 69q1 16 11 27.5t24 19t30.5 10.5t31.5 3z" />
    <glyph glyph-name="k" unicode="k" horiz-adv-x="542" 
d="M491 463q8 -17 2 -38l-45 -11q-11 -3 -29.5 -17.5t-41.5 -35.5t-49 -45.5t-53 -48.5q21 -15 52 -48t65 -70.5t67 -72t59 -51.5q9 -18 0 -36h-71q-20 5 -43.5 23t-48 43t-49 54t-47.5 55.5t-43.5 47t-35.5 28.5v-9q0 -82 1 -127t2 -55l50 -12q3 -10 2.5 -19.5t-2.5 -18.5
h-191q-9 20 0 38l27 11q6 3 12 8t10.5 23.5t7 56t2.5 104.5v273q0 41 -4 72t-12 45h-48q-9 15 -2 37l149 34l6 -4q-6 -63 -8 -106t-2 -76v-250q41 8 84 48t101 102l-38 11q-10 19 0 37h164z" />
    <glyph glyph-name="l" unicode="l" horiz-adv-x="338" 
d="M223 697q-3 -30 -5 -55t-3 -60.5t-1.5 -88.5t-0.5 -139v-146t0.5 -88.5t1 -47t1.5 -23.5l61 -12q7 -19 -1 -38h-214q-9 16 1 38l39 11q6 2 11 5t8.5 14.5t6 35.5t4.5 66.5t2.5 108t0.5 160.5q0 84 -6 129.5t-17 62.5h-46q-8 18 0 37l152 34z" />
    <glyph glyph-name="m" unicode="m" horiz-adv-x="881" 
d="M202 467q-2 -13 -2.5 -25t-1.5 -24q22 10 46.5 20.5t47 18t40.5 12.5t27 5q72 0 106 -71q26 16 54.5 29.5t53.5 22.5t44 14t28 5q37 0 65 -16.5t46 -42t27 -57t9 -61.5q0 -48 -2.5 -84.5t-5.5 -66t-5.5 -53.5t-2.5 -45l71 -10q9 -22 0 -39h-228q-4 9 -5 18.5t6 19.5
l39 11q31 8 41.5 58t10.5 148q0 48 -9 79t-24 49t-34.5 25t-40.5 7q-37 0 -67.5 -12.5t-59.5 -29.5q6 -21 9.5 -45t3.5 -53q0 -47 -1 -81.5t-2.5 -60t-2.5 -45.5t-1 -38l52 -12q9 -20 -1 -38h-197q-9 18 2 38l36 11q11 3 17.5 13.5t10 31t4.5 53.5t1 83q0 60 -8.5 96
t-23.5 56t-34.5 26.5t-40.5 6.5q-23 0 -52.5 -11t-52.5 -23q-2 -38 -2.5 -79t-0.5 -91q0 -66 0.5 -105t2.5 -56l50 -12q6 -21 0 -38h-194q-2 9 -2.5 18.5t4.5 19.5l29 11q10 4 16.5 10t10 22.5t5 47t1.5 84.5q0 42 -1.5 72.5t-3.5 52t-6 35.5t-8 22h-48q-9 19 0 36l148 43z
" />
    <glyph glyph-name="n" unicode="n" horiz-adv-x="615" 
d="M198 465q-2 -13 -2.5 -25t-1.5 -24q24 11 52 21.5t55 18.5t49.5 13t34.5 5q63 0 103 -52.5t40 -148.5q0 -47 -1.5 -81t-3 -59.5t-2 -45t2.5 -37.5l71 -11q7 -21 0 -40h-224q-6 18 0 38l42 11q10 3 17 13t10.5 30.5t5 53.5t1.5 83q0 60 -13 96.5t-32.5 56.5t-43.5 26.5
t-46 6.5q-32 0 -64.5 -10.5t-55.5 -21.5q-2 -39 -3 -80t-1 -92q0 -66 1 -105t3 -56l51 -12q8 -21 0 -38h-193q-4 7 -4.5 17t4.5 21l28 11q10 4 16.5 10t10 22t4.5 47t1 85q0 79 -4 119t-12 57h-53q-4 19 0 37l152 46z" />
    <glyph glyph-name="o" unicode="o" horiz-adv-x="598" 
d="M546 245q0 -61 -21 -109t-57 -81t-84.5 -50.5t-103.5 -17.5q-48 0 -90 18t-72.5 49.5t-48 73.5t-17.5 90q0 55 21.5 102.5t59 81.5t87 53.5t106.5 19.5q49 0 90 -17.5t69.5 -48.5t44.5 -73t16 -91zM137 241q0 -45 16 -82t42.5 -63.5t59.5 -41t66 -14.5q21 0 37.5 2.5
t33.5 11.5q11 8 23 22.5t22.5 35.5t17.5 48.5t7 60.5q0 45 -15 82t-40 63.5t-58.5 41t-70.5 14.5q-20 0 -34 -3.5t-27 -8.5q-14 -9 -28 -24.5t-25.5 -36.5t-19 -48t-7.5 -60z" />
    <glyph glyph-name="p" unicode="p" horiz-adv-x="599" 
d="M39 -239q-8 17 0 38l47 11q7 2 13 5.5t10 16t6 36.5t2 66v122q0 81 -1 139.5t-3.5 99.5t-6.5 66t-11 38h-49q-9 19 0 36l148 39l8 -5q-1 -13 -1.5 -26.5t-2.5 -31.5q51 32 93.5 47t59.5 16q43 0 79.5 -13.5t62 -40.5t40 -66.5t14.5 -91.5q0 -68 -24.5 -119.5t-66.5 -86
t-99 -51.5t-123 -17h-21t-20 1q0 -27 0.5 -55.5t1.5 -54t2 -44.5t2 -25l99 -11q8 -20 0 -38h-259zM193 50q39 -9 88 -9q32 0 61.5 4.5t51.5 15.5q10 8 22 21.5t22.5 33.5t17.5 47.5t7 65.5q0 49 -12.5 84t-34 57.5t-49.5 33t-59 10.5q-30 0 -59.5 -12.5t-52.5 -30.5
q-2 -32 -2.5 -77.5t-0.5 -111.5v-132z" />
    <glyph glyph-name="q" unicode="q" horiz-adv-x="586" 
d="M316 -239q-6 18 0 38l53 11q9 2 16 6.5t11.5 25.5t7 64.5t3.5 123.5q-18 -10 -37.5 -18t-38 -13t-35.5 -8t-29 -3q-42 0 -81 14t-68.5 42t-47.5 69t-18 95q0 68 22.5 118t63 83t96 49t121.5 16q39 0 75 -6.5t62 -18.5q-1 -19 -2 -47.5t-2.5 -69t-2.5 -96t-1 -128.5
q0 -62 1 -109t2.5 -83t3.5 -61.5t4 -44.5l72 -11q6 -20 0 -38h-251zM314 48q24 0 49 4.5t45 18.5v56v123t-2 148q-16 10 -49 16.5t-72 6.5q-28 0 -50 -4.5t-34 -11.5q-29 -15 -46.5 -54.5t-17.5 -96.5t16.5 -96t42 -63.5t57 -35.5t61.5 -11z" />
    <glyph glyph-name="r" unicode="r" horiz-adv-x="424" 
d="M202 470q-2 -21 -3 -41.5t-3 -40.5q16 17 36 32.5t41 27.5t41 19t34 7q18 0 37 -14.5t19 -39.5q0 -7 -2 -15.5t-8 -16t-17.5 -13.5t-29.5 -9l-5 5q-14 18 -33 23t-39.5 0t-40.5 -18t-35 -31q-1 -31 -1 -64v-71q0 -66 0.5 -105t2.5 -56l95 -12q6 -20 0 -38h-240
q-6 18 0 37l31 12q11 4 17.5 10.5t9.5 22.5t4 46.5t1 84.5q0 42 -1 72.5t-3.5 52.5t-6 36t-8.5 22h-47q-9 18 0 37l149 43z" />
    <glyph glyph-name="s" unicode="s" horiz-adv-x="395" 
d="M259 474q14 -2 28 -7.5t25 -13.5t18 -18.5t7 -20.5q0 -17 -12.5 -27t-42.5 -12l-7 2q-13 24 -36.5 33.5t-54.5 10.5q-16 -5 -34.5 -18t-18.5 -38q0 -21 16 -37.5t40 -32t52 -31t52 -34.5t40 -43t16 -56q0 -37 -20 -64t-49.5 -44.5t-63 -26t-61.5 -8.5q-21 0 -40.5 7
t-35 17.5t-24.5 23.5t-9 24q0 19 11 30.5t43 15.5l6 -1q9 -19 34.5 -39t65.5 -24q22 5 42.5 19.5t20.5 41.5q0 24 -16 42.5t-40 34t-51.5 31t-51.5 34.5t-40 43t-16 58t22 58t53.5 39.5t67.5 23t64 7.5z" />
    <glyph glyph-name="t" unicode="t" horiz-adv-x="385" 
d="M168 577q21 7 40 0q-2 -15 -4 -27.5l-4 -25t-3.5 -27.5t-2.5 -35h135q7 -20 0 -39l-137 -13q-2 -14 -3.5 -36.5t-2.5 -49t-1.5 -53t-0.5 -47.5q0 -50 5.5 -83t15.5 -52.5t24.5 -28t33.5 -8.5q17 0 42.5 4t48.5 12q11 -18 10 -34l-156 -46q-57 0 -81 59.5t-24 176.5
q0 14 0.5 37.5t1 50t1 52t0.5 44.5h-67q-5 18 7 35q45 15 74.5 52t47.5 82z" />
    <glyph glyph-name="u" unicode="u" horiz-adv-x="583" 
d="M486 475q1 -30 -0.5 -62t-3.5 -71.5t-4 -90.5t-2 -119q0 -32 3 -54t16 -30h42q10 -16 0 -35l-90 -26q-16 6 -28 19t-19 43q-21 -14 -44.5 -25t-47 -19t-44 -12.5t-34.5 -4.5q-32 0 -59.5 12t-48 36t-32.5 60t-12 84q0 45 3 82t5 65t2 48.5t-6 32.5h-52q-8 15 0 34l130 42
l4 -4q6 -24 6.5 -53.5t-2 -63.5t-5.5 -72t-3 -77q0 -57 14 -90t34.5 -50t42.5 -21.5t37 -4.5q30 0 58.5 11t48.5 25q-2 11 -2 23.5v26.5q0 22 1.5 49.5t3 55.5t3.5 53t2 41q0 28 -2 46t-7 27l-37 2q-8 15 0 34l125 37z" />
    <glyph glyph-name="v" unicode="v" horiz-adv-x="515" 
d="M516 463q10 -18 0 -38l-30 -14q-10 -5 -25 -32t-33 -66t-37 -86t-37 -92t-33 -84.5t-25 -62.5q-12 -11 -26 -16t-28 -7q-24 56 -53.5 124t-58.5 132.5t-55 116.5t-43 76l-34 11q-6 20 0 38h207q6 -17 -1 -38l-50 -11q-7 -2 -2.5 -21t15.5 -49.5t27.5 -68t32.5 -75
t30.5 -72t22.5 -58.5h10q14 37 32.5 86t36.5 98t33.5 92t23.5 68l-65 11q-8 18 0 38h165z" />
    <glyph glyph-name="w" unicode="w" horiz-adv-x="755" 
d="M769 463q11 -18 0 -38l-39 -11q-9 -3 -22 -27.5t-27.5 -62.5t-30 -84.5t-29.5 -92.5t-25.5 -87.5t-18.5 -68.5q-16 -10 -33.5 -13.5t-37.5 -2.5q-11 47 -30 103.5t-38.5 110.5t-35.5 101t-22 75h-6q-6 -26 -23.5 -73.5t-38 -102t-40 -108t-29.5 -91.5q-26 -17 -64 -15
q-7 27 -19 66.5t-26 84t-28.5 90t-28 85t-24 69.5t-15.5 44l-46 11q-6 21 2 38h207q8 -17 0 -38l-46 -11q-10 -2 -9.5 -21.5t7 -49t17.5 -66t22.5 -72.5t21 -69t13.5 -56l7 -1q5 18 15.5 47.5t23 64t26.5 72.5t26.5 74.5t22 68.5t13.5 56q19 8 36.5 11.5t35.5 3.5
q6 -38 22.5 -89.5t35.5 -107t37 -108.5t27 -92h7q5 21 13.5 51t18.5 63t20.5 67t20 64t16 53.5t9.5 35.5l-58 11q-8 18 0 38h167z" />
    <glyph glyph-name="x" unicode="x" horiz-adv-x="535" 
d="M22 -1q-10 18 -1 38l42 11q13 3 34 21.5t44 44t45.5 54.5t39.5 54q-2 2 -3 4l-2 4q-23 34 -45.5 65t-42.5 55.5t-35 41.5t-21 22l-57 11q-6 20 0 38h208q8 -18 0 -38l-27 -10q-7 -3 -3.5 -13.5t15 -28t28 -40.5t36.5 -50q12 15 26 34t28 37t25 34t17 26l-34 11
q-8 21 0 38h162q8 -18 0 -38l-41 -11q-14 -4 -34.5 -20.5t-43 -40t-44.5 -51t-39 -51.5l10 -13q45 -65 84.5 -114.5t63.5 -75.5l59 -11q10 -18 0 -38h-213q-5 18 0 38l31 10q8 3 3.5 14.5t-17 30.5t-31.5 44t-40 54q-11 -16 -24.5 -35.5t-27.5 -39.5t-26.5 -37.5
t-20.5 -28.5l33 -12q9 -20 0 -38h-161z" />
    <glyph glyph-name="y" unicode="y" horiz-adv-x="567" 
d="M549 463q6 -20 0 -38l-34 -11q-5 -2 -20 -31t-36 -77.5t-46.5 -111.5t-52.5 -133q-19 -50 -39 -103t-41.5 -98t-45 -75t-50.5 -34q-37 1 -51 24t-12 49q45 14 86 52.5t70 99.5q-20 41 -43 87t-46 92.5t-45 89.5t-40.5 78t-31.5 59t-19 32l-34 11q-9 20 0 38h218
q6 -18 0 -38l-34 -11q-9 -3 -17 -7.5t-8 -18.5q0 -16 12.5 -49.5t32.5 -77t44.5 -93t49.5 -96.5q29 75 59 164.5t56 177.5l-58 11q-8 20 0 38h176z" />
    <glyph glyph-name="z" unicode="z" horiz-adv-x="442" 
d="M408 463q5 -14 -6 -35q-22 -33 -55.5 -79t-70 -95t-72 -96.5t-61.5 -84.5l3 -4q40 6 71 7t55.5 0.5t43.5 -2.5t35 -3l32 74q19 3 36 -5q-5 -26 -9 -53t-9 -48.5t-13 -35t-21 -13.5t-37.5 2.5t-64.5 5t-97.5 3.5t-135.5 -2q-3 18 5 36q17 20 39 47.5t47 59.5t51.5 66.5
t51 67t45.5 62t37 52.5l-3 2q-32 -3 -62 -4t-56 -0.5t-47.5 1.5t-35.5 1l-26 -75q-24 -6 -37 5q1 25 3 53.5t6.5 52t11 39t16.5 15.5q7 0 27 -4t59 -8.5t98.5 -6.5t145.5 2z" />
    <glyph glyph-name="braceleft" unicode="{" horiz-adv-x="489" 
d="M440 765q-3 -19 -14 -29t-27 -14.5t-34.5 -5t-36.5 -0.5t-33 -1.5t-24 -7.5q-8 -7 -9.5 -38.5t-2 -76t-2.5 -95.5t-11.5 -96.5t-29 -79.5t-54.5 -45l1 -8q36 -12 54 -41t25.5 -67.5t8 -82.5t2 -86.5t8 -79.5t26.5 -60q10 -13 28 -18.5t39 -6t43 2t42 5.5l5 -8
q2 -11 -10 -19t-30 -13t-38.5 -7.5t-34.5 -2.5q-29 0 -55.5 9.5t-47 30.5t-33 54t-12.5 80q0 88 -3 143.5t-11 88.5t-22 48t-37 21v24q26 8 41.5 26.5t24 56t11 97.5t2.5 151q0 37 11.5 66.5t39 49t75 30t119.5 10.5z" />
    <glyph glyph-name="bar" unicode="|" horiz-adv-x="507" 
d="M230 757q14 8 28 11t28 3v-982q-22 -19 -56 -19v987z" />
    <glyph glyph-name="braceright" unicode="}" horiz-adv-x="489" 
d="M50 -210q3 18 14 28t26.5 14.5t34.5 5t36.5 1t33 2t24.5 7.5q8 7 9.5 38.5t2 75.5t2.5 95t11.5 96.5t29 79t54.5 44.5l-1 9q-37 12 -55 41t-25 67.5t-8 82.5t-2.5 86t-8.5 78.5t-26 60.5q-11 13 -28.5 18.5t-38.5 6t-43 -1.5t-41 -5l-6 7q0 12 12 20t30 13.5t37.5 7.5
t33.5 2q29 0 56 -9.5t47.5 -30.5t33 -54t12.5 -80q0 -88 3 -143.5t10.5 -88.5t21.5 -48t37 -21v-24q-26 -8 -41.5 -26.5t-23.5 -56t-11 -98t-3 -151.5q0 -37 -11.5 -66t-39 -48.5t-75 -30t-119.5 -10.5z" />
    <glyph glyph-name="asciitilde" unicode="~" 
d="M48 335q48 32 84.5 37t67 -3.5t58.5 -24t58.5 -23.5t66 -2t81.5 39q13 -10 18 -28.5t0 -34.5q-58 -34 -101 -40.5t-76 1t-59.5 22.5t-53.5 23.5t-57 4.5t-69 -34q-14 9 -18 29t0 34z" />
    <glyph glyph-name="exclamdown" unicode="&#xa1;" horiz-adv-x="320" 
d="M68 -190l38 489q21 21 47 20l34 -500q-23 -11 -46.5 -17t-48.5 -8zM64 444q0 16 9 28t22.5 20t30 12t31.5 4l41 -71q-1 -16 -10.5 -28t-24 -19.5t-30.5 -11.5t-31 -4z" />
    <glyph glyph-name="cent" unicode="&#xa2;" horiz-adv-x="479" 
d="M439 88q11 -7 14.5 -16.5t5.5 -20.5q-15 -12 -35 -22.5t-41.5 -19t-43.5 -14t-41 -7.5v-164q-27 -12 -55 0v165q-45 6 -80.5 25.5t-60 48.5t-37.5 65.5t-13 76.5q0 60 16 104.5t42.5 76t61 51t71.5 28.5v204q29 9 56 0v-195h12q22 -1 45 -7t42 -17t31 -26.5t12 -36.5
q0 -14 -14 -30t-42 -21l-6 2q-13 30 -37 48.5t-54 24.5v-361q15 -3 31 -3q38 0 68.5 13.5t51.5 27.5zM137 257q0 -41 9.5 -73t26 -56t37 -40.5t43.5 -26.5v353q-14 -1 -29.5 -3.5t-23.5 -7.5q-23 -15 -43 -51t-20 -95z" />
    <glyph glyph-name="sterling" unicode="&#xa3;" horiz-adv-x="504" 
d="M232 274q12 -37 11.5 -68t-9.5 -56.5t-24.5 -44t-32.5 -30.5l1 -4q74 0 131 6.5t93 15.5l23 51q11 8 20.5 6t16.5 -10l-24 -141h-374q-12 14 -9.5 32t9.5 30q21 0 41 9.5t36.5 25.5t26.5 36.5t10 42.5q0 24 -5.5 47.5t-19.5 51.5h-103q-6 14 -5.5 27.5t5.5 25.5h84
q-17 34 -35 75.5t-18 93.5q0 39 16 72t44.5 57.5t68 38.5t87.5 14q16 0 35.5 -2t39.5 -4.5l40 -5t37 -4.5l8 -15l-35 -145q-8 -3 -18 -3t-15 3l7 83q-35 26 -67 34t-58 8q-15 0 -31 -4t-24 -7q-17 -19 -31 -49t-14 -66q0 -48 13.5 -92t31.5 -82h194q5 -10 5.5 -25t-5.5 -28
h-178z" />
    <glyph glyph-name="yen" unicode="&#xa5;" horiz-adv-x="626" 
d="M316 208v56q-2 3 -6 11h-172q-7 21 -2 29.5t17 18.5h128q-19 30 -40.5 62.5t-43 64t-42 61t-37 52l-27.5 37.5t-14 18l-56 11q-6 20 0 38h237q9 -18 0 -38l-39 -11q-10 -3 -1 -27.5t32 -63.5t57 -90t74 -109q21 34 47 79t50.5 88t43 77t23.5 46l-45 11q-6 19 1 38h182
q6 -18 0 -38l-44 -11q-11 -3 -26.5 -18.5t-34 -39.5t-39 -53.5t-40.5 -61.5t-39 -63.5t-35 -58.5h177q4 -17 1 -25.5t-12 -22.5h-185v-67h193q4 -17 1 -26t-13 -22h-181q1 -35 2.5 -62t5.5 -50l84 -11q6 -20 0 -38h-270q-5 20 2 38l57 11q14 2 20 27t8 85h-180q-6 20 -1 29
t17 19h165z" />
    <glyph glyph-name="brokenbar" unicode="&#xa6;" horiz-adv-x="507" 
d="M230 180q24 10 56 0v-391q-22 -19 -56 -19v410zM286 385q-14 -3 -27.5 -3.5t-28.5 2.5v373q14 8 28 11t28 3v-386z" />
    <glyph glyph-name="section" unicode="&#xa7;" horiz-adv-x="760" 
d="M349 -198q-19 0 -37.5 7.5t-33 21t-23.5 31.5t-9 39q0 27 17 47.5t48 16.5l4 -5q-9 -29 -1.5 -50t24 -33t38.5 -16t41 1q18 10 32.5 28t14.5 55q0 30 -20.5 57t-50.5 52.5t-66 52t-66 56.5t-50.5 65.5t-20.5 79.5q0 61 19.5 98.5t43.5 60.5q-17 36 -17 77q0 31 15.5 62
t40.5 55t56.5 39t63.5 15q18 0 36.5 -7.5t33 -21t23.5 -31.5t9 -39q0 -14 -4.5 -26.5t-13 -21.5t-20.5 -13.5t-28 -2.5l-3 5q9 29 1.5 50t-24 33t-38.5 16t-41 -1q-18 -10 -32 -28t-14 -55q0 -30 20 -56.5t50.5 -52.5t66 -52.5t66 -56.5t50.5 -65.5t20 -78.5
q0 -56 -20.5 -93t-46.5 -60q10 -19 15.5 -39.5t5.5 -44.5q0 -32 -15.5 -62.5t-40 -54.5t-56 -39t-63.5 -15zM510 156q0 46 -27 80.5t-65 66t-78.5 63t-68.5 70.5q-9 -14 -15 -32.5t-6 -42.5q0 -45 26 -79.5t63 -65.5t77 -62t69 -69q11 13 18 30t7 41z" />
    <glyph glyph-name="copyright" unicode="&#xa9;" horiz-adv-x="912" 
d="M780 370q0 -70 -18.5 -125.5t-48.5 -98t-69 -72.5t-80 -49t-81 -28t-72 -9q-74 0 -137.5 26t-109.5 71.5t-72 107.5t-26 135t20 130.5t52 100.5t72 72.5t80 48t76 27t60 8.5q76 0 141 -26.5t112.5 -73t74 -109.5t26.5 -136zM125 361q0 -77 26.5 -136t70 -98.5t99 -59.5
t113.5 -20q65 0 107 12.5t66 31.5q18 15 38.5 39t37 55.5t27.5 70t11 82.5q0 73 -24.5 131.5t-67 100t-101.5 64t-128 22.5q-50 0 -89.5 -13t-65.5 -29q-13 -9 -33.5 -30.5t-39.5 -54t-33 -75t-14 -93.5zM550 413q-14 -8 -26 -1l-5 61q-11 10 -36 14t-54 4q-22 0 -43 -4.5
t-35 -10.5q-16 -13 -29 -40.5t-13 -71.5q0 -33 12.5 -62.5t33.5 -51t49 -34t59 -12.5q55 0 97 26q12 -12 9 -29q-10 -11 -29 -19.5t-40 -14.5t-40 -9.5t-28 -3.5q-39 0 -75.5 12.5t-64 36.5t-44.5 58.5t-17 78.5q0 43 17 80t46 64t69 42.5t86 15.5q20 0 43 -4t36 -5l20 9
l13 -7z" />
    <glyph glyph-name="guillemotleft" unicode="&#xab;" horiz-adv-x="463" 
d="M266 287l140 -162q-2 -21 -16.5 -37t-37.5 -23l-153 190q-10 17 0 31l165 159q32 -8 34 -44zM108 277l136 -166q-4 -41 -52 -61l-154 193q-8 18 0 31l174 180q33 -7 35 -42z" />
    <glyph glyph-name="logicalnot" unicode="&#xac;" 
d="M499 374v-176q-5 -6 -14.5 -9.5t-20 -4.5t-20.5 0t-16 3v117h-395q-6 20 -0.5 40t18.5 30h448z" />
    <glyph glyph-name="uni00AD" unicode="&#xad;" horiz-adv-x="441" 
d="M353 322q-4 -35 -18 -60.5t-42 -31.5l-202 -42l-6 7q5 35 18 60.5t39 30.5l205 44z" />
    <glyph glyph-name="registered" unicode="&#xae;" horiz-adv-x="620" 
d="M577 469q0 -50 -14 -89.5t-36.5 -70t-51.5 -52.5t-59.5 -35.5t-59.5 -20t-52 -6.5q-53 0 -98.5 18.5t-79 51.5t-52.5 77.5t-19 96.5t15 93t39 71.5t54.5 52t60 34.5t56 19t43.5 6q55 0 101.5 -19t80.5 -52t53 -78t19 -97zM103 476q0 -58 19 -101.5t50 -73t71 -44.5
t82 -15q12 0 30 2t36 5.5t33 8t23 10.5q12 9 26.5 24t27 36t21 48t8.5 60q0 57 -19 100.5t-50.5 72.5t-72.5 44t-84 15q-26 0 -58.5 -5.5t-49.5 -16.5q-9 -6 -24.5 -20.5t-31 -36.5t-26.5 -50.5t-11 -62.5zM186 343q-6 16 0 35l23 6q5 0 8 3t5 11t3 23.5t1 41.5v50t-1 32
l-43 5q-6 17 2 32q10 1 33.5 3t47.5 3t43 2t21 1q16 0 31.5 -3t28.5 -10.5t21 -19.5t8 -30q0 -25 -11 -42t-30 -28q21 -31 46 -62t45 -45q-1 -5 -8 -11t-24 -6q-18 0 -35.5 12t-33 29t-28.5 35.5t-23 31.5h-31v-30.5t2 -27.5l33 -7q6 -17 0 -34h-134zM287 544
q0 -9 -0.5 -16.5t-1 -15.5t-0.5 -18.5v-25.5q19 0 35 4q17 5 25.5 13t8.5 26q0 20 -19 27.5t-48 5.5z" />
    <glyph glyph-name="degree" unicode="&#xb0;" horiz-adv-x="505" 
d="M406 568q0 -45 -17.5 -76t-42.5 -50.5t-53 -28.5t-49 -9q-32 0 -59 11.5t-46 31t-29.5 46.5t-10.5 58q0 47 19 78.5t44.5 51t52 27.5t41.5 8q33 0 60.5 -11.5t47.5 -31t31 -47t11 -58.5zM157 570q0 -27 9.5 -47t24.5 -33.5t34.5 -20t40.5 -6.5q12 0 25.5 3.5t20.5 8.5
q12 8 23.5 28t11.5 46q0 24 -8.5 44.5t-23.5 34.5t-34.5 22t-41.5 8q-26 0 -43 -11q-4 -3 -10.5 -9.5t-13 -16t-11 -22.5t-4.5 -29z" />
    <glyph glyph-name="plusminus" unicode="&#xb1;" 
d="M237 406v183q23 20 60 23v-206h212q3 -17 -0.5 -37t-12.5 -33h-199v-90q-32 -28 -60 -27v117h-194q-6 20 -1 40t19 30h176zM499 193q4 -17 0.5 -37t-13.5 -33h-453q-6 20 -0.5 40t18.5 30h448z" />
    <glyph glyph-name="mu" unicode="&#xb5;" horiz-adv-x="628" 
d="M179 463q-3 -15 -5 -30.5t-3.5 -34t-2 -41.5t-0.5 -54v-151q17 -32 46.5 -54.5t77.5 -22.5q61 0 96.5 53t35.5 151v14q0 23 -0.5 42t-1 38.5t-2 41t-2.5 48.5h71q-5 -42 -6 -84.5t-1 -91.5v-45q0 -38 1.5 -75t4 -70t6.5 -58.5t10 -38.5l-62 -12q-6 14 -8.5 43.5
t-3.5 68.5h-4q-6 -27 -20 -48t-33 -35t-42 -21.5t-45 -7.5q-41 0 -69 15.5t-43 39.5h-6v-37.5t0.5 -51t1 -57t1.5 -56.5t2.5 -48t4.5 -32q-39 -23 -74 0q2 15 3.5 49t2 83t1 110t0.5 130v73v70.5t-1 70.5t-2 64t-4 52h75z" />
    <glyph glyph-name="periodcentered" unicode="&#xb7;" horiz-adv-x="311" 
d="M228 278q0 -16 -9 -28t-22.5 -20t-30 -12t-31.5 -4l-41 71q1 16 11 28t24 19.5t30.5 11.5t30.5 4z" />
    <glyph glyph-name="guillemotright" unicode="&#xbb;" horiz-adv-x="463" 
d="M197 224l-140 162q2 22 16 38t37 23l154 -190q9 -18 0 -31l-165 -159q-32 8 -34 44zM355 235l-136 166q4 42 52 61l153 -193q9 -19 0 -31l-173 -181q-34 10 -35 43z" />
    <glyph glyph-name="onequarter" unicode="&#xbc;" horiz-adv-x="953" 
d="M737 386q15 11 33 17.5t33 4.5q-2 -45 -3 -74.5t-1.5 -52.5t-1 -44.5t-0.5 -50.5v-52q32 -2 60 -2.5t49 0.5l3 -4q-5 -35 -31 -44t-81 -10q0 -20 0.5 -41t1.5 -48q-7 -7 -18 -12t-22.5 -8t-22 -3t-16.5 4q1 24 1.5 40t1 27.5t1 20.5t0.5 20q-42 -1 -93.5 -2.5
t-116.5 -7.5q-8 9 -14 22t-7 27q13 23 42.5 59t65 75t72.5 76.5t64 62.5zM775 771q14 -5 27.5 -14.5t15.5 -21.5l-572 -806q-13 5 -24.5 14.5t-13.5 21.5zM251 673q-3 -31 -5 -57t-2.5 -50t-1 -47t-0.5 -47q0 -50 1.5 -79t5 -44t9.5 -20t15 -6l74 -12q5 -11 4.5 -20.5
t-4.5 -20.5h-294q-5 11 -5 20.5t5 20.5l52 12q21 5 33 10.5t18.5 20t8.5 42.5t2 79v42.5t-0.5 31t-1.5 24t-2 21.5h-85q-7 12 -4 26t21 19l151 40zM560 137q37 2 79.5 2t85.5 -2v15l-1 157h-6q-30 -29 -72.5 -75.5t-85.5 -96.5z" />
    <glyph glyph-name="onehalf" unicode="&#xbd;" horiz-adv-x="963" 
d="M766 771q14 -5 27.5 -14.5t15.5 -21.5l-572 -806q-13 5 -24.5 14.5t-13.5 21.5zM251 673q-3 -31 -5 -57t-2.5 -50t-1 -47t-0.5 -47q0 -50 1.5 -79t5 -44t9.5 -20t15 -6l74 -12q5 -11 4.5 -20.5t-4.5 -20.5h-294q-5 11 -5 20.5t5 20.5l52 12q21 5 33 10.5t18.5 20
t8.5 42.5t2 79v42.5t-0.5 31t-1.5 24t-2 21.5h-85q-7 12 -4 26t21 19l151 40zM609 291q-12 2 -19 14.5t6 25.5q40 42 83 60t75 18q57 0 92.5 -27t35.5 -90q0 -37 -18 -69.5t-46 -61.5t-62 -54.5t-65 -46.5l1 -5q54 15 98.5 17.5t69.5 6.5l18 38q8 15 20.5 14.5t20.5 -6.5
l-24 -125q-15 -7 -30 -9t-33 -1t-41 3.5t-53 3.5t-69 -0.5t-90 -7.5q-4 3 -7 12.5t0 17.5q111 75 173.5 133.5t62.5 107.5q0 35 -20.5 57t-59.5 22q-40 0 -67 -12.5t-52 -35.5z" />
    <glyph glyph-name="threequarters" unicode="&#xbe;" horiz-adv-x="887" 
d="M669 386q15 11 33 17.5t33 4.5q-2 -45 -3 -74.5t-1.5 -52.5t-1 -44.5t-0.5 -50.5v-52q32 -2 60 -2.5t49 0.5l3 -4q-5 -35 -31 -44t-81 -10q0 -20 0.5 -41t1.5 -48q-7 -7 -18 -12t-22.5 -8t-22 -3t-16.5 4q1 24 1.5 40t1 27.5t1 20.5t0.5 20q-42 -1 -93.5 -2.5
t-116.5 -7.5q-8 9 -14 22t-7 27q13 23 42.5 59t65 75t72.5 76.5t64 62.5zM67 565q-18 8 -21 22.5t11 25.5q34 28 74.5 46.5t78.5 18.5q22 0 42 -4t35 -13.5t23.5 -24.5t8.5 -37q0 -39 -20 -58.5t-51 -35.5v-6q51 0 78.5 -19.5t27.5 -66.5q0 -40 -24.5 -72t-61.5 -55
t-82 -35.5t-85 -12.5q-23 0 -37.5 11t-18 26.5t5.5 32t32 27.5q12 -8 28.5 -13.5t35.5 -8t39 -3t38 2.5q24 11 38 29.5t14 46.5q0 25 -16 38.5t-40 17.5t-52.5 0.5t-54.5 -11.5l-6 6q-5 18 0.5 28t16 16t23 9t21.5 5q13 3 26 8.5t23 13t16.5 17.5t6.5 21q0 23 -17.5 36.5
t-43.5 13.5q-29 0 -56 -11.5t-56 -31.5zM736 771q14 -5 27.5 -14.5t15.5 -21.5l-572 -806q-13 5 -24.5 14.5t-13.5 21.5zM492 137q37 2 79.5 2t85.5 -2v15l-1 157h-6q-30 -29 -72.5 -75.5t-85.5 -96.5z" />
    <glyph glyph-name="questiondown" unicode="&#xbf;" horiz-adv-x="440" 
d="M239 -185q-9 18 -29 28.5t-44 19t-49.5 18.5t-46 27t-34 44.5t-13.5 71.5q0 51 12 81.5t31.5 49t43.5 28.5t47 19t42.5 21t31.5 34l2 75l22 5q8 -6 13 -28t5 -42q0 -37 -11 -62.5t-28.5 -43.5t-39 -30.5t-42.5 -21.5q-35 -14 -58 -29t-23 -41q0 -22 16 -35.5t39.5 -22.5
t51.5 -17t51.5 -19.5t39.5 -29.5t16 -47q0 -49 -9.5 -69t-34.5 -21zM158 446q0 16 9 28t22.5 20t30 12.5t31.5 4.5l41 -72q-1 -16 -11 -27.5t-24 -19.5t-30.5 -12t-30.5 -4z" />
    <glyph glyph-name="Agrave" unicode="&#xc0;" horiz-adv-x="688" 
d="M333 668q26 23 61 21q11 -34 31 -89t44 -120t50.5 -133t50.5 -128t43.5 -105.5t30.5 -65.5l42 -11q8 -18 0 -38h-226q-9 20 0 38l42 11q13 3 22 7t5 20q-11 34 -25.5 75.5t-31.5 86.5q-64 2 -122.5 3t-122.5 -1q-20 -54 -37 -103.5t-28 -87.5l68 -11q9 -19 1 -38h-185
q-9 21 0 43l17 6q11 3 23 13.5t20 24.5q6 11 17.5 38t27.5 64.5t34.5 83t37.5 93t37 94.5t33 88t25.5 72.5t14.5 48.5zM348 553q-8 -21 -19 -50t-24.5 -63.5t-28.5 -73t-30 -77.5q28 -2 52 -3.5t48 -1.5t50 0.5t57 2.5q-16 42 -31.5 82.5t-29.5 76t-24.5 63.5t-15.5 45z
M391 736l-175 131q9 28 28 47.5t52 28.5l132 -176z" />
    <glyph glyph-name="Aacute" unicode="&#xc1;" horiz-adv-x="688" 
d="M333 668q26 23 61 21q11 -34 31 -89t44 -120t50.5 -133t50.5 -128t43.5 -105.5t30.5 -65.5l42 -11q8 -18 0 -38h-226q-9 20 0 38l42 11q13 3 22 7t5 20q-11 34 -25.5 75.5t-31.5 86.5q-64 2 -122.5 3t-122.5 -1q-20 -54 -37 -103.5t-28 -87.5l68 -11q9 -19 1 -38h-185
q-9 21 0 43l17 6q11 3 23 13.5t20 24.5q6 11 17.5 38t27.5 64.5t34.5 83t37.5 93t37 94.5t33 88t25.5 72.5t14.5 48.5zM348 553q-8 -21 -19 -50t-24.5 -63.5t-28.5 -73t-30 -77.5q28 -2 52 -3.5t48 -1.5t50 0.5t57 2.5q-16 42 -31.5 82.5t-29.5 76t-24.5 63.5t-15.5 45z
M274 765l154 148q17 -5 28 -10t18 -12t11.5 -17t9.5 -23l-202 -110z" />
    <glyph glyph-name="Acircumflex" unicode="&#xc2;" horiz-adv-x="688" 
d="M333 668q26 23 61 21q11 -34 31 -89t44 -120t50.5 -133t50.5 -128t43.5 -105.5t30.5 -65.5l42 -11q8 -18 0 -38h-226q-9 20 0 38l42 11q13 3 22 7t5 20q-11 34 -25.5 75.5t-31.5 86.5q-64 2 -122.5 3t-122.5 -1q-20 -54 -37 -103.5t-28 -87.5l68 -11q9 -19 1 -38h-185
q-9 21 0 43l17 6q11 3 23 13.5t20 24.5q6 11 17.5 38t27.5 64.5t34.5 83t37.5 93t37 94.5t33 88t25.5 72.5t14.5 48.5zM348 553q-8 -21 -19 -50t-24.5 -63.5t-28.5 -73t-30 -77.5q28 -2 52 -3.5t48 -1.5t50 0.5t57 2.5q-16 42 -31.5 82.5t-29.5 76t-24.5 63.5t-15.5 45z
M499 768q-5 -11 -13.5 -19t-22.5 -13l-111 77l-89 -73q-19 6 -31 26l120 130q18 10 33 0z" />
    <glyph glyph-name="Atilde" unicode="&#xc3;" horiz-adv-x="688" 
d="M333 668q26 23 61 21q11 -34 31 -89t44 -120t50.5 -133t50.5 -128t43.5 -105.5t30.5 -65.5l42 -11q8 -18 0 -38h-226q-9 20 0 38l42 11q13 3 22 7t5 20q-11 34 -25.5 75.5t-31.5 86.5q-64 2 -122.5 3t-122.5 -1q-20 -54 -37 -103.5t-28 -87.5l68 -11q9 -19 1 -38h-185
q-9 21 0 43l17 6q11 3 23 13.5t20 24.5q6 11 17.5 38t27.5 64.5t34.5 83t37.5 93t37 94.5t33 88t25.5 72.5t14.5 48.5zM348 553q-8 -21 -19 -50t-24.5 -63.5t-28.5 -73t-30 -77.5q28 -2 52 -3.5t48 -1.5t50 0.5t57 2.5q-16 42 -31.5 82.5t-29.5 76t-24.5 63.5t-15.5 45z
M231 841q33 34 58 43t44.5 5t36.5 -15.5t34.5 -19t38 -5.5t47.5 26q9 -4 15.5 -16t5.5 -26q-32 -33 -58.5 -43t-49 -7.5t-42 13t-38 18t-36.5 6.5t-37 -21q-22 16 -19 42z" />
    <glyph glyph-name="Adieresis" unicode="&#xc4;" horiz-adv-x="688" 
d="M333 668q26 23 61 21q11 -34 31 -89t44 -120t50.5 -133t50.5 -128t43.5 -105.5t30.5 -65.5l42 -11q8 -18 0 -38h-226q-9 20 0 38l42 11q13 3 22 7t5 20q-11 34 -25.5 75.5t-31.5 86.5q-64 2 -122.5 3t-122.5 -1q-20 -54 -37 -103.5t-28 -87.5l68 -11q9 -19 1 -38h-185
q-9 21 0 43l17 6q11 3 23 13.5t20 24.5q6 11 17.5 38t27.5 64.5t34.5 83t37.5 93t37 94.5t33 88t25.5 72.5t14.5 48.5zM348 553q-8 -21 -19 -50t-24.5 -63.5t-28.5 -73t-30 -77.5q28 -2 52 -3.5t48 -1.5t50 0.5t57 2.5q-16 42 -31.5 82.5t-29.5 76t-24.5 63.5t-15.5 45z
M330 817q-1 -15 -9 -25.5t-20.5 -17.5t-27 -10.5t-29.5 -3.5l-33 63q1 15 9.5 25.5t21.5 17.5t27.5 10t27.5 3zM523 819q-1 -14 -9 -24.5t-20 -17.5t-27 -10.5t-29 -3.5l-34 62q1 15 9.5 25.5t21 17.5t27 10t28.5 3z" />
    <glyph glyph-name="Aring" unicode="&#xc5;" horiz-adv-x="688" 
d="M333 668q26 23 61 21q11 -34 31 -89t44 -120t50.5 -133t50.5 -128t43.5 -105.5t30.5 -65.5l42 -11q8 -18 0 -38h-226q-9 20 0 38l42 11q13 3 22 7t5 20q-11 34 -25.5 75.5t-31.5 86.5q-64 2 -122.5 3t-122.5 -1q-20 -54 -37 -103.5t-28 -87.5l68 -11q9 -19 1 -38h-185
q-9 21 0 43l17 6q11 3 23 13.5t20 24.5q6 11 17.5 38t27.5 64.5t34.5 83t37.5 93t37 94.5t33 88t25.5 72.5t14.5 48.5zM461 842q0 -28 -10.5 -47.5t-26 -31.5t-32.5 -17.5t-30 -5.5q-40 0 -65 26t-25 65q0 29 11.5 48.5t27.5 31.5t32.5 17t26.5 5q41 0 66 -26.5t25 -64.5z
M348 553q-8 -21 -19 -50t-24.5 -63.5t-28.5 -73t-30 -77.5q28 -2 52 -3.5t48 -1.5t50 0.5t57 2.5q-16 42 -31.5 82.5t-29.5 76t-24.5 63.5t-15.5 45zM316 841q0 -26 18.5 -41t39.5 -15q6 0 15.5 1t14.5 3q5 5 9 14.5t4 27.5q0 25 -17.5 41.5t-39.5 16.5q-11 0 -17 -2t-11 -4
q-3 -2 -9.5 -12t-6.5 -30z" />
    <glyph glyph-name="AE" unicode="&#xc6;" horiz-adv-x="853" 
d="M320 -1q-8 20 0 39l49 10q12 3 19.5 8t12 23t6.5 55t3 103q-52 1 -99 2t-95 -1q-32 -57 -60 -106.5t-47 -83.5l68 -11q8 -20 0 -38h-184q-7 21 0 43l17 6q11 3 22.5 9.5t21.5 18.5q13 14 38 52.5t56.5 90t66 111t66.5 115t57.5 102t39.5 72.5l-65 10q-6 18 0 38h359
q16 0 33.5 1t33.5 3.5t29.5 7t22.5 10.5l11 -9l-23 -170q-23 -8 -42 0v104q-63 5 -119 5.5t-109 -4.5q-8 -49 -10.5 -114t-2.5 -138q67 -2 111 0t64 11l20 56q11 4 22 3.5t22 -3.5l-20 -194q-15 -7 -37 -2v80q-41 1 -87.5 1t-94.5 -2v-61.5t1 -74t2 -71.5t4 -55
q99 -10 154.5 -3.5t74.5 14.5l46 98q9 4 17 3.5t16 -3.5l-27 -162l-17 -12q-9 4 -37.5 8.5t-79.5 4.5h-330zM411 349v56.5t-0.5 61t-1.5 59t-2 51.5q-14 -25 -32.5 -58t-39.5 -70.5t-44.5 -78.5t-46.5 -82q40 -3 79 -3t88 3v61z" />
    <glyph glyph-name="Ccedilla" unicode="&#xc7;" horiz-adv-x="661" 
d="M641 677l-23 -188q-22 -10 -39 0l-10 103q-10 7 -27 13.5t-37.5 11.5t-43 8t-43.5 3q-53 0 -83 -6t-55 -18q-18 -11 -37.5 -32.5t-36.5 -53.5t-28 -75t-11 -96q0 -64 18.5 -120.5t56.5 -98.5t95.5 -66.5t134.5 -24.5q50 0 87.5 14t72.5 31q7 -6 11 -14.5t2 -19.5
q-14 -9 -41 -21.5t-60 -23.5t-69 -18.5t-67 -7.5q-70 0 -130.5 22t-105.5 64.5t-70.5 104.5t-25.5 142q0 81 24.5 150t71 120t113.5 79.5t153 28.5q19 0 43 -2.5t49 -4.5t49.5 -1t45.5 9zM345 -102q-1 21 9 42q21 4 45 3.5t44.5 -8.5t34.5 -25t14 -46q0 -28 -13.5 -51
t-35.5 -40t-51 -28.5t-59 -17.5q-10 13 -10 36q43 11 68.5 34t25.5 55q0 27 -22.5 39t-49.5 7z" />
    <glyph glyph-name="Egrave" unicode="&#xc8;" horiz-adv-x="633" 
d="M99 -1q-8 20 0 39l49 10q9 2 16 5t12 12.5t8 28t4.5 51.5t2 82.5t0.5 121.5q0 33 -0.5 72.5t-1 77t-2 69t-3.5 48.5l-91 13q-6 18 0 38h359q16 0 33.5 1t33.5 3.5t29.5 7t22.5 10.5l11 -9l-23 -170q-23 -8 -42 0v104q-63 5 -119 5.5t-109 -4.5q-8 -49 -10.5 -114
t-2.5 -138q67 -2 111 0t64 11l20 56q11 4 22 3.5t22 -3.5l-20 -194q-15 -7 -36 -2l-1 80q-41 1 -87.5 1t-94.5 -2v-61.5t1 -74t2 -71.5t4 -55q99 -10 154.5 -3.5t74.5 14.5l46 98q9 4 17 3.5t16 -3.5l-27 -162l-17 -12q-9 4 -37.5 8.5t-79.5 4.5h-331zM407 736l-175 131
q9 28 28 47.5t52 28.5l132 -176z" />
    <glyph glyph-name="Eacute" unicode="&#xc9;" horiz-adv-x="633" 
d="M99 -1q-8 20 0 39l49 10q9 2 16 5t12 12.5t8 28t4.5 51.5t2 82.5t0.5 121.5q0 33 -0.5 72.5t-1 77t-2 69t-3.5 48.5l-91 13q-6 18 0 38h359q16 0 33.5 1t33.5 3.5t29.5 7t22.5 10.5l11 -9l-23 -170q-23 -8 -42 0v104q-63 5 -119 5.5t-109 -4.5q-8 -49 -10.5 -114
t-2.5 -138q67 -2 111 0t64 11l20 56q11 4 22 3.5t22 -3.5l-20 -194q-15 -7 -36 -2l-1 80q-41 1 -87.5 1t-94.5 -2v-61.5t1 -74t2 -71.5t4 -55q99 -10 154.5 -3.5t74.5 14.5l46 98q9 4 17 3.5t16 -3.5l-27 -162l-17 -12q-9 4 -37.5 8.5t-79.5 4.5h-331zM296 765l154 148
q17 -5 28 -10t18 -12t11.5 -17t9.5 -23l-202 -110z" />
    <glyph glyph-name="Ecircumflex" unicode="&#xca;" horiz-adv-x="633" 
d="M99 -1q-8 20 0 39l49 10q9 2 16 5t12 12.5t8 28t4.5 51.5t2 82.5t0.5 121.5q0 33 -0.5 72.5t-1 77t-2 69t-3.5 48.5l-91 13q-6 18 0 38h359q16 0 33.5 1t33.5 3.5t29.5 7t22.5 10.5l11 -9l-23 -170q-23 -8 -42 0v104q-63 5 -119 5.5t-109 -4.5q-8 -49 -10.5 -114
t-2.5 -138q67 -2 111 0t64 11l20 56q11 4 22 3.5t22 -3.5l-20 -194q-15 -7 -36 -2l-1 80q-41 1 -87.5 1t-94.5 -2v-61.5t1 -74t2 -71.5t4 -55q99 -10 154.5 -3.5t74.5 14.5l46 98q9 4 17 3.5t16 -3.5l-27 -162l-17 -12q-9 4 -37.5 8.5t-79.5 4.5h-331zM496 768
q-5 -11 -13.5 -19t-22.5 -13l-111 77l-89 -73q-19 6 -31 26l120 130q18 10 33 0z" />
    <glyph glyph-name="Edieresis" unicode="&#xcb;" horiz-adv-x="633" 
d="M99 -1q-8 20 0 39l49 10q9 2 16 5t12 12.5t8 28t4.5 51.5t2 82.5t0.5 121.5q0 33 -0.5 72.5t-1 77t-2 69t-3.5 48.5l-91 13q-6 18 0 38h359q16 0 33.5 1t33.5 3.5t29.5 7t22.5 10.5l11 -9l-23 -170q-23 -8 -42 0v104q-63 5 -119 5.5t-109 -4.5q-8 -49 -10.5 -114
t-2.5 -138q67 -2 111 0t64 11l20 56q11 4 22 3.5t22 -3.5l-20 -194q-15 -7 -36 -2l-1 80q-41 1 -87.5 1t-94.5 -2v-61.5t1 -74t2 -71.5t4 -55q99 -10 154.5 -3.5t74.5 14.5l46 98q9 4 17 3.5t16 -3.5l-27 -162l-17 -12q-9 4 -37.5 8.5t-79.5 4.5h-331zM322 817
q-1 -15 -9 -25.5t-20.5 -17.5t-27 -10.5t-29.5 -3.5l-33 63q1 15 9.5 25.5t21.5 17.5t27.5 10t27.5 3zM515 819q-1 -14 -9 -24.5t-20 -17.5t-27 -10.5t-29 -3.5l-34 62q1 15 9.5 25.5t21 17.5t27 10t28.5 3z" />
    <glyph glyph-name="Igrave" unicode="&#xcc;" horiz-adv-x="432" 
d="M96 -1q-4 16 2 38l61 11q16 3 25.5 6.5t15 16.5t7.5 39t2 73v112t-1 121t-3 113.5t-6 88.5l-107 11q-6 18 0 38h315q5 -16 0 -38l-55 -11q-19 -4 -30.5 -9.5t-17.5 -26.5t-8 -64t-2 -122q0 -60 0.5 -109t1 -90t1.5 -77t3 -72l107 -11q4 -18 1 -38h-312zM285 736l-175 131
q9 28 28 47.5t52 28.5l132 -176z" />
    <glyph glyph-name="Iacute" unicode="&#xcd;" horiz-adv-x="432" 
d="M96 -1q-4 16 2 38l61 11q16 3 25.5 6.5t15 16.5t7.5 39t2 73v112t-1 121t-3 113.5t-6 88.5l-107 11q-6 18 0 38h315q5 -16 0 -38l-55 -11q-19 -4 -30.5 -9.5t-17.5 -26.5t-8 -64t-2 -122q0 -60 0.5 -109t1 -90t1.5 -77t3 -72l107 -11q4 -18 1 -38h-312zM158 765l154 148
q17 -5 28 -10t18 -12t11.5 -17t9.5 -23l-202 -110z" />
    <glyph glyph-name="Icircumflex" unicode="&#xce;" horiz-adv-x="432" 
d="M96 -1q-4 16 2 38l61 11q16 3 25.5 6.5t15 16.5t7.5 39t2 73v112t-1 121t-3 113.5t-6 88.5l-107 11q-6 18 0 38h315q5 -16 0 -38l-55 -11q-19 -4 -30.5 -9.5t-17.5 -26.5t-8 -64t-2 -122q0 -60 0.5 -109t1 -90t1.5 -77t3 -72l107 -11q4 -18 1 -38h-312zM386 768
q-5 -11 -13.5 -19t-22.5 -13l-111 77l-89 -73q-19 6 -31 26l120 130q18 10 33 0z" />
    <glyph glyph-name="Idieresis" unicode="&#xcf;" horiz-adv-x="432" 
d="M96 -1q-4 16 2 38l61 11q16 3 25.5 6.5t15 16.5t7.5 39t2 73v112t-1 121t-3 113.5t-6 88.5l-107 11q-6 18 0 38h315q5 -16 0 -38l-55 -11q-19 -4 -30.5 -9.5t-17.5 -26.5t-8 -64t-2 -122q0 -60 0.5 -109t1 -90t1.5 -77t3 -72l107 -11q4 -18 1 -38h-312zM212 817
q-1 -15 -9 -25.5t-20.5 -17.5t-27 -10.5t-29.5 -3.5l-33 63q1 15 9.5 25.5t21.5 17.5t27.5 10t27.5 3zM405 819q-1 -14 -9 -24.5t-20 -17.5t-27 -10.5t-29 -3.5l-34 62q1 15 9.5 25.5t21 17.5t27 10t28.5 3z" />
    <glyph glyph-name="Eth" unicode="&#xd0;" horiz-adv-x="752" 
d="M189 374q0 77 -1.5 144t-3.5 107l-92 11q-3 8 -3.5 16t3.5 19q29 3 76 5t94.5 3.5t87.5 2t57 0.5q74 0 135.5 -19t106 -57.5t69 -97.5t24.5 -138q0 -107 -35 -178t-95 -114t-140 -61t-169 -18h-199q-4 8 -4.5 18.5t4.5 20.5l51 10q10 2 16.5 8.5t10 32.5t5.5 80t2 150
h-96q-6 20 -1.5 33t17.5 22h80zM283 59q25 -5 56.5 -6.5t65.5 0.5t69 8.5t67 18.5q21 10 41 33t35 56t24.5 74.5t9.5 87.5q0 81 -25 139.5t-72.5 95t-116.5 52.5t-157 11q-1 -50 -3 -112t-3 -143h156q4 -17 0.5 -30t-12.5 -25h-144q0 -77 1 -141.5t8 -118.5z" />
    <glyph glyph-name="Ntilde" unicode="&#xd1;" horiz-adv-x="793" 
d="M755 618q-12 -5 -21.5 -11t-15.5 -20t-9 -38t-3 -64v-497q-15 -15 -41 -18q-24 19 -63.5 65.5t-85.5 106t-94.5 125.5t-90.5 125t-73 103t-42 61h-7q0 -31 -1 -84t-1 -131v-104.5t0.5 -76.5t2 -59t3.5 -53l71 -11q8 -21 0 -38h-199q-7 19 1 38l40 11q6 2 10.5 5t7.5 12.5
t5.5 28.5t3.5 52.5t1.5 84.5t0.5 125q0 67 -1 129t-4 133l-68 11q-8 18 0 38h167q18 -25 46 -66t62 -90.5t72.5 -103.5t76.5 -106.5t73.5 -99t64.5 -79.5h6q2 55 2.5 112t0.5 120q0 82 -1 145.5t-3 118.5l-76 11q-9 18 0 38h213q10 -20 0 -38zM296 841q33 34 58 43t44.5 5
t36.5 -15.5t34.5 -19t38 -5.5t47.5 26q9 -4 15.5 -16t5.5 -26q-32 -33 -58.5 -43t-49 -7.5t-42 13t-38 18t-36.5 6.5t-37 -21q-22 16 -19 42z" />
    <glyph glyph-name="Ograve" unicode="&#xd2;" horiz-adv-x="788" 
d="M778 364q0 -107 -34 -180.5t-86.5 -119.5t-116 -66.5t-122.5 -20.5q-72 0 -135 22.5t-109 66t-72.5 108t-26.5 148.5q0 97 36.5 167t93.5 114t126 65t133 21q54 0 109.5 -20.5t101 -61.5t74 -101.5t28.5 -141.5zM167 364q0 -77 24.5 -137.5t66 -102.5t96.5 -64.5
t115 -22.5q33 0 55 5.5t53 17.5q21 12 40.5 34t35.5 53.5t25.5 73t9.5 93.5q0 77 -24.5 136t-65 98.5t-93 60t-109.5 20.5q-34 0 -63 -6.5t-55 -19.5q-23 -15 -43 -38t-35 -53.5t-24 -67.5t-9 -80zM462 736l-175 131q9 28 28 47.5t52 28.5l132 -176z" />
    <glyph glyph-name="Oacute" unicode="&#xd3;" horiz-adv-x="788" 
d="M778 364q0 -107 -34 -180.5t-86.5 -119.5t-116 -66.5t-122.5 -20.5q-72 0 -135 22.5t-109 66t-72.5 108t-26.5 148.5q0 97 36.5 167t93.5 114t126 65t133 21q54 0 109.5 -20.5t101 -61.5t74 -101.5t28.5 -141.5zM167 364q0 -77 24.5 -137.5t66 -102.5t96.5 -64.5
t115 -22.5q33 0 55 5.5t53 17.5q21 12 40.5 34t35.5 53.5t25.5 73t9.5 93.5q0 77 -24.5 136t-65 98.5t-93 60t-109.5 20.5q-34 0 -63 -6.5t-55 -19.5q-23 -15 -43 -38t-35 -53.5t-24 -67.5t-9 -80zM333 765l154 148q17 -5 28 -10t18 -12t11.5 -17t9.5 -23l-202 -110z" />
    <glyph glyph-name="Ocircumflex" unicode="&#xd4;" horiz-adv-x="788" 
d="M778 364q0 -107 -34 -180.5t-86.5 -119.5t-116 -66.5t-122.5 -20.5q-72 0 -135 22.5t-109 66t-72.5 108t-26.5 148.5q0 97 36.5 167t93.5 114t126 65t133 21q54 0 109.5 -20.5t101 -61.5t74 -101.5t28.5 -141.5zM167 364q0 -77 24.5 -137.5t66 -102.5t96.5 -64.5
t115 -22.5q33 0 55 5.5t53 17.5q21 12 40.5 34t35.5 53.5t25.5 73t9.5 93.5q0 77 -24.5 136t-65 98.5t-93 60t-109.5 20.5q-34 0 -63 -6.5t-55 -19.5q-23 -15 -43 -38t-35 -53.5t-24 -67.5t-9 -80zM574 768q-5 -11 -13.5 -19t-22.5 -13l-111 77l-89 -73q-19 6 -31 26
l120 130q18 10 33 0z" />
    <glyph glyph-name="Otilde" unicode="&#xd5;" horiz-adv-x="788" 
d="M778 364q0 -107 -34 -180.5t-86.5 -119.5t-116 -66.5t-122.5 -20.5q-72 0 -135 22.5t-109 66t-72.5 108t-26.5 148.5q0 97 36.5 167t93.5 114t126 65t133 21q54 0 109.5 -20.5t101 -61.5t74 -101.5t28.5 -141.5zM167 364q0 -77 24.5 -137.5t66 -102.5t96.5 -64.5
t115 -22.5q33 0 55 5.5t53 17.5q21 12 40.5 34t35.5 53.5t25.5 73t9.5 93.5q0 77 -24.5 136t-65 98.5t-93 60t-109.5 20.5q-34 0 -63 -6.5t-55 -19.5q-23 -15 -43 -38t-35 -53.5t-24 -67.5t-9 -80zM294 841q33 34 58 43t44.5 5t36.5 -15.5t34.5 -19t38 -5.5t47.5 26
q9 -4 15.5 -16t5.5 -26q-32 -33 -58.5 -43t-49 -7.5t-42 13t-38 18t-36.5 6.5t-37 -21q-22 16 -19 42z" />
    <glyph glyph-name="Odieresis" unicode="&#xd6;" horiz-adv-x="788" 
d="M778 364q0 -107 -34 -180.5t-86.5 -119.5t-116 -66.5t-122.5 -20.5q-72 0 -135 22.5t-109 66t-72.5 108t-26.5 148.5q0 97 36.5 167t93.5 114t126 65t133 21q54 0 109.5 -20.5t101 -61.5t74 -101.5t28.5 -141.5zM167 364q0 -77 24.5 -137.5t66 -102.5t96.5 -64.5
t115 -22.5q33 0 55 5.5t53 17.5q21 12 40.5 34t35.5 53.5t25.5 73t9.5 93.5q0 77 -24.5 136t-65 98.5t-93 60t-109.5 20.5q-34 0 -63 -6.5t-55 -19.5q-23 -15 -43 -38t-35 -53.5t-24 -67.5t-9 -80zM391 817q-1 -15 -9 -25.5t-20.5 -17.5t-27 -10.5t-29.5 -3.5l-33 63
q1 15 9.5 25.5t21.5 17.5t27.5 10t27.5 3zM584 819q-1 -14 -9 -24.5t-20 -17.5t-27 -10.5t-29 -3.5l-34 62q1 15 9.5 25.5t21 17.5t27 10t28.5 3z" />
    <glyph glyph-name="multiply" unicode="&#xd7;" 
d="M218 321l-140 150q20 29 59 35l130 -139l151 139q24 -24 26 -64l-133 -123l145 -154q-23 -32 -63 -31l-131 140l-152 -140q-16 12 -24 26t-7 33z" />
    <glyph glyph-name="Oslash" unicode="&#xd8;" horiz-adv-x="788" 
d="M778 364q0 -107 -34 -180.5t-86.5 -119.5t-116 -66.5t-122.5 -20.5q-40 0 -80 8l-30 -84q-15 5 -32 14t-25 24l24 63q-45 18 -81.5 47t-63 69t-41 91t-14.5 113q0 97 36.5 167t93.5 114t126 65t133 21q14 0 27.5 -1.5t27.5 -3.5l30 77q17 -5 33 -15t22 -24l-21 -58
q39 -16 74 -43t62 -64.5t42.5 -86t15.5 -106.5zM688 314q0 99 -39 167t-100 106l-190 -530q26 -11 53.5 -15.5t56.5 -4.5q33 0 55 5.5t53 17.5q21 12 40.5 34t35.5 53.5t25.5 73t9.5 93.5zM167 364q0 -100 40 -171.5t104 -111.5l187 530q-50 18 -102 18q-34 0 -63 -6.5
t-55 -19.5q-23 -15 -43 -38t-35 -53.5t-24 -67.5t-9 -80z" />
    <glyph glyph-name="Ugrave" unicode="&#xd9;" horiz-adv-x="793" 
d="M335 667q8 -19 0 -39l-51 -10q-13 -3 -20.5 -15.5t-12 -40.5t-6 -75t-1.5 -118q0 -96 19.5 -159.5t51.5 -101t74.5 -52.5t88.5 -15q29 0 45.5 3t36.5 13q17 8 35 26.5t32.5 51.5t23.5 82.5t9 119.5q0 28 -0.5 66t-1.5 77.5t-3.5 76t-6.5 61.5l-66 10q-6 19 0 39h203
q8 -19 0 -39l-44 -10q-9 -3 -14.5 -15.5t-9 -46t-4.5 -94.5t-1 -160q0 -84 -20.5 -144t-56 -98.5t-84 -56.5t-104.5 -18q-19 0 -48.5 3t-62 14t-65 32.5t-58.5 59.5t-42 95t-16 138q0 85 -0.5 163t-3.5 127l-72 11q-6 20 0 39h256zM465 736l-175 131q9 28 28 47.5t52 28.5
l132 -176z" />
    <glyph glyph-name="Uacute" unicode="&#xda;" horiz-adv-x="793" 
d="M335 667q8 -19 0 -39l-51 -10q-13 -3 -20.5 -15.5t-12 -40.5t-6 -75t-1.5 -118q0 -96 19.5 -159.5t51.5 -101t74.5 -52.5t88.5 -15q29 0 45.5 3t36.5 13q17 8 35 26.5t32.5 51.5t23.5 82.5t9 119.5q0 28 -0.5 66t-1.5 77.5t-3.5 76t-6.5 61.5l-66 10q-6 19 0 39h203
q8 -19 0 -39l-44 -10q-9 -3 -14.5 -15.5t-9 -46t-4.5 -94.5t-1 -160q0 -84 -20.5 -144t-56 -98.5t-84 -56.5t-104.5 -18q-19 0 -48.5 3t-62 14t-65 32.5t-58.5 59.5t-42 95t-16 138q0 85 -0.5 163t-3.5 127l-72 11q-6 20 0 39h256zM380 765l154 148q17 -5 28 -10t18 -12
t11.5 -17t9.5 -23l-202 -110z" />
    <glyph glyph-name="Ucircumflex" unicode="&#xdb;" horiz-adv-x="793" 
d="M335 667q8 -19 0 -39l-51 -10q-13 -3 -20.5 -15.5t-12 -40.5t-6 -75t-1.5 -118q0 -96 19.5 -159.5t51.5 -101t74.5 -52.5t88.5 -15q29 0 45.5 3t36.5 13q17 8 35 26.5t32.5 51.5t23.5 82.5t9 119.5q0 28 -0.5 66t-1.5 77.5t-3.5 76t-6.5 61.5l-66 10q-6 19 0 39h203
q8 -19 0 -39l-44 -10q-9 -3 -14.5 -15.5t-9 -46t-4.5 -94.5t-1 -160q0 -84 -20.5 -144t-56 -98.5t-84 -56.5t-104.5 -18q-19 0 -48.5 3t-62 14t-65 32.5t-58.5 59.5t-42 95t-16 138q0 85 -0.5 163t-3.5 127l-72 11q-6 20 0 39h256zM578 768q-5 -11 -13.5 -19t-22.5 -13
l-111 77l-89 -73q-19 6 -31 26l120 130q18 10 33 0z" />
    <glyph glyph-name="Udieresis" unicode="&#xdc;" horiz-adv-x="793" 
d="M335 667q8 -19 0 -39l-51 -10q-13 -3 -20.5 -15.5t-12 -40.5t-6 -75t-1.5 -118q0 -96 19.5 -159.5t51.5 -101t74.5 -52.5t88.5 -15q29 0 45.5 3t36.5 13q17 8 35 26.5t32.5 51.5t23.5 82.5t9 119.5q0 28 -0.5 66t-1.5 77.5t-3.5 76t-6.5 61.5l-66 10q-6 19 0 39h203
q8 -19 0 -39l-44 -10q-9 -3 -14.5 -15.5t-9 -46t-4.5 -94.5t-1 -160q0 -84 -20.5 -144t-56 -98.5t-84 -56.5t-104.5 -18q-19 0 -48.5 3t-62 14t-65 32.5t-58.5 59.5t-42 95t-16 138q0 85 -0.5 163t-3.5 127l-72 11q-6 20 0 39h256zM395 817q-1 -15 -9 -25.5t-20.5 -17.5
t-27 -10.5t-29.5 -3.5l-33 63q1 15 9.5 25.5t21.5 17.5t27.5 10t27.5 3zM588 819q-1 -14 -9 -24.5t-20 -17.5t-27 -10.5t-29 -3.5l-34 62q1 15 9.5 25.5t21 17.5t27 10t28.5 3z" />
    <glyph glyph-name="Yacute" unicode="&#xdd;" horiz-adv-x="626" 
d="M683 667q6 -18 0 -38l-44 -11q-12 -3 -30 -21.5t-39 -47t-44 -63t-45 -70t-41.5 -69t-33.5 -58.5q0 -86 1 -142.5t7 -98.5l84 -11q6 -20 0 -38h-270q-5 20 2 38l57 11q10 1 15.5 12.5t8.5 36.5t4 66t1 101q-16 29 -39 65.5t-48 74.5t-50.5 75t-47 66.5t-36 49t-18.5 23.5
l-56 11q-6 20 0 38h237q9 -18 0 -38l-39 -11q-10 -3 -1 -27.5t32 -63.5t57 -90t74 -109q21 34 47 79t50.5 88t43 77t23.5 46l-45 11q-6 19 1 38h182zM311 765l154 148q17 -5 28 -10t18 -12t11.5 -17t9.5 -23l-202 -110z" />
    <glyph glyph-name="Thorn" unicode="&#xde;" horiz-adv-x="613" 
d="M91 -1q-3 7 -3 20.5t3 21.5l61 12q10 2 17 7t11.5 21.5t6 49t1.5 88.5v78t-0.5 92.5t-1 98.5t-1.5 95t-3 82.5t-4 60.5l-77 12q-6 17 0 32h249q2 -7 2.5 -15.5t-2.5 -17.5l-48 -10q-11 -3 -18.5 -11t-12.5 -40q42 3 70 4t48 1q50 0 88 -15t64 -41.5t39.5 -63.5t13.5 -81
q0 -59 -25 -102.5t-68.5 -72.5t-103.5 -43.5t-129 -13.5q2 -58 3 -107.5t3 -87.5l82 -12q5 -7 5 -20.5t-5 -21.5h-265zM265 466v-83t1 -81q41 -4 76 -4t67 7q27 12 45 29t29 37.5t15.5 43t4.5 44.5q0 34 -10.5 65t-32.5 54.5t-56 37t-81 13.5q-10 0 -25.5 -1.5t-30.5 -3.5
q-2 -28 -2 -66.5v-91.5z" />
    <glyph glyph-name="germandbls" unicode="&#xdf;" horiz-adv-x="569" 
d="M409 511q-17 -13 -34 -25t-31 -25.5t-22.5 -29.5t-8.5 -36q0 -28 16.5 -49.5t42 -40t54.5 -36t54.5 -37.5t42 -44.5t16.5 -56.5q0 -37 -20 -64t-49 -44.5t-62.5 -26t-61.5 -8.5q-21 0 -40.5 7t-34.5 17.5t-24.5 23.5t-9.5 24q0 19 11 30.5t43 15.5l7 -1q8 -19 33 -39
t62 -24q24 4 45.5 19t21.5 42q0 24 -15.5 42.5t-39 35.5t-51 33.5t-51 37.5t-39 47.5t-15.5 63.5q0 32 12 55t29.5 41.5t37.5 34.5t35 34q18 22 13 45t-22.5 41.5t-43 28.5t-48.5 6q-20 -13 -33 -29.5t-20.5 -38.5t-10.5 -51.5t-3 -67.5l1 -330q0 -53 -0.5 -84.5t-2.5 -48.5
h-154q-6 19 1 38l46 11q8 2 14 8.5t9.5 23t5.5 46.5t2 80q0 28 -1 72t-2.5 88t-2.5 81.5t-1 52.5q0 48 13.5 82t35 56t48.5 35t53.5 19t50 7.5t39.5 1.5q31 -7 56 -28.5t36 -49.5t4.5 -58t-37.5 -54z" />
    <glyph glyph-name="agrave" unicode="&#xe0;" horiz-adv-x="521" 
d="M486 52q7 -17 0 -31l-84 -30q-30 0 -44.5 22t-19.5 57q-18 -15 -43.5 -30t-51 -27t-47.5 -19t-35 -7q-24 0 -43.5 8.5t-33.5 22.5t-22 32t-8 38q0 50 28 82t93 50l57 15q21 6 53 14t56 13q1 11 1 22v22q0 57 -23.5 86.5t-61.5 29.5q-6 0 -17.5 -1t-24.5 -4t-26 -7.5
t-23 -10.5v-73q-13 -14 -29 -18.5t-29.5 -1.5t-23 14.5t-9.5 29.5q0 23 18 45.5t50.5 40t76 28.5t94.5 11q28 0 48 -12.5t33 -34.5t19.5 -52.5t6.5 -65.5q0 -37 -4 -88t-4 -99q0 -32 9 -50.5t28 -20.5h36zM335 131q0 22 0.5 42t1.5 38q-23 -2 -56 -6t-58 -9l-47 -9
q-23 -14 -30.5 -33t-7.5 -36q0 -35 18 -53t49 -18q8 0 24 4.5t34.5 12t37.5 18.5t34 25v24zM310 532l-175 131q9 28 28 47.5t52 28.5l132 -176z" />
    <glyph glyph-name="aacute" unicode="&#xe1;" horiz-adv-x="521" 
d="M486 52q7 -17 0 -31l-84 -30q-30 0 -44.5 22t-19.5 57q-18 -15 -43.5 -30t-51 -27t-47.5 -19t-35 -7q-24 0 -43.5 8.5t-33.5 22.5t-22 32t-8 38q0 50 28 82t93 50l57 15q21 6 53 14t56 13q1 11 1 22v22q0 57 -23.5 86.5t-61.5 29.5q-6 0 -17.5 -1t-24.5 -4t-26 -7.5
t-23 -10.5v-73q-13 -14 -29 -18.5t-29.5 -1.5t-23 14.5t-9.5 29.5q0 23 18 45.5t50.5 40t76 28.5t94.5 11q28 0 48 -12.5t33 -34.5t19.5 -52.5t6.5 -65.5q0 -37 -4 -88t-4 -99q0 -32 9 -50.5t28 -20.5h36zM335 131q0 22 0.5 42t1.5 38q-23 -2 -56 -6t-58 -9l-47 -9
q-23 -14 -30.5 -33t-7.5 -36q0 -35 18 -53t49 -18q8 0 24 4.5t34.5 12t37.5 18.5t34 25v24zM178 561l154 148q17 -5 28 -10t18 -12t11.5 -17t9.5 -23l-202 -110z" />
    <glyph glyph-name="acircumflex" unicode="&#xe2;" horiz-adv-x="521" 
d="M486 52q7 -17 0 -31l-84 -30q-30 0 -44.5 22t-19.5 57q-18 -15 -43.5 -30t-51 -27t-47.5 -19t-35 -7q-24 0 -43.5 8.5t-33.5 22.5t-22 32t-8 38q0 50 28 82t93 50l57 15q21 6 53 14t56 13q1 11 1 22v22q0 57 -23.5 86.5t-61.5 29.5q-6 0 -17.5 -1t-24.5 -4t-26 -7.5
t-23 -10.5v-73q-13 -14 -29 -18.5t-29.5 -1.5t-23 14.5t-9.5 29.5q0 23 18 45.5t50.5 40t76 28.5t94.5 11q28 0 48 -12.5t33 -34.5t19.5 -52.5t6.5 -65.5q0 -37 -4 -88t-4 -99q0 -32 9 -50.5t28 -20.5h36zM335 131q0 22 0.5 42t1.5 38q-23 -2 -56 -6t-58 -9l-47 -9
q-23 -14 -30.5 -33t-7.5 -36q0 -35 18 -53t49 -18q8 0 24 4.5t34.5 12t37.5 18.5t34 25v24zM407 564q-5 -11 -13.5 -19t-22.5 -13l-111 77l-89 -73q-19 6 -31 26l120 130q18 10 33 0z" />
    <glyph glyph-name="atilde" unicode="&#xe3;" horiz-adv-x="521" 
d="M486 52q7 -17 0 -31l-84 -30q-30 0 -44.5 22t-19.5 57q-18 -15 -43.5 -30t-51 -27t-47.5 -19t-35 -7q-24 0 -43.5 8.5t-33.5 22.5t-22 32t-8 38q0 50 28 82t93 50l57 15q21 6 53 14t56 13q1 11 1 22v22q0 57 -23.5 86.5t-61.5 29.5q-6 0 -17.5 -1t-24.5 -4t-26 -7.5
t-23 -10.5v-73q-13 -14 -29 -18.5t-29.5 -1.5t-23 14.5t-9.5 29.5q0 23 18 45.5t50.5 40t76 28.5t94.5 11q28 0 48 -12.5t33 -34.5t19.5 -52.5t6.5 -65.5q0 -37 -4 -88t-4 -99q0 -32 9 -50.5t28 -20.5h36zM335 131q0 22 0.5 42t1.5 38q-23 -2 -56 -6t-58 -9l-47 -9
q-23 -14 -30.5 -33t-7.5 -36q0 -35 18 -53t49 -18q8 0 24 4.5t34.5 12t37.5 18.5t34 25v24zM123 637q33 34 58 43t44.5 5t36.5 -15.5t34.5 -19t38 -5.5t47.5 26q9 -4 15.5 -16t5.5 -26q-32 -33 -58.5 -43t-49 -7.5t-42 13t-38 18t-36.5 6.5t-37 -21q-22 16 -19 42z" />
    <glyph glyph-name="adieresis" unicode="&#xe4;" horiz-adv-x="521" 
d="M486 52q7 -17 0 -31l-84 -30q-30 0 -44.5 22t-19.5 57q-18 -15 -43.5 -30t-51 -27t-47.5 -19t-35 -7q-24 0 -43.5 8.5t-33.5 22.5t-22 32t-8 38q0 50 28 82t93 50l57 15q21 6 53 14t56 13q1 11 1 22v22q0 57 -23.5 86.5t-61.5 29.5q-6 0 -17.5 -1t-24.5 -4t-26 -7.5
t-23 -10.5v-73q-13 -14 -29 -18.5t-29.5 -1.5t-23 14.5t-9.5 29.5q0 23 18 45.5t50.5 40t76 28.5t94.5 11q28 0 48 -12.5t33 -34.5t19.5 -52.5t6.5 -65.5q0 -37 -4 -88t-4 -99q0 -32 9 -50.5t28 -20.5h36zM335 131q0 22 0.5 42t1.5 38q-23 -2 -56 -6t-58 -9l-47 -9
q-23 -14 -30.5 -33t-7.5 -36q0 -35 18 -53t49 -18q8 0 24 4.5t34.5 12t37.5 18.5t34 25v24zM224 613q-1 -15 -9 -25.5t-20.5 -17.5t-27 -10.5t-29.5 -3.5l-33 63q1 15 9.5 25.5t21.5 17.5t27.5 10t27.5 3zM417 615q-1 -14 -9 -24.5t-20 -17.5t-27 -10.5t-29 -3.5l-34 62
q1 15 9.5 25.5t21 17.5t27 10t28.5 3z" />
    <glyph glyph-name="aring" unicode="&#xe5;" horiz-adv-x="521" 
d="M486 52q7 -17 0 -31l-84 -30q-30 0 -44.5 22t-19.5 57q-18 -15 -43.5 -30t-51 -27t-47.5 -19t-35 -7q-24 0 -43.5 8.5t-33.5 22.5t-22 32t-8 38q0 50 28 82t93 50l57 15q21 6 53 14t56 13q1 11 1 22v22q0 57 -23.5 86.5t-61.5 29.5q-6 0 -17.5 -1t-24.5 -4t-26 -7.5
t-23 -10.5v-73q-13 -14 -29 -18.5t-29.5 -1.5t-23 14.5t-9.5 29.5q0 23 18 45.5t50.5 40t76 28.5t94.5 11q28 0 48 -12.5t33 -34.5t19.5 -52.5t6.5 -65.5q0 -37 -4 -88t-4 -99q0 -32 9 -50.5t28 -20.5h36zM349 638q0 -28 -10.5 -47.5t-26 -31.5t-32.5 -17.5t-30 -5.5
q-40 0 -65 26t-25 65q0 29 11.5 48.5t27.5 31.5t32.5 17t26.5 5q41 0 66 -26.5t25 -64.5zM335 131q0 22 0.5 42t1.5 38q-23 -2 -56 -6t-58 -9l-47 -9q-23 -14 -30.5 -33t-7.5 -36q0 -35 18 -53t49 -18q8 0 24 4.5t34.5 12t37.5 18.5t34 25v24zM204 637q0 -26 18.5 -41
t39.5 -15q6 0 15.5 1t14.5 3q5 5 9 14.5t4 27.5q0 25 -17.5 41.5t-39.5 16.5q-11 0 -17 -2t-11 -4q-3 -2 -9.5 -12t-6.5 -30z" />
    <glyph glyph-name="ae" unicode="&#xe6;" horiz-adv-x="800" 
d="M400 389q17 20 40.5 36t49 27t51.5 17t48 6q31 0 60 -10.5t51.5 -30t37 -49t15.5 -66.5q-5 -8 -14.5 -14.5t-20.5 -12t-22.5 -10t-20.5 -6.5l-250 -62q6 -45 25.5 -77t46.5 -52t58.5 -29t61.5 -9q32 0 63.5 13.5t55.5 32.5q21 -11 22 -38q-35 -26 -87.5 -47t-106.5 -21
q-68 0 -119.5 28t-79.5 76q-25 -23 -55 -42.5t-58.5 -33t-53 -21t-37.5 -7.5q-24 0 -43.5 8.5t-33.5 22.5t-22 32t-8 38q0 50 28 81.5t93 49.5l57 16q9 2 22 5t28 6.5t30 6.5t27 5q1 9 2 18.5t1 29.5q0 57 -23.5 86.5t-61.5 29.5q-6 0 -17.5 -1t-24.5 -4t-26 -7.5t-23 -10.5
v-73q-13 -14 -29 -18.5t-29.5 -1.5t-23 14.5t-9.5 29.5q0 24 14.5 43t37 32.5t50.5 23t54.5 15.5t48.5 8.5t34 2.5q31 0 53.5 -23.5t26.5 -61.5zM205 47q8 0 24.5 5t36.5 14t42.5 23t42.5 32q-13 33 -13 76v10q-12 -1 -27 -2t-30.5 -2.5t-31 -3.5t-28.5 -4l-45 -9
q-23 -14 -30.5 -32.5t-7.5 -35.5q0 -35 18 -53t49 -18zM478 396q-18 -17 -35 -46.5t-20 -80.5l181 27q25 5 44 11t19 14q0 16 -8 33t-23.5 30.5t-38 22t-50.5 8.5q-22 0 -40.5 -5.5t-28.5 -13.5z" />
    <glyph glyph-name="ccedilla" unicode="&#xe7;" horiz-adv-x="479" 
d="M439 88q11 -7 14.5 -16.5t5.5 -20.5q-17 -14 -40.5 -26t-49 -20.5t-50 -13t-42.5 -4.5q-53 0 -94.5 18t-70.5 48t-44.5 69.5t-15.5 82.5q0 73 24 124.5t61.5 83.5t83.5 46.5t90 14.5q22 -1 45 -7t42 -17t31 -26.5t12 -36.5q0 -14 -14 -30t-42 -21l-6 2q-15 38 -48 57
t-71 19q-14 0 -32.5 -2.5t-27.5 -8.5q-23 -15 -43 -51t-20 -95q0 -56 17.5 -95.5t44.5 -65t59 -37.5t61 -12q38 0 68.5 13.5t51.5 27.5zM208 -99q-1 21 9 42q21 4 45 3.5t44.5 -8.5t34.5 -25t14 -46q0 -28 -13.5 -51t-35.5 -40t-51 -28.5t-59 -17.5q-10 13 -10 36
q43 11 68.5 34t25.5 55q0 27 -22.5 39t-49.5 7z" />
    <glyph glyph-name="egrave" unicode="&#xe8;" horiz-adv-x="512" 
d="M52 208q0 65 24 115t60.5 83.5t81 51t86.5 17.5q31 0 60 -10.5t51.5 -30t37 -49t15.5 -66.5q-5 -8 -14.5 -14.5t-20.5 -12t-22.5 -10t-20.5 -6.5l-250 -67q7 -44 27 -74.5t46.5 -50t57.5 -28.5t60 -9q33 0 64.5 13.5t55.5 32.5q19 -10 21 -38q-17 -13 -39.5 -25
t-48 -21.5t-52.5 -15.5t-54 -6q-50 0 -91.5 16.5t-71.5 45.5t-46.5 70t-16.5 89zM192 396q-20 -18 -36.5 -48.5t-18.5 -84.5l182 33q62 12 62 25q0 16 -8 33t-23 30.5t-37.5 22t-50.5 8.5q-22 0 -40.5 -5.5t-29.5 -13.5zM315 532l-175 131q9 28 28 47.5t52 28.5l132 -176z
" />
    <glyph glyph-name="eacute" unicode="&#xe9;" horiz-adv-x="512" 
d="M52 208q0 65 24 115t60.5 83.5t81 51t86.5 17.5q31 0 60 -10.5t51.5 -30t37 -49t15.5 -66.5q-5 -8 -14.5 -14.5t-20.5 -12t-22.5 -10t-20.5 -6.5l-250 -67q7 -44 27 -74.5t46.5 -50t57.5 -28.5t60 -9q33 0 64.5 13.5t55.5 32.5q19 -10 21 -38q-17 -13 -39.5 -25
t-48 -21.5t-52.5 -15.5t-54 -6q-50 0 -91.5 16.5t-71.5 45.5t-46.5 70t-16.5 89zM192 396q-20 -18 -36.5 -48.5t-18.5 -84.5l182 33q62 12 62 25q0 16 -8 33t-23 30.5t-37.5 22t-50.5 8.5q-22 0 -40.5 -5.5t-29.5 -13.5zM194 561l154 148q17 -5 28 -10t18 -12t11.5 -17
t9.5 -23l-202 -110z" />
    <glyph glyph-name="ecircumflex" unicode="&#xea;" horiz-adv-x="512" 
d="M52 208q0 65 24 115t60.5 83.5t81 51t86.5 17.5q31 0 60 -10.5t51.5 -30t37 -49t15.5 -66.5q-5 -8 -14.5 -14.5t-20.5 -12t-22.5 -10t-20.5 -6.5l-250 -67q7 -44 27 -74.5t46.5 -50t57.5 -28.5t60 -9q33 0 64.5 13.5t55.5 32.5q19 -10 21 -38q-17 -13 -39.5 -25
t-48 -21.5t-52.5 -15.5t-54 -6q-50 0 -91.5 16.5t-71.5 45.5t-46.5 70t-16.5 89zM192 396q-20 -18 -36.5 -48.5t-18.5 -84.5l182 33q62 12 62 25q0 16 -8 33t-23 30.5t-37.5 22t-50.5 8.5q-22 0 -40.5 -5.5t-29.5 -13.5zM412 564q-5 -11 -13.5 -19t-22.5 -13l-111 77
l-89 -73q-19 6 -31 26l120 130q18 10 33 0z" />
    <glyph glyph-name="edieresis" unicode="&#xeb;" horiz-adv-x="512" 
d="M52 208q0 65 24 115t60.5 83.5t81 51t86.5 17.5q31 0 60 -10.5t51.5 -30t37 -49t15.5 -66.5q-5 -8 -14.5 -14.5t-20.5 -12t-22.5 -10t-20.5 -6.5l-250 -67q7 -44 27 -74.5t46.5 -50t57.5 -28.5t60 -9q33 0 64.5 13.5t55.5 32.5q19 -10 21 -38q-17 -13 -39.5 -25
t-48 -21.5t-52.5 -15.5t-54 -6q-50 0 -91.5 16.5t-71.5 45.5t-46.5 70t-16.5 89zM192 396q-20 -18 -36.5 -48.5t-18.5 -84.5l182 33q62 12 62 25q0 16 -8 33t-23 30.5t-37.5 22t-50.5 8.5q-22 0 -40.5 -5.5t-29.5 -13.5zM240 613q-1 -15 -9 -25.5t-20.5 -17.5t-27 -10.5
t-29.5 -3.5l-33 63q1 15 9.5 25.5t21.5 17.5t27.5 10t27.5 3zM433 615q-1 -14 -9 -24.5t-20 -17.5t-27 -10.5t-29 -3.5l-34 62q1 15 9.5 25.5t21 17.5t27 10t28.5 3z" />
    <glyph glyph-name="igrave" unicode="&#xec;" horiz-adv-x="326" 
d="M222 480q-6 -63 -8 -127.5t-2 -142.5q0 -66 0.5 -105t2.5 -56l65 -12q6 -20 0 -38h-218q-5 20 2 38l37 11q10 3 16 9t9.5 22.5t5 47.5t1.5 85q0 45 -1 77t-3.5 54.5t-6 36.5t-8.5 22l-46 1q-8 20 0 37l148 45zM200 532l-175 131q9 28 28 47.5t52 28.5l132 -176z" />
    <glyph glyph-name="iacute" unicode="&#xed;" horiz-adv-x="326" 
d="M222 480q-6 -63 -8 -127.5t-2 -142.5q0 -66 0.5 -105t2.5 -56l65 -12q6 -20 0 -38h-218q-5 20 2 38l37 11q10 3 16 9t9.5 22.5t5 47.5t1.5 85q0 45 -1 77t-3.5 54.5t-6 36.5t-8.5 22l-46 1q-8 20 0 37l148 45zM79 561l154 148q17 -5 28 -10t18 -12t11.5 -17t9.5 -23
l-202 -110z" />
    <glyph glyph-name="icircumflex" unicode="&#xee;" horiz-adv-x="326" 
d="M222 480q-6 -63 -8 -127.5t-2 -142.5q0 -66 0.5 -105t2.5 -56l65 -12q6 -20 0 -38h-218q-5 20 2 38l37 11q10 3 16 9t9.5 22.5t5 47.5t1.5 85q0 45 -1 77t-3.5 54.5t-6 36.5t-8.5 22l-46 1q-8 20 0 37l148 45zM292 564q-5 -11 -13.5 -19t-22.5 -13l-111 77l-89 -73
q-19 6 -31 26l120 130q18 10 33 0z" />
    <glyph glyph-name="idieresis" unicode="&#xef;" horiz-adv-x="326" 
d="M222 480q-6 -63 -8 -127.5t-2 -142.5q0 -66 0.5 -105t2.5 -56l65 -12q6 -20 0 -38h-218q-5 20 2 38l37 11q10 3 16 9t9.5 22.5t5 47.5t1.5 85q0 45 -1 77t-3.5 54.5t-6 36.5t-8.5 22l-46 1q-8 20 0 37l148 45zM126 613q-1 -15 -9 -25.5t-20.5 -17.5t-27 -10.5t-29.5 -3.5
l-33 63q1 15 9.5 25.5t21.5 17.5t27.5 10t27.5 3zM319 615q-1 -14 -9 -24.5t-20 -17.5t-27 -10.5t-29 -3.5l-34 62q1 15 9.5 25.5t21 17.5t27 10t28.5 3z" />
    <glyph glyph-name="eth" unicode="&#xf0;" horiz-adv-x="598" 
d="M536 277q0 -77 -20 -132t-54.5 -90t-81 -51.5t-100.5 -16.5q-48 0 -88.5 16.5t-69 45.5t-44.5 69.5t-16 88.5q0 55 20.5 100.5t55.5 77.5t82.5 49.5t100.5 17.5q31 0 63.5 -13t49.5 -35l5 4q-13 42 -37 82t-54 73l-83 -60q-11 7 -18.5 18.5t-5.5 24.5l75 49
q-23 21 -46 37t-45 26q0 5 2 13t6.5 15t10 11t11.5 3q31 -11 59.5 -27.5t54.5 -37.5l65 58q13 -1 24.5 -14.5t10.5 -27.5l-65 -48q60 -62 96 -146t36 -180zM147 230q0 -45 14.5 -80t39 -59.5t56 -37.5t64.5 -13q21 0 32.5 2.5t28.5 11.5q11 8 23 21t22.5 32t17 44.5
t6.5 58.5q0 45 -13 80t-36.5 59t-55 36.5t-68.5 12.5q-19 0 -33 -3.5t-27 -7.5q-14 -10 -27 -23t-22.5 -32t-15.5 -44t-6 -58z" />
    <glyph glyph-name="ntilde" unicode="&#xf1;" horiz-adv-x="615" 
d="M198 465q-2 -13 -2.5 -25t-1.5 -24q24 11 52 21.5t55 18.5t49.5 13t34.5 5q63 0 103 -52.5t40 -148.5q0 -47 -1.5 -81t-3 -59.5t-2 -45t2.5 -37.5l71 -11q7 -21 0 -40h-224q-6 18 0 38l42 11q10 3 17 13t10.5 30.5t5 53.5t1.5 83q0 60 -13 96.5t-32.5 56.5t-43.5 26.5
t-46 6.5q-32 0 -64.5 -10.5t-55.5 -21.5q-2 -39 -3 -80t-1 -92q0 -66 1 -105t3 -56l51 -12q8 -21 0 -38h-193q-4 7 -4.5 17t4.5 21l28 11q10 4 16.5 10t10 22t4.5 47t1 85q0 79 -4 119t-12 57h-53q-4 19 0 37l152 46zM171 637q33 34 58 43t44.5 5t36.5 -15.5t34.5 -19
t38 -5.5t47.5 26q9 -4 15.5 -16t5.5 -26q-32 -33 -58.5 -43t-49 -7.5t-42 13t-38 18t-36.5 6.5t-37 -21q-22 16 -19 42z" />
    <glyph glyph-name="ograve" unicode="&#xf2;" horiz-adv-x="598" 
d="M546 245q0 -61 -21 -109t-57 -81t-84.5 -50.5t-103.5 -17.5q-48 0 -90 18t-72.5 49.5t-48 73.5t-17.5 90q0 55 21.5 102.5t59 81.5t87 53.5t106.5 19.5q49 0 90 -17.5t69.5 -48.5t44.5 -73t16 -91zM137 241q0 -45 16 -82t42.5 -63.5t59.5 -41t66 -14.5q21 0 37.5 2.5
t33.5 11.5q11 8 23 22.5t22.5 35.5t17.5 48.5t7 60.5q0 45 -15 82t-40 63.5t-58.5 41t-70.5 14.5q-20 0 -34 -3.5t-27 -8.5q-14 -9 -28 -24.5t-25.5 -36.5t-19 -48t-7.5 -60zM339 532l-175 131q9 28 28 47.5t52 28.5l132 -176z" />
    <glyph glyph-name="oacute" unicode="&#xf3;" horiz-adv-x="598" 
d="M546 245q0 -61 -21 -109t-57 -81t-84.5 -50.5t-103.5 -17.5q-48 0 -90 18t-72.5 49.5t-48 73.5t-17.5 90q0 55 21.5 102.5t59 81.5t87 53.5t106.5 19.5q49 0 90 -17.5t69.5 -48.5t44.5 -73t16 -91zM137 241q0 -45 16 -82t42.5 -63.5t59.5 -41t66 -14.5q21 0 37.5 2.5
t33.5 11.5q11 8 23 22.5t22.5 35.5t17.5 48.5t7 60.5q0 45 -15 82t-40 63.5t-58.5 41t-70.5 14.5q-20 0 -34 -3.5t-27 -8.5q-14 -9 -28 -24.5t-25.5 -36.5t-19 -48t-7.5 -60zM205 561l154 148q17 -5 28 -10t18 -12t11.5 -17t9.5 -23l-202 -110z" />
    <glyph glyph-name="ocircumflex" unicode="&#xf4;" horiz-adv-x="598" 
d="M546 245q0 -61 -21 -109t-57 -81t-84.5 -50.5t-103.5 -17.5q-48 0 -90 18t-72.5 49.5t-48 73.5t-17.5 90q0 55 21.5 102.5t59 81.5t87 53.5t106.5 19.5q49 0 90 -17.5t69.5 -48.5t44.5 -73t16 -91zM137 241q0 -45 16 -82t42.5 -63.5t59.5 -41t66 -14.5q21 0 37.5 2.5
t33.5 11.5q11 8 23 22.5t22.5 35.5t17.5 48.5t7 60.5q0 45 -15 82t-40 63.5t-58.5 41t-70.5 14.5q-20 0 -34 -3.5t-27 -8.5q-14 -9 -28 -24.5t-25.5 -36.5t-19 -48t-7.5 -60zM438 564q-5 -11 -13.5 -19t-22.5 -13l-111 77l-89 -73q-19 6 -31 26l120 130q18 10 33 0z" />
    <glyph glyph-name="otilde" unicode="&#xf5;" horiz-adv-x="598" 
d="M546 245q0 -61 -21 -109t-57 -81t-84.5 -50.5t-103.5 -17.5q-48 0 -90 18t-72.5 49.5t-48 73.5t-17.5 90q0 55 21.5 102.5t59 81.5t87 53.5t106.5 19.5q49 0 90 -17.5t69.5 -48.5t44.5 -73t16 -91zM137 241q0 -45 16 -82t42.5 -63.5t59.5 -41t66 -14.5q21 0 37.5 2.5
t33.5 11.5q11 8 23 22.5t22.5 35.5t17.5 48.5t7 60.5q0 45 -15 82t-40 63.5t-58.5 41t-70.5 14.5q-20 0 -34 -3.5t-27 -8.5q-14 -9 -28 -24.5t-25.5 -36.5t-19 -48t-7.5 -60zM158 637q33 34 58 43t44.5 5t36.5 -15.5t34.5 -19t38 -5.5t47.5 26q9 -4 15.5 -16t5.5 -26
q-32 -33 -58.5 -43t-49 -7.5t-42 13t-38 18t-36.5 6.5t-37 -21q-22 16 -19 42z" />
    <glyph glyph-name="odieresis" unicode="&#xf6;" horiz-adv-x="598" 
d="M546 245q0 -61 -21 -109t-57 -81t-84.5 -50.5t-103.5 -17.5q-48 0 -90 18t-72.5 49.5t-48 73.5t-17.5 90q0 55 21.5 102.5t59 81.5t87 53.5t106.5 19.5q49 0 90 -17.5t69.5 -48.5t44.5 -73t16 -91zM137 241q0 -45 16 -82t42.5 -63.5t59.5 -41t66 -14.5q21 0 37.5 2.5
t33.5 11.5q11 8 23 22.5t22.5 35.5t17.5 48.5t7 60.5q0 45 -15 82t-40 63.5t-58.5 41t-70.5 14.5q-20 0 -34 -3.5t-27 -8.5q-14 -9 -28 -24.5t-25.5 -36.5t-19 -48t-7.5 -60zM262 613q-1 -15 -9 -25.5t-20.5 -17.5t-27 -10.5t-29.5 -3.5l-33 63q1 15 9.5 25.5t21.5 17.5
t27.5 10t27.5 3zM455 615q-1 -14 -9 -24.5t-20 -17.5t-27 -10.5t-29 -3.5l-34 62q1 15 9.5 25.5t21 17.5t27 10t28.5 3z" />
    <glyph glyph-name="divide" unicode="&#xf7;" 
d="M509 374q4 -17 0.5 -37t-13.5 -33h-453q-6 20 -0.5 40t18.5 30h448zM343 530q0 -16 -9 -28t-22.5 -20t-30 -12t-31.5 -4l-41 71q1 16 11 28t24 19.5t30.5 11.5t30.5 4zM341 138q0 -16 -9 -28t-22.5 -20t-30 -12t-31.5 -4l-41 71q1 16 11 28t24 19.5t30.5 11.5t30.5 4z
" />
    <glyph glyph-name="oslash" unicode="&#xf8;" horiz-adv-x="598" 
d="M546 245q0 -61 -21 -109t-57 -81t-84.5 -50.5t-103.5 -17.5q-8 0 -16 0.5t-16 1.5l-32 -90q-15 5 -32 14t-25 24l26 70q-60 27 -96.5 83.5t-36.5 127.5q0 55 21.5 102.5t59 81.5t87 53.5t106.5 19.5h12.5t12.5 -1l37 93q17 -5 33.5 -15.5t21.5 -24.5l-25 -71
q60 -26 94 -82.5t34 -128.5zM137 241q0 -56 24 -99t61 -69l118 337q-30 12 -62 12q-20 0 -34 -3.5t-27 -8.5q-14 -9 -28 -24.5t-25.5 -36.5t-19 -48t-7.5 -60zM462 221q0 56 -23 99.5t-60 69.5l-118 -338q30 -12 60 -12q21 0 37.5 2.5t33.5 11.5q11 8 23 22.5t22.5 35.5
t17.5 48.5t7 60.5z" />
    <glyph glyph-name="ugrave" unicode="&#xf9;" horiz-adv-x="583" 
d="M486 475q1 -30 -0.5 -62t-3.5 -71.5t-4 -90.5t-2 -119q0 -32 3 -54t16 -30h42q10 -16 0 -35l-90 -26q-16 6 -28 19t-19 43q-21 -14 -44.5 -25t-47 -19t-44 -12.5t-34.5 -4.5q-32 0 -59.5 12t-48 36t-32.5 60t-12 84q0 45 3 82t5 65t2 48.5t-6 32.5h-52q-8 15 0 34l130 42
l4 -4q6 -24 6.5 -53.5t-2 -63.5t-5.5 -72t-3 -77q0 -57 14 -90t34.5 -50t42.5 -21.5t37 -4.5q30 0 58.5 11t48.5 25q-2 11 -2 23.5v26.5q0 22 1.5 49.5t3 55.5t3.5 53t2 41q0 28 -2 46t-7 27l-37 2q-8 15 0 34l125 37zM317 532l-175 131q9 28 28 47.5t52 28.5l132 -176z" />
    <glyph glyph-name="uacute" unicode="&#xfa;" horiz-adv-x="583" 
d="M486 475q1 -30 -0.5 -62t-3.5 -71.5t-4 -90.5t-2 -119q0 -32 3 -54t16 -30h42q10 -16 0 -35l-90 -26q-16 6 -28 19t-19 43q-21 -14 -44.5 -25t-47 -19t-44 -12.5t-34.5 -4.5q-32 0 -59.5 12t-48 36t-32.5 60t-12 84q0 45 3 82t5 65t2 48.5t-6 32.5h-52q-8 15 0 34l130 42
l4 -4q6 -24 6.5 -53.5t-2 -63.5t-5.5 -72t-3 -77q0 -57 14 -90t34.5 -50t42.5 -21.5t37 -4.5q30 0 58.5 11t48.5 25q-2 11 -2 23.5v26.5q0 22 1.5 49.5t3 55.5t3.5 53t2 41q0 28 -2 46t-7 27l-37 2q-8 15 0 34l125 37zM219 561l154 148q17 -5 28 -10t18 -12t11.5 -17
t9.5 -23l-202 -110z" />
    <glyph glyph-name="ucircumflex" unicode="&#xfb;" horiz-adv-x="583" 
d="M486 475q1 -30 -0.5 -62t-3.5 -71.5t-4 -90.5t-2 -119q0 -32 3 -54t16 -30h42q10 -16 0 -35l-90 -26q-16 6 -28 19t-19 43q-21 -14 -44.5 -25t-47 -19t-44 -12.5t-34.5 -4.5q-32 0 -59.5 12t-48 36t-32.5 60t-12 84q0 45 3 82t5 65t2 48.5t-6 32.5h-52q-8 15 0 34l130 42
l4 -4q6 -24 6.5 -53.5t-2 -63.5t-5.5 -72t-3 -77q0 -57 14 -90t34.5 -50t42.5 -21.5t37 -4.5q30 0 58.5 11t48.5 25q-2 11 -2 23.5v26.5q0 22 1.5 49.5t3 55.5t3.5 53t2 41q0 28 -2 46t-7 27l-37 2q-8 15 0 34l125 37zM428 564q-5 -11 -13.5 -19t-22.5 -13l-111 77l-89 -73
q-19 6 -31 26l120 130q18 10 33 0z" />
    <glyph glyph-name="udieresis" unicode="&#xfc;" horiz-adv-x="583" 
d="M486 475q1 -30 -0.5 -62t-3.5 -71.5t-4 -90.5t-2 -119q0 -32 3 -54t16 -30h42q10 -16 0 -35l-90 -26q-16 6 -28 19t-19 43q-21 -14 -44.5 -25t-47 -19t-44 -12.5t-34.5 -4.5q-32 0 -59.5 12t-48 36t-32.5 60t-12 84q0 45 3 82t5 65t2 48.5t-6 32.5h-52q-8 15 0 34l130 42
l4 -4q6 -24 6.5 -53.5t-2 -63.5t-5.5 -72t-3 -77q0 -57 14 -90t34.5 -50t42.5 -21.5t37 -4.5q30 0 58.5 11t48.5 25q-2 11 -2 23.5v26.5q0 22 1.5 49.5t3 55.5t3.5 53t2 41q0 28 -2 46t-7 27l-37 2q-8 15 0 34l125 37zM254 613q-1 -15 -9 -25.5t-20.5 -17.5t-27 -10.5
t-29.5 -3.5l-33 63q1 15 9.5 25.5t21.5 17.5t27.5 10t27.5 3zM447 615q-1 -14 -9 -24.5t-20 -17.5t-27 -10.5t-29 -3.5l-34 62q1 15 9.5 25.5t21 17.5t27 10t28.5 3z" />
    <glyph glyph-name="yacute" unicode="&#xfd;" horiz-adv-x="567" 
d="M549 463q6 -20 0 -38l-34 -11q-5 -2 -20 -31t-36 -77.5t-46.5 -111.5t-52.5 -133q-19 -50 -39 -103t-41.5 -98t-45 -75t-50.5 -34q-37 1 -51 24t-12 49q45 14 86 52.5t70 99.5q-20 41 -43 87t-46 92.5t-45 89.5t-40.5 78t-31.5 59t-19 32l-34 11q-9 20 0 38h218
q6 -18 0 -38l-34 -11q-9 -3 -17 -7.5t-8 -18.5q0 -16 12.5 -49.5t32.5 -77t44.5 -93t49.5 -96.5q29 75 59 164.5t56 177.5l-58 11q-8 20 0 38h176zM246 561l154 148q17 -5 28 -10t18 -12t11.5 -17t9.5 -23l-202 -110z" />
    <glyph glyph-name="thorn" unicode="&#xfe;" horiz-adv-x="599" 
d="M39 -239q-8 17 0 38l47 11q7 2 13 5.5t10 16t6 36.5t2 66v349q0 81 -1 139.5t-3.5 99t-6.5 65t-11 38.5l-49 1q-9 19 0 36l148 39l8 -6q-1 -18 -2.5 -39.5t-3 -54t-2.5 -79t-1 -113.5v-1q26 16 51 28t46 20.5t36.5 13t24.5 4.5q43 0 79.5 -13.5t62 -40.5t40 -66.5
t14.5 -91.5q0 -68 -24.5 -119.5t-66.5 -86t-99 -51.5t-123 -17h-21t-20 1q0 -27 0.5 -55.5t1.5 -54t2 -44.5t2 -25l99 -11q8 -20 0 -38h-259zM308 414q-31 0 -61.5 -13.5t-53.5 -31.5v-319q39 -9 88 -9q32 0 61.5 4.5t51.5 15.5q10 8 22 21.5t22.5 33.5t17.5 47.5t7 65.5
q0 49 -12.5 84t-34 57.5t-49.5 33t-59 10.5z" />
    <glyph glyph-name="ydieresis" unicode="&#xff;" horiz-adv-x="567" 
d="M549 463q6 -20 0 -38l-34 -11q-5 -2 -20 -31t-36 -77.5t-46.5 -111.5t-52.5 -133q-19 -50 -39 -103t-41.5 -98t-45 -75t-50.5 -34q-37 1 -51 24t-12 49q45 14 86 52.5t70 99.5q-20 41 -43 87t-46 92.5t-45 89.5t-40.5 78t-31.5 59t-19 32l-34 11q-9 20 0 38h218
q6 -18 0 -38l-34 -11q-9 -3 -17 -7.5t-8 -18.5q0 -16 12.5 -49.5t32.5 -77t44.5 -93t49.5 -96.5q29 75 59 164.5t56 177.5l-58 11q-8 20 0 38h176zM247 613q-1 -15 -9 -25.5t-20.5 -17.5t-27 -10.5t-29.5 -3.5l-33 63q1 15 9.5 25.5t21.5 17.5t27.5 10t27.5 3zM440 615
q-1 -14 -9 -24.5t-20 -17.5t-27 -10.5t-29 -3.5l-34 62q1 15 9.5 25.5t21 17.5t27 10t28.5 3z" />
    <glyph glyph-name="Amacron" unicode="&#x100;" horiz-adv-x="688" 
d="M333 668q26 23 61 21q11 -34 31 -89t44 -120t50.5 -133t50.5 -128t43.5 -105.5t30.5 -65.5l42 -11q8 -18 0 -38h-226q-9 20 0 38l42 11q13 3 22 7t5 20q-11 34 -25.5 75.5t-31.5 86.5q-64 2 -122.5 3t-122.5 -1q-20 -54 -37 -103.5t-28 -87.5l68 -11q9 -19 1 -38h-185
q-9 21 0 43l17 6q11 3 23 13.5t20 24.5q6 11 17.5 38t27.5 64.5t34.5 83t37.5 93t37 94.5t33 88t25.5 72.5t14.5 48.5zM348 553q-8 -21 -19 -50t-24.5 -63.5t-28.5 -73t-30 -77.5q28 -2 52 -3.5t48 -1.5t50 0.5t57 2.5q-16 42 -31.5 82.5t-29.5 76t-24.5 63.5t-15.5 45z
M532 802q5 -18 1 -30.5t-13 -24.5h-317q-6 20 -1.5 32.5t17.5 22.5h313z" />
    <glyph glyph-name="amacron" unicode="&#x101;" horiz-adv-x="521" 
d="M486 52q7 -17 0 -31l-84 -30q-30 0 -44.5 22t-19.5 57q-18 -15 -43.5 -30t-51 -27t-47.5 -19t-35 -7q-24 0 -43.5 8.5t-33.5 22.5t-22 32t-8 38q0 50 28 82t93 50l57 15q21 6 53 14t56 13q1 11 1 22v22q0 57 -23.5 86.5t-61.5 29.5q-6 0 -17.5 -1t-24.5 -4t-26 -7.5
t-23 -10.5v-73q-13 -14 -29 -18.5t-29.5 -1.5t-23 14.5t-9.5 29.5q0 23 18 45.5t50.5 40t76 28.5t94.5 11q28 0 48 -12.5t33 -34.5t19.5 -52.5t6.5 -65.5q0 -37 -4 -88t-4 -99q0 -32 9 -50.5t28 -20.5h36zM335 131q0 22 0.5 42t1.5 38q-23 -2 -56 -6t-58 -9l-47 -9
q-23 -14 -30.5 -33t-7.5 -36q0 -35 18 -53t49 -18q8 0 24 4.5t34.5 12t37.5 18.5t34 25v24zM426 641q5 -18 1 -30.5t-13 -24.5h-317q-6 20 -1.5 32.5t17.5 22.5h313z" />
    <glyph glyph-name="Aogonek" unicode="&#x104;" horiz-adv-x="688" 
d="M333 668q26 23 61 21q11 -34 31 -89t44 -120t50.5 -133t50.5 -128t43.5 -105.5t30.5 -65.5l42 -11q8 -18 0 -38h-41q-29 -24 -51.5 -57t-22.5 -63q0 -26 13.5 -41t35.5 -15q15 0 30 2.5t29 7.5q4 -4 7.5 -9t5.5 -17q-20 -13 -48.5 -22.5t-52.5 -13.5q-45 0 -70.5 22
t-25.5 60q0 21 9 41.5t23 40t32.5 36t38.5 28.5h-138q-9 20 0 38l42 11q13 3 22 7t5 20q-11 34 -25.5 75.5t-31.5 86.5q-64 2 -122.5 3t-122.5 -1q-20 -54 -37 -103.5t-28 -87.5l68 -11q9 -19 1 -38h-185q-9 21 0 43l17 6q11 3 23 13.5t20 24.5q6 11 17.5 38t27.5 64.5
t34.5 83t37.5 93t37 94.5t33 88t25.5 72.5t14.5 48.5zM348 553q-8 -21 -19 -50t-24.5 -63.5t-28.5 -73t-30 -77.5q28 -2 52 -3.5t48 -1.5t50 0.5t57 2.5q-16 42 -31.5 82.5t-29.5 76t-24.5 63.5t-15.5 45z" />
    <glyph glyph-name="aogonek" unicode="&#x105;" horiz-adv-x="521" 
d="M486 52q7 -17 0 -31l-24 -9q-17 -11 -34 -27t-30 -33.5t-21 -36.5t-8 -36q0 -26 13.5 -41t35.5 -15q15 0 30 2.5t29 7.5q4 -4 7.5 -9t5.5 -17q-20 -13 -48.5 -22.5t-52.5 -13.5q-45 0 -70.5 22t-25.5 60q0 19 8 39t21 38t30 34.5t35 28.5q-23 5 -33.5 26.5t-15.5 50.5
q-18 -15 -43.5 -30t-51 -27t-47.5 -19t-35 -7q-24 0 -43.5 8.5t-33.5 22.5t-22 32t-8 38q0 50 28 82t93 50l57 15q21 6 53 14t56 13q1 11 1 22v22q0 57 -23.5 86.5t-61.5 29.5q-6 0 -17.5 -1t-24.5 -4t-26 -7.5t-23 -10.5v-73q-13 -14 -29 -18.5t-29.5 -1.5t-23 14.5
t-9.5 29.5q0 23 18 45.5t50.5 40t76 28.5t94.5 11q28 0 48 -12.5t33 -34.5t19.5 -52.5t6.5 -65.5q0 -37 -4 -88t-4 -99q0 -32 9 -50.5t28 -20.5h36zM335 131q0 22 0.5 42t1.5 38q-23 -2 -56 -6t-58 -9l-47 -9q-23 -14 -30.5 -33t-7.5 -36q0 -35 18 -53t49 -18q8 0 24 4.5
t34.5 12t37.5 18.5t34 25v24z" />
    <glyph glyph-name="Cacute" unicode="&#x106;" horiz-adv-x="661" 
d="M641 677l-23 -188q-22 -10 -39 0l-10 103q-10 7 -27 13.5t-37.5 11.5t-43 8t-43.5 3q-53 0 -83 -6t-55 -18q-18 -11 -37.5 -32.5t-36.5 -53.5t-28 -75t-11 -96q0 -64 18.5 -120.5t56.5 -98.5t95.5 -66.5t134.5 -24.5q50 0 87.5 14t72.5 31q7 -6 11 -14.5t2 -19.5
q-14 -9 -41 -21.5t-60 -23.5t-69 -18.5t-67 -7.5q-70 0 -130.5 22t-105.5 64.5t-70.5 104.5t-25.5 142q0 81 24.5 150t71 120t113.5 79.5t153 28.5q19 0 43 -2.5t49 -4.5t49.5 -1t45.5 9zM376 755l154 148q17 -5 28 -10t18 -12t11.5 -17t9.5 -23l-202 -110z" />
    <glyph glyph-name="cacute" unicode="&#x107;" horiz-adv-x="479" 
d="M439 88q11 -7 14.5 -16.5t5.5 -20.5q-17 -14 -40.5 -26t-49 -20.5t-50 -13t-42.5 -4.5q-53 0 -94.5 18t-70.5 48t-44.5 69.5t-15.5 82.5q0 73 24 124.5t61.5 83.5t83.5 46.5t90 14.5q22 -1 45 -7t42 -17t31 -26.5t12 -36.5q0 -14 -14 -30t-42 -21l-6 2q-15 38 -48 57
t-71 19q-14 0 -32.5 -2.5t-27.5 -8.5q-23 -15 -43 -51t-20 -95q0 -56 17.5 -95.5t44.5 -65t59 -37.5t61 -12q38 0 68.5 13.5t51.5 27.5zM224 561l154 148q17 -5 28 -10t18 -12t11.5 -17t9.5 -23l-202 -110z" />
    <glyph glyph-name="Ccaron" unicode="&#x10c;" horiz-adv-x="661" 
d="M641 677l-23 -188q-22 -10 -39 0l-10 103q-10 7 -27 13.5t-37.5 11.5t-43 8t-43.5 3q-53 0 -83 -6t-55 -18q-18 -11 -37.5 -32.5t-36.5 -53.5t-28 -75t-11 -96q0 -64 18.5 -120.5t56.5 -98.5t95.5 -66.5t134.5 -24.5q50 0 87.5 14t72.5 31q7 -6 11 -14.5t2 -19.5
q-14 -9 -41 -21.5t-60 -23.5t-69 -18.5t-67 -7.5q-70 0 -130.5 22t-105.5 64.5t-70.5 104.5t-25.5 142q0 81 24.5 150t71 120t113.5 79.5t153 28.5q19 0 43 -2.5t49 -4.5t49.5 -1t45.5 9zM286 856q5 9 12 16.5t20 12.5l100 -70l79 65q19 -5 27 -23l-107 -117h-28z" />
    <glyph glyph-name="ccaron" unicode="&#x10d;" horiz-adv-x="479" 
d="M439 88q11 -7 14.5 -16.5t5.5 -20.5q-17 -14 -40.5 -26t-49 -20.5t-50 -13t-42.5 -4.5q-53 0 -94.5 18t-70.5 48t-44.5 69.5t-15.5 82.5q0 73 24 124.5t61.5 83.5t83.5 46.5t90 14.5q22 -1 45 -7t42 -17t31 -26.5t12 -36.5q0 -14 -14 -30t-42 -21l-6 2q-15 38 -48 57
t-71 19q-14 0 -32.5 -2.5t-27.5 -8.5q-23 -15 -43 -51t-20 -95q0 -56 17.5 -95.5t44.5 -65t59 -37.5t61 -12q38 0 68.5 13.5t51.5 27.5zM164 652q5 9 12 16.5t20 12.5l100 -70l79 65q19 -5 27 -23l-107 -117h-28z" />
    <glyph glyph-name="Dcaron" unicode="&#x10e;" horiz-adv-x="752" 
d="M283 59q25 -5 56.5 -6.5t65.5 0.5t69 8.5t67 18.5q21 10 41 33t35 56t24.5 74.5t9.5 87.5q0 81 -25 139.5t-72.5 95t-116.5 52.5t-157 11q-1 -54 -3.5 -124.5t-2.5 -164.5q0 -84 1 -154t8 -127zM104 -1q-4 8 -4.5 18.5t4.5 20.5l51 10q10 2 17 8.5t10.5 34t5 84.5
t1.5 160v86.5t-1 80t-2 69t-2 54.5l-92 11q-3 8 -3.5 16t3.5 19q29 3 76 5t94.5 3.5t87.5 2t57 0.5q74 0 135.5 -19t106 -57.5t69 -97.5t24.5 -138q0 -107 -35 -178t-95 -114t-140 -61t-169 -18h-199zM291 836q5 9 12 16.5t20 12.5l100 -70l79 65q19 -5 27 -23l-107 -117
h-28z" />
    <glyph glyph-name="dcaron" unicode="&#x10f;" horiz-adv-x="686" 
d="M510 696q-3 -25 -7.5 -53.5t-8.5 -67.5t-7 -93.5t-3 -132.5q0 -80 1 -134t4.5 -89t9.5 -53t16 -25h43q5 -10 4.5 -18.5t-4.5 -16.5l-92 -29q-17 8 -28 22t-18 46q-21 -14 -45.5 -26t-47.5 -20.5t-41 -13t-25 -4.5q-45 0 -83.5 15.5t-66.5 44t-43.5 70t-15.5 93.5
q0 70 22 120t57 82t78.5 46.5t85.5 14.5q29 0 58 -3t55 -8q0 40 -1 67.5t-2 46.5t-3.5 31.5t-5.5 21.5h-42q-12 18 0 37l151 34zM415 90q-5 38 -6 98t-1 150v58q-24 11 -60.5 18.5t-69.5 7.5q-23 0 -43 -3t-34 -8q-34 -19 -49 -60.5t-15 -98.5q0 -50 14 -88.5t36.5 -64
t51.5 -38.5t60 -13q27 0 58.5 10t57.5 32zM676 597q0 -39 -14.5 -70.5t-34 -53.5t-38 -34t-27.5 -12q-12 12 -13 23q19 16 33 38.5t14 51.5q0 19 -7 33t-17 24.5t-20.5 18l-17.5 12.5q7 23 19.5 42.5t32.5 34.5q42 0 66 -29t24 -79z" />
    <glyph glyph-name="Dcroat" unicode="&#x110;" horiz-adv-x="752" 
d="M189 374q0 77 -1.5 144t-3.5 107l-92 11q-3 8 -3.5 16t3.5 19q29 3 76 5t94.5 3.5t87.5 2t57 0.5q74 0 135.5 -19t106 -57.5t69 -97.5t24.5 -138q0 -107 -35 -178t-95 -114t-140 -61t-169 -18h-199q-4 8 -4.5 18.5t4.5 20.5l51 10q10 2 16.5 8.5t10 32.5t5.5 80t2 150
h-96q-6 20 -1.5 33t17.5 22h80zM283 59q25 -5 56.5 -6.5t65.5 0.5t69 8.5t67 18.5q21 10 41 33t35 56t24.5 74.5t9.5 87.5q0 81 -25 139.5t-72.5 95t-116.5 52.5t-157 11q-1 -50 -3 -112t-3 -143h156q4 -17 0.5 -30t-12.5 -25h-144q0 -77 1 -141.5t8 -118.5z" />
    <glyph glyph-name="dcroat" unicode="&#x111;" horiz-adv-x="581" 
d="M510 696q-4 -26 -8 -54.5t-9 -68.5h83q4 -17 0.5 -27t-12.5 -21h-75q-2 -35 -3.5 -77.5t-1.5 -98.5q0 -80 1 -134t4.5 -89t9.5 -53t16 -25h43q5 -10 4.5 -18.5t-4.5 -16.5l-92 -29q-17 8 -28 22t-18 46q-21 -14 -45.5 -26t-47.5 -20.5t-41 -13t-25 -4.5q-45 0 -83.5 15.5
t-66.5 44t-43.5 70t-15.5 93.5q0 70 22 120t57 82t78.5 46.5t85.5 14.5q29 0 58 -3t55 -8v33t-1 29h-160q-6 19 -1 29t16 19h143q-1 21 -3 34t-6 23h-42q-12 18 0 37l151 34zM415 90q-5 38 -6 98t-1 150v58q-24 11 -60.5 18.5t-69.5 7.5q-23 0 -43 -3t-34 -8
q-34 -19 -49 -60.5t-15 -98.5q0 -50 14 -88.5t36.5 -64t51.5 -38.5t60 -13q27 0 58.5 10t57.5 32z" />
    <glyph glyph-name="Emacron" unicode="&#x112;" horiz-adv-x="633" 
d="M99 -1q-8 20 0 39l49 10q9 2 16 5t12 12.5t8 28t4.5 51.5t2 82.5t0.5 121.5q0 33 -0.5 72.5t-1 77t-2 69t-3.5 48.5l-91 13q-6 18 0 38h359q16 0 33.5 1t33.5 3.5t29.5 7t22.5 10.5l11 -9l-23 -170q-23 -8 -42 0v104q-63 5 -119 5.5t-109 -4.5q-8 -49 -10.5 -114
t-2.5 -138q67 -2 111 0t64 11l20 56q11 4 22 3.5t22 -3.5l-20 -194q-15 -7 -36 -2l-1 80q-41 1 -87.5 1t-94.5 -2v-61.5t1 -74t2 -71.5t4 -55q99 -10 154.5 -3.5t74.5 14.5l46 98q9 4 17 3.5t16 -3.5l-27 -162l-17 -12q-9 4 -37.5 8.5t-79.5 4.5h-331zM525 802
q5 -18 1 -30.5t-13 -24.5h-317q-6 20 -1.5 32.5t17.5 22.5h313z" />
    <glyph glyph-name="emacron" unicode="&#x113;" horiz-adv-x="512" 
d="M52 208q0 65 24 115t60.5 83.5t81 51t86.5 17.5q31 0 60 -10.5t51.5 -30t37 -49t15.5 -66.5q-5 -8 -14.5 -14.5t-20.5 -12t-22.5 -10t-20.5 -6.5l-250 -67q7 -44 27 -74.5t46.5 -50t57.5 -28.5t60 -9q33 0 64.5 13.5t55.5 32.5q19 -10 21 -38q-17 -13 -39.5 -25
t-48 -21.5t-52.5 -15.5t-54 -6q-50 0 -91.5 16.5t-71.5 45.5t-46.5 70t-16.5 89zM192 396q-20 -18 -36.5 -48.5t-18.5 -84.5l182 33q62 12 62 25q0 16 -8 33t-23 30.5t-37.5 22t-50.5 8.5q-22 0 -40.5 -5.5t-29.5 -13.5zM444 641q5 -18 1 -30.5t-13 -24.5h-317
q-6 20 -1.5 32.5t17.5 22.5h313z" />
    <glyph glyph-name="Edotaccent" unicode="&#x116;" horiz-adv-x="633" 
d="M99 -1q-8 20 0 39l49 10q9 2 16 5t12 12.5t8 28t4.5 51.5t2 82.5t0.5 121.5q0 33 -0.5 72.5t-1 77t-2 69t-3.5 48.5l-91 13q-6 18 0 38h359q16 0 33.5 1t33.5 3.5t29.5 7t22.5 10.5l11 -9l-23 -170q-23 -8 -42 0v104q-63 5 -119 5.5t-109 -4.5q-8 -49 -10.5 -114
t-2.5 -138q67 -2 111 0t64 11l20 56q11 4 22 3.5t22 -3.5l-20 -194q-15 -7 -36 -2l-1 80q-41 1 -87.5 1t-94.5 -2v-61.5t1 -74t2 -71.5t4 -55q99 -10 154.5 -3.5t74.5 14.5l46 98q9 4 17 3.5t16 -3.5l-27 -162l-17 -12q-9 4 -37.5 8.5t-79.5 4.5h-331zM413 780
q-5 -33 -30.5 -44t-52.5 -2l-23 42q3 31 26 44.5t58 4.5z" />
    <glyph glyph-name="edotaccent" unicode="&#x117;" horiz-adv-x="512" 
d="M52 208q0 65 24 115t60.5 83.5t81 51t86.5 17.5q31 0 60 -10.5t51.5 -30t37 -49t15.5 -66.5q-5 -8 -14.5 -14.5t-20.5 -12t-22.5 -10t-20.5 -6.5l-250 -67q7 -44 27 -74.5t46.5 -50t57.5 -28.5t60 -9q33 0 64.5 13.5t55.5 32.5q19 -10 21 -38q-17 -13 -39.5 -25
t-48 -21.5t-52.5 -15.5t-54 -6q-50 0 -91.5 16.5t-71.5 45.5t-46.5 70t-16.5 89zM192 396q-20 -18 -36.5 -48.5t-18.5 -84.5l182 33q62 12 62 25q0 16 -8 33t-23 30.5t-37.5 22t-50.5 8.5q-22 0 -40.5 -5.5t-29.5 -13.5zM331 627q-5 -33 -30.5 -44t-52.5 -2l-23 42
q3 31 26 44.5t58 4.5z" />
    <glyph glyph-name="Eogonek" unicode="&#x118;" horiz-adv-x="633" 
d="M99 -1q-8 20 0 39l49 10q9 2 16 5t12 12.5t8 28t4.5 51.5t2 82.5t0.5 121.5q0 33 -0.5 72.5t-1 77t-2 69t-3.5 48.5l-91 13q-6 18 0 38h359q16 0 33.5 1t33.5 3.5t29.5 7t22.5 10.5l11 -9l-23 -170q-23 -8 -42 0v104q-63 5 -119 5.5t-109 -4.5q-8 -49 -10.5 -114
t-2.5 -138q67 -2 111 0t64 11l20 56q11 4 22 3.5t22 -3.5l-20 -194q-15 -7 -36 -2l-1 80q-41 1 -87.5 1t-94.5 -2v-61.5t1 -74t2 -71.5t4 -55q99 -10 154.5 -3.5t74.5 14.5l46 98q9 4 17 3.5t16 -3.5l-27 -162l-17 -12q-6 3 -21.5 6t-41.5 5q-29 -24 -50.5 -56.5
t-21.5 -61.5q0 -26 13.5 -41t35.5 -15q15 0 30 2.5t29 7.5q4 -4 7.5 -9t5.5 -17q-20 -13 -48.5 -22.5t-52.5 -13.5q-45 0 -70.5 22t-25.5 60q0 21 9 41.5t23 40t32.5 36t38.5 28.5h-9h-331z" />
    <glyph glyph-name="eogonek" unicode="&#x119;" horiz-adv-x="512" 
d="M52 208q0 65 24 115t60.5 83.5t81 51t86.5 17.5q31 0 60 -10.5t51.5 -30t37 -49t15.5 -66.5q-5 -8 -14.5 -14.5t-20.5 -12t-22.5 -10t-20.5 -6.5l-250 -67q7 -44 27 -74.5t46.5 -50t57.5 -28.5t60 -9q33 0 64.5 13.5t55.5 32.5q19 -10 21 -38q-16 -11 -35 -22.5
t-41 -20.5q-17 -11 -34 -27t-30 -33.5t-21 -36.5t-8 -36q0 -26 13.5 -41t35.5 -15q15 0 30 2.5t29 7.5q4 -4 7.5 -9t5.5 -17q-20 -13 -48.5 -22.5t-52.5 -13.5q-45 0 -70.5 22t-25.5 60q0 19 7.5 38t19.5 37t28.5 34t34.5 28q-20 -3 -39 -3q-50 0 -91.5 16.5t-71.5 45.5
t-46.5 70t-16.5 89zM192 396q-20 -18 -36.5 -48.5t-18.5 -84.5l182 33q62 12 62 25q0 16 -8 33t-23 30.5t-37.5 22t-50.5 8.5q-22 0 -40.5 -5.5t-29.5 -13.5z" />
    <glyph glyph-name="Ecaron" unicode="&#x11a;" horiz-adv-x="633" 
d="M99 -1q-8 20 0 39l49 10q9 2 16 5t12 12.5t8 28t4.5 51.5t2 82.5t0.5 121.5q0 33 -0.5 72.5t-1 77t-2 69t-3.5 48.5l-91 13q-6 18 0 38h359q16 0 33.5 1t33.5 3.5t29.5 7t22.5 10.5l11 -9l-23 -170q-23 -8 -42 0v104q-63 5 -119 5.5t-109 -4.5q-8 -49 -10.5 -114
t-2.5 -138q67 -2 111 0t64 11l20 56q11 4 22 3.5t22 -3.5l-20 -194q-15 -7 -36 -2l-1 80q-41 1 -87.5 1t-94.5 -2v-61.5t1 -74t2 -71.5t4 -55q99 -10 154.5 -3.5t74.5 14.5l46 98q9 4 17 3.5t16 -3.5l-27 -162l-17 -12q-9 4 -37.5 8.5t-79.5 4.5h-331zM251 824q5 9 12 16.5
t20 12.5l100 -70l79 65q19 -5 27 -23l-107 -117h-28z" />
    <glyph glyph-name="ecaron" unicode="&#x11b;" horiz-adv-x="512" 
d="M52 208q0 65 24 115t60.5 83.5t81 51t86.5 17.5q31 0 60 -10.5t51.5 -30t37 -49t15.5 -66.5q-5 -8 -14.5 -14.5t-20.5 -12t-22.5 -10t-20.5 -6.5l-250 -67q7 -44 27 -74.5t46.5 -50t57.5 -28.5t60 -9q33 0 64.5 13.5t55.5 32.5q19 -10 21 -38q-17 -13 -39.5 -25
t-48 -21.5t-52.5 -15.5t-54 -6q-50 0 -91.5 16.5t-71.5 45.5t-46.5 70t-16.5 89zM192 396q-20 -18 -36.5 -48.5t-18.5 -84.5l182 33q62 12 62 25q0 16 -8 33t-23 30.5t-37.5 22t-50.5 8.5q-22 0 -40.5 -5.5t-29.5 -13.5zM158 652q5 9 12 16.5t20 12.5l100 -70l79 65
q19 -5 27 -23l-107 -117h-28z" />
    <glyph glyph-name="Gcommaaccent" unicode="&#x122;" horiz-adv-x="748" 
d="M663 66q-32 -21 -72 -38t-78 -28t-70.5 -17t-50.5 -6q-72 0 -130 23t-99.5 66.5t-64 105t-22.5 139.5q0 81 25 148.5t71.5 116t113 75.5t149.5 27q25 0 47 -3t44.5 -5t47.5 -1t57 9l15 -10l-24 -202q-20 -9 -42 0l-8 111q-30 19 -75 29.5t-111 10.5q-26 0 -50.5 -3
t-39.5 -11q-26 -11 -49.5 -32.5t-41 -52t-28 -70.5t-10.5 -87q0 -65 18 -123.5t52.5 -103t85.5 -71t117 -26.5q21 0 38 3t33.5 8t33 13t35.5 17q3 13 5 32.5t2 41.5t-2 44.5t-5 40.5l-108 11q-9 18 0 38h261q8 -20 0 -38l-35 -11q-12 -4 -19 -10.5t-10.5 -24t-4.5 -49.5
t-1 -87zM487 -142q0 -35 -13 -63t-30 -47.5t-34 -30t-24 -10.5q-10 11 -11 21q17 14 29 33.5t12 45.5q0 17 -6 30t-15 22t-18.5 15t-15.5 11q6 20 17 37.5t30 31.5q36 0 57.5 -26t21.5 -70z" />
    <glyph glyph-name="gcommaaccent" unicode="&#x123;" horiz-adv-x="563" 
d="M51 -108q0 43 28 74.5t92 54.5q-21 8 -33.5 21.5t-12.5 38.5q0 15 7 27t19.5 21t29 16.5t34.5 14.5q-27 4 -52.5 15t-45 27.5t-31 38.5t-11.5 48q0 36 13 64t33 48.5t45 34.5t49.5 22.5t45.5 12t33 3.5h1h237q15 -32 0 -64l-102 14q17 -16 27.5 -38.5t10.5 -52.5
q0 -46 -20 -77.5t-50 -52.5t-64.5 -34.5t-64.5 -23.5t-50 -19.5t-20 -23.5q0 -15 18 -20.5t47.5 -5.5t66.5 2.5t76 2.5q11 0 30 -6t37 -19.5t31.5 -37t13.5 -57.5q0 -46 -17.5 -79.5t-44.5 -57t-60.5 -38.5t-64.5 -23.5t-57 -11.5t-39 -3q-20 0 -51 6t-61 22t-51.5 44
t-21.5 72zM304 10q-43 0 -82 3q-37 -14 -64 -35.5t-27 -59.5q0 -31 15 -52t40.5 -33.5t59.5 -18t72 -5.5q33 0 63 10q10 5 20.5 16t19.5 26t14.5 33.5t5.5 39.5q0 17 -6.5 30.5t-22.5 23.5t-42 15.5t-66 6.5zM158 330q0 -30 11 -53.5t30.5 -40.5t46 -27.5t57.5 -14.5
q35 17 59 41.5t24 67.5q0 61 -36 89.5t-88 28.5q-48 0 -75 -21q-11 -14 -20 -30.5t-9 -39.5zM228 597q0 34 14 61t32 46t36 29.5t26 11.5q5 -4 6.5 -8t1.5 -12q-17 -11 -30 -28.5t-13 -45.5q0 -16 2 -27t6.5 -19t12.5 -14.5t19 -13.5q-5 -37 -42 -61q-38 0 -54.5 23.5
t-16.5 57.5z" />
    <glyph glyph-name="imacron" unicode="&#x12b;" horiz-adv-x="326" 
d="M222 480q-6 -63 -8 -127.5t-2 -142.5q0 -66 0.5 -105t2.5 -56l65 -12q6 -20 0 -38h-218q-5 20 2 38l37 11q10 3 16 9t9.5 22.5t5 47.5t1.5 85q0 45 -1 77t-3.5 54.5t-6 36.5t-8.5 22l-46 1q-8 20 0 37l148 45zM330 641q5 -18 1 -30.5t-13 -24.5h-317q-6 20 -1.5 32.5
t17.5 22.5h313z" />
    <glyph glyph-name="Iogonek" unicode="&#x12e;" horiz-adv-x="432" 
d="M323 -1q-29 -24 -51.5 -57t-22.5 -63q0 -26 13.5 -41t35.5 -15q15 0 30 2.5t29 7.5q4 -4 7.5 -9t5.5 -17q-20 -13 -48.5 -22.5t-52.5 -13.5q-45 0 -70.5 22t-25.5 60q0 21 9 41.5t23 40t32.5 36t38.5 28.5h-180q-4 16 2 38l61 11q16 3 25.5 6.5t15 16.5t7.5 39t2 73v112
t-1 121t-3 113.5t-6 88.5l-107 11q-6 18 0 38h315q5 -16 0 -38l-55 -11q-19 -4 -30.5 -9.5t-17.5 -26.5t-8 -64t-2 -122q0 -60 0.5 -109t1 -90t1.5 -77t3 -72l107 -11q4 -18 1 -38h-85z" />
    <glyph glyph-name="iogonek" unicode="&#x12f;" horiz-adv-x="326" 
d="M222 480q-6 -63 -8 -127.5t-2 -142.5q0 -66 0.5 -105t2.5 -56l65 -12q6 -20 0 -38h-48q-29 -24 -51.5 -57t-22.5 -63q0 -26 13.5 -41t35.5 -15q15 0 30 2.5t29 7.5q4 -4 7.5 -9t5.5 -17q-20 -13 -48.5 -22.5t-52.5 -13.5q-45 0 -70.5 22t-25.5 60q0 21 9 41.5t23 40
t32.5 36t38.5 28.5h-123q-5 20 2 38l37 11q10 3 16 9t9.5 22.5t5 47.5t1.5 85q0 45 -1 77t-3.5 54.5t-6 36.5t-8.5 22l-46 1q-8 20 0 37l148 45zM216 627q-5 -33 -30.5 -44t-52.5 -2l-23 42q3 31 26 44.5t58 4.5z" />
    <glyph glyph-name="dotlessi" unicode="&#x131;" horiz-adv-x="326" 
d="M222 480q-6 -63 -8 -127.5t-2 -142.5q0 -66 0.5 -105t2.5 -56l65 -12q6 -20 0 -38h-218q-5 20 2 38l37 11q10 3 16 9t9.5 22.5t5 47.5t1.5 85q0 45 -1 77t-3.5 54.5t-6 36.5t-8.5 22l-46 1q-8 20 0 37l148 45z" />
    <glyph glyph-name="Kcommaaccent" unicode="&#x136;" horiz-adv-x="728" 
d="M696 667q5 -18 -5 -39l-48 -11q-19 -4 -49 -33.5t-64.5 -69t-69.5 -81.5t-65 -71q39 -29 78.5 -72t81.5 -91t87 -95.5t96 -86.5q6 -12 -2 -30h-65q-30 0 -65.5 24.5t-72 61.5t-72.5 79.5t-68.5 79.5t-59.5 61.5t-44 24.5h-17q0 -85 1 -148.5t4 -121.5l63 -11q7 -19 1 -38
h-250q-5 22 3 38l61 11q9 1 15 5.5t9.5 18t5 40t1.5 73.5v111.5t-1 120t-3 112.5t-6 88l-81 11q-8 18 0 39h247q8 -22 0 -39l-39 -11q-7 -2 -13 -7.5t-10 -26.5t-6 -64t-2 -122v-41q15 -1 30.5 0.5t25.5 7.5q13 7 37.5 32.5t53.5 61t59.5 77.5t56.5 82l-45 11q-6 19 0 39
h206zM480 -142q0 -35 -13 -63t-30 -47.5t-34 -30t-24 -10.5q-10 11 -11 21q17 14 29 33.5t12 45.5q0 17 -6 30t-15 22t-18.5 15t-15.5 11q6 20 17 37.5t30 31.5q36 0 57.5 -26t21.5 -70z" />
    <glyph glyph-name="kcommaaccent" unicode="&#x137;" horiz-adv-x="542" 
d="M491 463q8 -17 2 -38l-45 -11q-11 -3 -29.5 -17.5t-41.5 -35.5t-49 -45.5t-53 -48.5q21 -15 52 -48t65 -70.5t67 -72t59 -51.5q9 -18 0 -36h-71q-20 5 -43.5 23t-48 43t-49 54t-47.5 55.5t-43.5 47t-35.5 28.5v-9q0 -82 1 -127t2 -55l50 -12q3 -10 2.5 -19.5t-2.5 -18.5
h-191q-9 20 0 38l27 11q6 3 12 8t10.5 23.5t7 56t2.5 104.5v273q0 41 -4 72t-12 45h-48q-9 15 -2 37l149 34l6 -4q-6 -63 -8 -106t-2 -76v-250q41 8 84 48t101 102l-38 11q-10 19 0 37h164zM343 -142q0 -35 -13 -63t-30 -47.5t-34 -30t-24 -10.5q-10 11 -11 21
q17 14 29 33.5t12 45.5q0 17 -6 30t-15 22t-18.5 15t-15.5 11q6 20 17 37.5t30 31.5q36 0 57.5 -26t21.5 -70z" />
    <glyph glyph-name="Lacute" unicode="&#x139;" horiz-adv-x="634" 
d="M98 -1q-6 19 1 39l53 10q14 3 22.5 10t13 36t6 88t1.5 167q0 33 -0.5 73.5t-1 78.5t-2 70t-4.5 47l-94 11q-8 21 0 38h281q9 -20 0 -38l-52 -11q-15 -3 -23.5 -10.5t-12.5 -34.5t-5 -82t-1 -152v-58.5t1 -82t2 -84t4 -63.5q131 -9 189 -1t66 31l45 126q8 5 18 5t18 -5
l-34 -209l-15 -12q-5 3 -20.5 5t-36.5 4t-45 3t-44 1h-330zM215 726l154 148q17 -5 28 -10t18 -12t11.5 -17t9.5 -23l-202 -110z" />
    <glyph glyph-name="lacute" unicode="&#x13a;" horiz-adv-x="338" 
d="M223 697q-3 -30 -5 -55t-3 -60.5t-1.5 -88.5t-0.5 -139v-146t0.5 -88.5t1 -47t1.5 -23.5l61 -12q7 -19 -1 -38h-214q-9 16 1 38l39 11q6 2 11 5t8.5 14.5t6 35.5t4.5 66.5t2.5 108t0.5 160.5q0 84 -6 129.5t-17 62.5h-46q-8 18 0 37l152 34zM120 745l154 148
q17 -5 28 -10t18 -12t11.5 -17t9.5 -23l-202 -110z" />
    <glyph glyph-name="Lcommaaccent" unicode="&#x13b;" horiz-adv-x="634" 
d="M98 -1q-6 19 1 39l53 10q14 3 22.5 10t13 36t6 88t1.5 167q0 33 -0.5 73.5t-1 78.5t-2 70t-4.5 47l-94 11q-8 21 0 38h281q9 -20 0 -38l-52 -11q-15 -3 -23.5 -10.5t-12.5 -34.5t-5 -82t-1 -152v-58.5t1 -82t2 -84t4 -63.5q131 -9 189 -1t66 31l45 126q8 5 18 5t18 -5
l-34 -209l-15 -12q-5 3 -20.5 5t-36.5 4t-45 3t-44 1h-330zM428 -142q0 -35 -13 -63t-30 -47.5t-34 -30t-24 -10.5q-10 11 -11 21q17 14 29 33.5t12 45.5q0 17 -6 30t-15 22t-18.5 15t-15.5 11q6 20 17 37.5t30 31.5q36 0 57.5 -26t21.5 -70z" />
    <glyph glyph-name="lcommaaccent" unicode="&#x13c;" horiz-adv-x="338" 
d="M223 697q-3 -30 -5 -55t-3 -60.5t-1.5 -88.5t-0.5 -139v-146t0.5 -88.5t1 -47t1.5 -23.5l61 -12q7 -19 -1 -38h-214q-9 16 1 38l39 11q6 2 11 5t8.5 14.5t6 35.5t4.5 66.5t2.5 108t0.5 160.5q0 84 -6 129.5t-17 62.5h-46q-8 18 0 37l152 34zM240 -142q0 -35 -13 -63
t-30 -47.5t-34 -30t-24 -10.5q-10 11 -11 21q17 14 29 33.5t12 45.5q0 17 -6 30t-15 22t-18.5 15t-15.5 11q6 20 17 37.5t30 31.5q36 0 57.5 -26t21.5 -70z" />
    <glyph glyph-name="Lcaron" unicode="&#x13d;" horiz-adv-x="634" 
d="M560 609q0 -38 -14.5 -69t-33 -52.5t-37 -33t-26.5 -11.5q-11 10 -13 22q19 17 32.5 38.5t13.5 50.5q0 19 -7 32.5t-16.5 24t-20 17.5t-16.5 12q10 45 50 75q41 0 64.5 -28.5t23.5 -77.5zM98 -1q-6 19 1 39l53 10q14 3 22.5 10t13 36t6 88t1.5 167q0 33 -0.5 73.5
t-1 78.5t-2 70t-4.5 47l-94 11q-8 21 0 38h281q9 -20 0 -38l-52 -11q-15 -3 -23.5 -10.5t-12.5 -34.5t-5 -82t-1 -152v-58.5t1 -82t2 -84t4 -63.5q131 -9 189 -1t66 31l45 126q8 5 18 5t18 -5l-34 -209l-15 -12q-5 3 -20.5 5t-36.5 4t-45 3t-44 1h-330z" />
    <glyph glyph-name="lcaron" unicode="&#x13e;" horiz-adv-x="395" 
d="M223 697q-3 -30 -5 -55t-3 -60.5t-1.5 -88.5t-0.5 -139v-146t0.5 -88.5t1 -47t1.5 -23.5l61 -12q7 -19 -1 -38h-214q-9 16 1 38l39 11q6 2 11 5t8.5 14.5t6 35.5t4.5 66.5t2.5 108t0.5 160.5q0 84 -6 129.5t-17 62.5h-46q-8 18 0 37l152 34zM385 597q0 -39 -14.5 -70.5
t-34 -53.5t-38 -34t-27.5 -12q-12 12 -13 23q19 16 33 38.5t14 51.5q0 19 -7 33t-17 24.5t-20.5 18l-17.5 12.5q7 23 19.5 42.5t32.5 34.5q42 0 66 -29t24 -79z" />
    <glyph glyph-name="Lslash" unicode="&#x141;" horiz-adv-x="634" 
d="M98 -1q-6 19 1 39l53 10q12 3 20 8.5t13 27t7 65.5t3 123l-94 -36q-8 10 -9.5 27.5t4.5 33.5l99 38v14q0 33 -0.5 73.5t-1 78.5t-2 70t-4.5 47l-94 11q-8 21 0 38h281q9 -20 0 -38l-52 -11q-15 -3 -23.5 -10.5t-12.5 -32.5t-5 -73.5t-1 -134.5l162 62q5 -8 8 -27t-1 -33
l-169 -65v-61.5t1 -71.5t2.5 -68t3.5 -52q131 -9 189 -1t66 31l45 126q8 5 18 5t18 -5l-34 -209l-15 -12q-5 3 -20.5 5t-36.5 4t-45 3t-44 1h-330z" />
    <glyph glyph-name="lslash" unicode="&#x142;" horiz-adv-x="338" 
d="M223 697q-3 -29 -5 -54t-3 -59t-1.5 -84t-0.5 -129l73 47q5 -8 8 -24.5t-2 -31.5l-79 -50v-121.5t0.5 -76t1 -43t1.5 -22.5l61 -12q7 -19 -1 -38h-214q-9 16 1 38l39 11q7 2 13 7t9.5 25t6 62.5t3.5 119.5l-62 -39q-8 10 -9.5 24.5t3.5 29.5l69 44v117q0 84 -6 129.5
t-17 62.5h-46q-8 18 0 37l152 34z" />
    <glyph glyph-name="Nacute" unicode="&#x143;" horiz-adv-x="793" 
d="M755 618q-12 -5 -21.5 -11t-15.5 -20t-9 -38t-3 -64v-497q-15 -15 -41 -18q-24 19 -63.5 65.5t-85.5 106t-94.5 125.5t-90.5 125t-73 103t-42 61h-7q0 -31 -1 -84t-1 -131v-104.5t0.5 -76.5t2 -59t3.5 -53l71 -11q8 -21 0 -38h-199q-7 19 1 38l40 11q6 2 10.5 5t7.5 12.5
t5.5 28.5t3.5 52.5t1.5 84.5t0.5 125q0 67 -1 129t-4 133l-68 11q-8 18 0 38h167q18 -25 46 -66t62 -90.5t72.5 -103.5t76.5 -106.5t73.5 -99t64.5 -79.5h6q2 55 2.5 112t0.5 120q0 82 -1 145.5t-3 118.5l-76 11q-9 18 0 38h213q10 -20 0 -38zM374 736l154 148q17 -5 28 -10
t18 -12t11.5 -17t9.5 -23l-202 -110z" />
    <glyph glyph-name="nacute" unicode="&#x144;" horiz-adv-x="615" 
d="M198 465q-2 -13 -2.5 -25t-1.5 -24q24 11 52 21.5t55 18.5t49.5 13t34.5 5q63 0 103 -52.5t40 -148.5q0 -47 -1.5 -81t-3 -59.5t-2 -45t2.5 -37.5l71 -11q7 -21 0 -40h-224q-6 18 0 38l42 11q10 3 17 13t10.5 30.5t5 53.5t1.5 83q0 60 -13 96.5t-32.5 56.5t-43.5 26.5
t-46 6.5q-32 0 -64.5 -10.5t-55.5 -21.5q-2 -39 -3 -80t-1 -92q0 -66 1 -105t3 -56l51 -12q8 -21 0 -38h-193q-4 7 -4.5 17t4.5 21l28 11q10 4 16.5 10t10 22t4.5 47t1 85q0 79 -4 119t-12 57h-53q-4 19 0 37l152 46zM259 561l154 148q17 -5 28 -10t18 -12t11.5 -17t9.5 -23
l-202 -110z" />
    <glyph glyph-name="Ncommaaccent" unicode="&#x145;" horiz-adv-x="793" 
d="M755 618q-12 -5 -21.5 -11t-15.5 -20t-9 -38t-3 -64v-497q-15 -15 -41 -18q-24 19 -63.5 65.5t-85.5 106t-94.5 125.5t-90.5 125t-73 103t-42 61h-7q0 -31 -1 -84t-1 -131v-104.5t0.5 -76.5t2 -59t3.5 -53l71 -11q8 -21 0 -38h-199q-7 19 1 38l40 11q6 2 10.5 5t7.5 12.5
t5.5 28.5t3.5 52.5t1.5 84.5t0.5 125q0 67 -1 129t-4 133l-68 11q-8 18 0 38h167q18 -25 46 -66t62 -90.5t72.5 -103.5t76.5 -106.5t73.5 -99t64.5 -79.5h6q2 55 2.5 112t0.5 120q0 82 -1 145.5t-3 118.5l-76 11q-9 18 0 38h213q10 -20 0 -38zM492 -142q0 -35 -13 -63
t-30 -47.5t-34 -30t-24 -10.5q-10 11 -11 21q17 14 29 33.5t12 45.5q0 17 -6 30t-15 22t-18.5 15t-15.5 11q6 20 17 37.5t30 31.5q36 0 57.5 -26t21.5 -70z" />
    <glyph glyph-name="ncommaaccent" unicode="&#x146;" horiz-adv-x="615" 
d="M198 465q-2 -13 -2.5 -25t-1.5 -24q24 11 52 21.5t55 18.5t49.5 13t34.5 5q63 0 103 -52.5t40 -148.5q0 -47 -1.5 -81t-3 -59.5t-2 -45t2.5 -37.5l71 -11q7 -21 0 -40h-224q-6 18 0 38l42 11q10 3 17 13t10.5 30.5t5 53.5t1.5 83q0 60 -13 96.5t-32.5 56.5t-43.5 26.5
t-46 6.5q-32 0 -64.5 -10.5t-55.5 -21.5q-2 -39 -3 -80t-1 -92q0 -66 1 -105t3 -56l51 -12q8 -21 0 -38h-193q-4 7 -4.5 17t4.5 21l28 11q10 4 16.5 10t10 22t4.5 47t1 85q0 79 -4 119t-12 57h-53q-4 19 0 37l152 46zM370 -142q0 -35 -13 -63t-30 -47.5t-34 -30t-24 -10.5
q-10 11 -11 21q17 14 29 33.5t12 45.5q0 17 -6 30t-15 22t-18.5 15t-15.5 11q6 20 17 37.5t30 31.5q36 0 57.5 -26t21.5 -70z" />
    <glyph glyph-name="Ncaron" unicode="&#x147;" horiz-adv-x="793" 
d="M755 618q-12 -5 -21.5 -11t-15.5 -20t-9 -38t-3 -64v-497q-15 -15 -41 -18q-24 19 -63.5 65.5t-85.5 106t-94.5 125.5t-90.5 125t-73 103t-42 61h-7q0 -31 -1 -84t-1 -131v-104.5t0.5 -76.5t2 -59t3.5 -53l71 -11q8 -21 0 -38h-199q-7 19 1 38l40 11q6 2 10.5 5t7.5 12.5
t5.5 28.5t3.5 52.5t1.5 84.5t0.5 125q0 67 -1 129t-4 133l-68 11q-8 18 0 38h167q18 -25 46 -66t62 -90.5t72.5 -103.5t76.5 -106.5t73.5 -99t64.5 -79.5h6q2 55 2.5 112t0.5 120q0 82 -1 145.5t-3 118.5l-76 11q-9 18 0 38h213q10 -20 0 -38zM313 824q5 9 12 16.5t20 12.5
l100 -70l79 65q19 -5 27 -23l-107 -117h-28z" />
    <glyph glyph-name="ncaron" unicode="&#x148;" horiz-adv-x="615" 
d="M198 465q-2 -13 -2.5 -25t-1.5 -24q24 11 52 21.5t55 18.5t49.5 13t34.5 5q63 0 103 -52.5t40 -148.5q0 -47 -1.5 -81t-3 -59.5t-2 -45t2.5 -37.5l71 -11q7 -21 0 -40h-224q-6 18 0 38l42 11q10 3 17 13t10.5 30.5t5 53.5t1.5 83q0 60 -13 96.5t-32.5 56.5t-43.5 26.5
t-46 6.5q-32 0 -64.5 -10.5t-55.5 -21.5q-2 -39 -3 -80t-1 -92q0 -66 1 -105t3 -56l51 -12q8 -21 0 -38h-193q-4 7 -4.5 17t4.5 21l28 11q10 4 16.5 10t10 22t4.5 47t1 85q0 79 -4 119t-12 57h-53q-4 19 0 37l152 46zM188 652q5 9 12 16.5t20 12.5l100 -70l79 65
q19 -5 27 -23l-107 -117h-28z" />
    <glyph glyph-name="Omacron" unicode="&#x14c;" horiz-adv-x="788" 
d="M778 364q0 -107 -34 -180.5t-86.5 -119.5t-116 -66.5t-122.5 -20.5q-72 0 -135 22.5t-109 66t-72.5 108t-26.5 148.5q0 97 36.5 167t93.5 114t126 65t133 21q54 0 109.5 -20.5t101 -61.5t74 -101.5t28.5 -141.5zM167 364q0 -77 24.5 -137.5t66 -102.5t96.5 -64.5
t115 -22.5q33 0 55 5.5t53 17.5q21 12 40.5 34t35.5 53.5t25.5 73t9.5 93.5q0 77 -24.5 136t-65 98.5t-93 60t-109.5 20.5q-34 0 -63 -6.5t-55 -19.5q-23 -15 -43 -38t-35 -53.5t-24 -67.5t-9 -80zM593 792q5 -18 1 -30.5t-13 -24.5h-317q-6 20 -1.5 32.5t17.5 22.5h313z
" />
    <glyph glyph-name="omacron" unicode="&#x14d;" horiz-adv-x="598" 
d="M546 245q0 -61 -21 -109t-57 -81t-84.5 -50.5t-103.5 -17.5q-48 0 -90 18t-72.5 49.5t-48 73.5t-17.5 90q0 55 21.5 102.5t59 81.5t87 53.5t106.5 19.5q49 0 90 -17.5t69.5 -48.5t44.5 -73t16 -91zM137 241q0 -45 16 -82t42.5 -63.5t59.5 -41t66 -14.5q21 0 37.5 2.5
t33.5 11.5q11 8 23 22.5t22.5 35.5t17.5 48.5t7 60.5q0 45 -15 82t-40 63.5t-58.5 41t-70.5 14.5q-20 0 -34 -3.5t-27 -8.5q-14 -9 -28 -24.5t-25.5 -36.5t-19 -48t-7.5 -60zM467 641q5 -18 1 -30.5t-13 -24.5h-317q-6 20 -1.5 32.5t17.5 22.5h313z" />
    <glyph glyph-name="Ohungarumlaut" unicode="&#x150;" horiz-adv-x="788" 
d="M778 364q0 -107 -34 -180.5t-86.5 -119.5t-116 -66.5t-122.5 -20.5q-72 0 -135 22.5t-109 66t-72.5 108t-26.5 148.5q0 97 36.5 167t93.5 114t126 65t133 21q54 0 109.5 -20.5t101 -61.5t74 -101.5t28.5 -141.5zM167 364q0 -77 24.5 -137.5t66 -102.5t96.5 -64.5
t115 -22.5q33 0 55 5.5t53 17.5q21 12 40.5 34t35.5 53.5t25.5 73t9.5 93.5q0 77 -24.5 136t-65 98.5t-93 60t-109.5 20.5q-34 0 -63 -6.5t-55 -19.5q-23 -15 -43 -38t-35 -53.5t-24 -67.5t-9 -80zM344 740l56 174q23 6 42 -2t27 -30l-75 -142h-50zM467 740l81 165
q23 6 45 -3t31 -32l-109 -130h-48z" />
    <glyph glyph-name="ohungarumlaut" unicode="&#x151;" horiz-adv-x="598" 
d="M546 245q0 -61 -21 -109t-57 -81t-84.5 -50.5t-103.5 -17.5q-48 0 -90 18t-72.5 49.5t-48 73.5t-17.5 90q0 55 21.5 102.5t59 81.5t87 53.5t106.5 19.5q49 0 90 -17.5t69.5 -48.5t44.5 -73t16 -91zM137 241q0 -45 16 -82t42.5 -63.5t59.5 -41t66 -14.5q21 0 37.5 2.5
t33.5 11.5q11 8 23 22.5t22.5 35.5t17.5 48.5t7 60.5q0 45 -15 82t-40 63.5t-58.5 41t-70.5 14.5q-20 0 -34 -3.5t-27 -8.5q-14 -9 -28 -24.5t-25.5 -36.5t-19 -48t-7.5 -60zM214 536l56 174q23 6 42 -2t27 -30l-75 -142h-50zM337 536l81 165q23 6 45 -3t31 -32l-109 -130
h-48z" />
    <glyph glyph-name="OE" unicode="&#x152;" horiz-adv-x="983" 
d="M544 -1q-26 -9 -58 -15.5t-67 -6.5q-72 0 -135 22.5t-109 66t-72.5 108t-26.5 148.5q0 97 36.5 167t93.5 114t126 65t133 21q34 0 62.5 -6.5t51.5 -15.5h222q16 0 33.5 1t33.5 3.5t29.5 7t22.5 10.5l11 -9l-23 -170q-22 -8 -41 0v104q-63 5 -119 5.5t-110 -4.5
q-8 -49 -10 -114t-2 -138q66 -2 110 0t64 11l21 56q11 4 21.5 3.5t21.5 -3.5l-20 -194q-15 -7 -35 -2l-1 80q-42 1 -88 1t-94 -2v-61.5t1 -74t2 -71.5t4 -55q99 -10 154 -3.5t74 14.5l46 98q16 7 33 0l-27 -162l-17 -12q-8 4 -36.5 8.5t-79.5 4.5h-236zM540 349v62t-1 67.5
t-2 63.5t-2 52q-31 17 -66 26t-73 9q-34 0 -63 -6.5t-55 -19.5q-23 -15 -43 -38t-35 -53.5t-24 -67.5t-9 -80q0 -77 24.5 -137.5t66 -102.5t96.5 -64.5t115 -22.5q20 0 36 1.5t32 6.5q1 24 1.5 52t1 64t0.5 82v106z" />
    <glyph glyph-name="oe" unicode="&#x153;" horiz-adv-x="869" 
d="M461 89q-8 -17 -25 -35t-42 -33t-58.5 -24.5t-75.5 -9.5q-49 0 -87.5 18t-65.5 49.5t-41 73.5t-14 90q0 68 20.5 117t65.5 82q16 12 36.5 22t43 18t45.5 12.5t43 5.5q39 1 69 -11t51.5 -30t33.5 -37.5t15 -32.5l10 -2q6 19 23 39t41.5 36.5t55.5 27t65 10.5
q30 0 57.5 -10.5t48.5 -30t33.5 -49t13.5 -66.5q-11 -15 -34.5 -26t-43.5 -17l-229 -67q6 -44 24 -74.5t43 -50t54.5 -28.5t59.5 -9q33 0 59 13.5t50 32.5q18 -10 21 -38q-35 -26 -82 -47t-101 -21q-41 0 -71.5 10t-51.5 25.5t-34.5 33.5t-20.5 34zM137 241q0 -45 13 -82
t35.5 -63.5t52 -41t62.5 -14.5q22 0 38 3t32 11q22 17 41 58.5t19 108.5q0 45 -13 82t-36 63.5t-54.5 41t-68.5 14.5q-16 0 -27.5 -3.5t-22.5 -8.5q-29 -19 -50 -60.5t-21 -108.5zM569 396q-19 -18 -36 -48.5t-19 -84.5l171 33q29 6 40 11.5t11 13.5q0 16 -6 33t-19.5 30.5
t-34 22t-49.5 8.5q-22 0 -34.5 -5.5t-23.5 -13.5z" />
    <glyph glyph-name="Racute" unicode="&#x154;" horiz-adv-x="690" 
d="M101 -1q-5 17 0 38l54 11q10 2 16.5 10t10.5 36t5 84.5t1 156.5v86.5t-0.5 80t-1.5 68t-2 51.5l-91 5q-9 21 0 40q30 3 72.5 5.5t83 5t72 4t37.5 1.5q43 0 80.5 -9t65.5 -28.5t44.5 -51t16.5 -76.5q0 -35 -12 -64t-32.5 -52.5t-46.5 -40t-53 -26.5q32 -40 72.5 -89
t82.5 -96t81.5 -87.5t68.5 -62.5q4 -11 0 -21h-35q-29 0 -63 19.5t-69 50t-69.5 69t-66 76t-57.5 71t-44 54.5q-12 0 -24.5 -0.5t-23.5 0.5q0 -78 1 -147t8 -123l89 -11q11 -21 0 -38h-271zM280 627q-1 -51 -3.5 -115.5t-2.5 -150.5q29 -5 54 -5.5t47 4.5q45 13 72.5 52
t27.5 91q0 34 -11.5 58t-32.5 39t-50.5 22t-64.5 7q-9 0 -17.5 -0.5t-18.5 -1.5zM315 765l154 148q17 -5 28 -10t18 -12t11.5 -17t9.5 -23l-202 -110z" />
    <glyph glyph-name="racute" unicode="&#x155;" horiz-adv-x="424" 
d="M202 470q-2 -21 -3 -41.5t-3 -40.5q16 17 36 32.5t41 27.5t41 19t34 7q18 0 37 -14.5t19 -39.5q0 -7 -2 -15.5t-8 -16t-17.5 -13.5t-29.5 -9l-5 5q-14 18 -33 23t-39.5 0t-40.5 -18t-35 -31q-1 -31 -1 -64v-71q0 -66 0.5 -105t2.5 -56l95 -12q6 -20 0 -38h-240
q-6 18 0 37l31 12q11 4 17.5 10.5t9.5 22.5t4 46.5t1 84.5q0 42 -1 72.5t-3.5 52.5t-6 36t-8.5 22h-47q-9 18 0 37l149 43zM169 561l154 148q17 -5 28 -10t18 -12t11.5 -17t9.5 -23l-202 -110z" />
    <glyph glyph-name="Rcommaaccent" unicode="&#x156;" horiz-adv-x="690" 
d="M101 -1q-5 17 0 38l54 11q10 2 16.5 10t10.5 36t5 84.5t1 156.5v86.5t-0.5 80t-1.5 68t-2 51.5l-91 5q-9 21 0 40q30 3 72.5 5.5t83 5t72 4t37.5 1.5q43 0 80.5 -9t65.5 -28.5t44.5 -51t16.5 -76.5q0 -35 -12 -64t-32.5 -52.5t-46.5 -40t-53 -26.5q32 -40 72.5 -89
t82.5 -96t81.5 -87.5t68.5 -62.5q4 -11 0 -21h-35q-29 0 -63 19.5t-69 50t-69.5 69t-66 76t-57.5 71t-44 54.5q-12 0 -24.5 -0.5t-23.5 0.5q0 -78 1 -147t8 -123l89 -11q11 -21 0 -38h-271zM280 627q-1 -51 -3.5 -115.5t-2.5 -150.5q29 -5 54 -5.5t47 4.5q45 13 72.5 52
t27.5 91q0 34 -11.5 58t-32.5 39t-50.5 22t-64.5 7q-9 0 -17.5 -0.5t-18.5 -1.5zM442 -142q0 -35 -13 -63t-30 -47.5t-34 -30t-24 -10.5q-10 11 -11 21q17 14 29 33.5t12 45.5q0 17 -6 30t-15 22t-18.5 15t-15.5 11q6 20 17 37.5t30 31.5q36 0 57.5 -26t21.5 -70z" />
    <glyph glyph-name="rcommaaccent" unicode="&#x157;" horiz-adv-x="424" 
d="M202 470q-2 -21 -3 -41.5t-3 -40.5q16 17 36 32.5t41 27.5t41 19t34 7q18 0 37 -14.5t19 -39.5q0 -7 -2 -15.5t-8 -16t-17.5 -13.5t-29.5 -9l-5 5q-14 18 -33 23t-39.5 0t-40.5 -18t-35 -31q-1 -31 -1 -64v-71q0 -66 0.5 -105t2.5 -56l95 -12q6 -20 0 -38h-240
q-6 18 0 37l31 12q11 4 17.5 10.5t9.5 22.5t4 46.5t1 84.5q0 42 -1 72.5t-3.5 52.5t-6 36t-8.5 22h-47q-9 18 0 37l149 43zM239 -142q0 -35 -13 -63t-30 -47.5t-34 -30t-24 -10.5q-10 11 -11 21q17 14 29 33.5t12 45.5q0 17 -6 30t-15 22t-18.5 15t-15.5 11q6 20 17 37.5
t30 31.5q36 0 57.5 -26t21.5 -70z" />
    <glyph glyph-name="Rcaron" unicode="&#x158;" horiz-adv-x="690" 
d="M101 -1q-5 17 0 38l54 11q10 2 16.5 10t10.5 36t5 84.5t1 156.5v86.5t-0.5 80t-1.5 68t-2 51.5l-91 5q-9 21 0 40q30 3 72.5 5.5t83 5t72 4t37.5 1.5q43 0 80.5 -9t65.5 -28.5t44.5 -51t16.5 -76.5q0 -35 -12 -64t-32.5 -52.5t-46.5 -40t-53 -26.5q32 -40 72.5 -89
t82.5 -96t81.5 -87.5t68.5 -62.5q4 -11 0 -21h-35q-29 0 -63 19.5t-69 50t-69.5 69t-66 76t-57.5 71t-44 54.5q-12 0 -24.5 -0.5t-23.5 0.5q0 -78 1 -147t8 -123l89 -11q11 -21 0 -38h-271zM280 627q-1 -51 -3.5 -115.5t-2.5 -150.5q29 -5 54 -5.5t47 4.5q45 13 72.5 52
t27.5 91q0 34 -11.5 58t-32.5 39t-50.5 22t-64.5 7q-9 0 -17.5 -0.5t-18.5 -1.5zM228 836q5 9 12 16.5t20 12.5l100 -70l79 65q19 -5 27 -23l-107 -117h-28z" />
    <glyph glyph-name="rcaron" unicode="&#x159;" horiz-adv-x="424" 
d="M202 470q-2 -21 -3 -41.5t-3 -40.5q16 17 36 32.5t41 27.5t41 19t34 7q18 0 37 -14.5t19 -39.5q0 -7 -2 -15.5t-8 -16t-17.5 -13.5t-29.5 -9l-5 5q-14 18 -33 23t-39.5 0t-40.5 -18t-35 -31q-1 -31 -1 -64v-71q0 -66 0.5 -105t2.5 -56l95 -12q6 -20 0 -38h-240
q-6 18 0 37l31 12q11 4 17.5 10.5t9.5 22.5t4 46.5t1 84.5q0 42 -1 72.5t-3.5 52.5t-6 36t-8.5 22h-47q-9 18 0 37l149 43zM112 652q5 9 12 16.5t20 12.5l100 -70l79 65q19 -5 27 -23l-107 -117h-28z" />
    <glyph glyph-name="Sacute" unicode="&#x15a;" horiz-adv-x="538" 
d="M274 301q-33 19 -60.5 37.5t-47 40t-30 50t-10.5 67.5q0 45 19.5 79t51 57t70.5 34.5t79 11.5q12 0 29.5 -2t38.5 -4.5t42.5 -5t41.5 -4.5l7 -15l-36 -151q-18 -8 -32 0l7 89q-20 16 -44.5 26t-50 13.5t-48 1t-37.5 -9.5q-19 -11 -36.5 -36.5t-17.5 -60.5
q0 -33 14.5 -55.5t38.5 -40t54.5 -33t62.5 -35.5t55.5 -38t39.5 -37.5t23.5 -42.5t7.5 -53q0 -46 -21 -82t-56 -61.5t-79.5 -39t-91.5 -13.5q-19 0 -42.5 7t-47 16.5t-45.5 19.5t-38 17l-6 12l47 158q17 7 37 -2l-5 -89q16 -27 42 -45t56 -27t61 -9.5t57 7.5
q19 11 33.5 34.5t14.5 58.5q0 28 -11 48.5t-30.5 37.5t-46.5 33.5t-60 35.5zM285 765l154 148q17 -5 28 -10t18 -12t11.5 -17t9.5 -23l-202 -110z" />
    <glyph glyph-name="sacute" unicode="&#x15b;" horiz-adv-x="395" 
d="M259 474q14 -2 28 -7.5t25 -13.5t18 -18.5t7 -20.5q0 -17 -12.5 -27t-42.5 -12l-7 2q-13 24 -36.5 33.5t-54.5 10.5q-16 -5 -34.5 -18t-18.5 -38q0 -21 16 -37.5t40 -32t52 -31t52 -34.5t40 -43t16 -56q0 -37 -20 -64t-49.5 -44.5t-63 -26t-61.5 -8.5q-21 0 -40.5 7
t-35 17.5t-24.5 23.5t-9 24q0 19 11 30.5t43 15.5l6 -1q9 -19 34.5 -39t65.5 -24q22 5 42.5 19.5t20.5 41.5q0 24 -16 42.5t-40 34t-51.5 31t-51.5 34.5t-40 43t-16 58t22 58t53.5 39.5t67.5 23t64 7.5zM140 561l154 148q17 -5 28 -10t18 -12t11.5 -17t9.5 -23l-202 -110z
" />
    <glyph glyph-name="Scaron" unicode="&#x160;" horiz-adv-x="538" 
d="M274 301q-33 19 -60.5 37.5t-47 40t-30 50t-10.5 67.5q0 45 19.5 79t51 57t70.5 34.5t79 11.5q12 0 29.5 -2t38.5 -4.5t42.5 -5t41.5 -4.5l7 -15l-36 -151q-18 -8 -32 0l7 89q-20 16 -44.5 26t-50 13.5t-48 1t-37.5 -9.5q-19 -11 -36.5 -36.5t-17.5 -60.5
q0 -33 14.5 -55.5t38.5 -40t54.5 -33t62.5 -35.5t55.5 -38t39.5 -37.5t23.5 -42.5t7.5 -53q0 -46 -21 -82t-56 -61.5t-79.5 -39t-91.5 -13.5q-19 0 -42.5 7t-47 16.5t-45.5 19.5t-38 17l-6 12l47 158q17 7 37 -2l-5 -89q16 -27 42 -45t56 -27t61 -9.5t57 7.5
q19 11 33.5 34.5t14.5 58.5q0 28 -11 48.5t-30.5 37.5t-46.5 33.5t-60 35.5zM193 839q5 9 12 16.5t20 12.5l100 -70l79 65q19 -5 27 -23l-107 -117h-28z" />
    <glyph glyph-name="scaron" unicode="&#x161;" horiz-adv-x="395" 
d="M259 474q14 -2 28 -7.5t25 -13.5t18 -18.5t7 -20.5q0 -17 -12.5 -27t-42.5 -12l-7 2q-13 24 -36.5 33.5t-54.5 10.5q-16 -5 -34.5 -18t-18.5 -38q0 -21 16 -37.5t40 -32t52 -31t52 -34.5t40 -43t16 -56q0 -37 -20 -64t-49.5 -44.5t-63 -26t-61.5 -8.5q-21 0 -40.5 7
t-35 17.5t-24.5 23.5t-9 24q0 19 11 30.5t43 15.5l6 -1q9 -19 34.5 -39t65.5 -24q22 5 42.5 19.5t20.5 41.5q0 24 -16 42.5t-40 34t-51.5 31t-51.5 34.5t-40 43t-16 58t22 58t53.5 39.5t67.5 23t64 7.5zM89 652q5 9 12 16.5t20 12.5l100 -70l79 65q19 -5 27 -23l-107 -117
h-28z" />
    <glyph glyph-name="Tcaron" unicode="&#x164;" horiz-adv-x="618" 
d="M673 680l-33 -226q-23 -8 -44 0v161q-13 1 -40 2t-56.5 2t-56 1h-39.5q-2 -10 -3 -25.5t-2.5 -45.5t-2 -79t-0.5 -126q0 -84 0.5 -132t1.5 -76.5t2 -46t3 -39.5l79 -13q8 -21 0 -38h-263q-6 17 0 38l56 11q7 1 12.5 4t9.5 13t6.5 28.5t4.5 51.5t2.5 82t0.5 119
q0 127 -2 191t-4 83q-23 0 -51.5 -1t-54 -3t-43.5 -4.5t-19 -6.5l-52 -151q-21 -7 -40 0l30 227l12 8q27 -9 96 -15.5t177 -6.5q68 0 118.5 1.5t86.5 4.5t59 7t37 9zM236 827q5 9 12 16.5t20 12.5l100 -70l79 65q19 -5 27 -23l-107 -117h-28z" />
    <glyph glyph-name="tcaron" unicode="&#x165;" horiz-adv-x="390" 
d="M347 637q0 -32 -12 -58t-28 -44t-31.5 -28t-22.5 -10q-5 5 -7.5 9.5t-3.5 9.5q16 14 27.5 32.5t11.5 42.5q0 15 -6 26.5t-14 20t-16.5 14.5t-14.5 11q5 19 15.5 35t27.5 28q34 0 54 -23.5t20 -65.5zM168 577q21 7 40 0q-2 -15 -4 -27.5l-4 -25t-3.5 -27.5t-2.5 -35h135
q7 -20 0 -39l-137 -13q-2 -14 -3.5 -36.5t-2.5 -49t-1.5 -53t-0.5 -47.5q0 -50 5.5 -83t15.5 -52.5t24.5 -28t33.5 -8.5q17 0 42.5 4t48.5 12q11 -18 10 -34l-156 -46q-57 0 -81 59.5t-24 176.5q0 14 0.5 37.5t1 50t1 52t0.5 44.5h-67q-5 18 7 35q45 15 74.5 52t47.5 82z
" />
    <glyph glyph-name="Umacron" unicode="&#x16a;" horiz-adv-x="793" 
d="M335 667q8 -19 0 -39l-51 -10q-13 -3 -20.5 -15.5t-12 -40.5t-6 -75t-1.5 -118q0 -96 19.5 -159.5t51.5 -101t74.5 -52.5t88.5 -15q29 0 45.5 3t36.5 13q17 8 35 26.5t32.5 51.5t23.5 82.5t9 119.5q0 28 -0.5 66t-1.5 77.5t-3.5 76t-6.5 61.5l-66 10q-6 19 0 39h203
q8 -19 0 -39l-44 -10q-9 -3 -14.5 -15.5t-9 -46t-4.5 -94.5t-1 -160q0 -84 -20.5 -144t-56 -98.5t-84 -56.5t-104.5 -18q-19 0 -48.5 3t-62 14t-65 32.5t-58.5 59.5t-42 95t-16 138q0 85 -0.5 163t-3.5 127l-72 11q-6 20 0 39h256zM609 792q5 -18 1 -30.5t-13 -24.5h-317
q-6 20 -1.5 32.5t17.5 22.5h313z" />
    <glyph glyph-name="umacron" unicode="&#x16b;" horiz-adv-x="583" 
d="M486 475q1 -30 -0.5 -62t-3.5 -71.5t-4 -90.5t-2 -119q0 -32 3 -54t16 -30h42q10 -16 0 -35l-90 -26q-16 6 -28 19t-19 43q-21 -14 -44.5 -25t-47 -19t-44 -12.5t-34.5 -4.5q-32 0 -59.5 12t-48 36t-32.5 60t-12 84q0 45 3 82t5 65t2 48.5t-6 32.5h-52q-8 15 0 34l130 42
l4 -4q6 -24 6.5 -53.5t-2 -63.5t-5.5 -72t-3 -77q0 -57 14 -90t34.5 -50t42.5 -21.5t37 -4.5q30 0 58.5 11t48.5 25q-2 11 -2 23.5v26.5q0 22 1.5 49.5t3 55.5t3.5 53t2 41q0 28 -2 46t-7 27l-37 2q-8 15 0 34l125 37zM457 641q5 -18 1 -30.5t-13 -24.5h-317
q-6 20 -1.5 32.5t17.5 22.5h313z" />
    <glyph glyph-name="Uring" unicode="&#x16e;" horiz-adv-x="793" 
d="M335 667q8 -19 0 -39l-51 -10q-13 -3 -20.5 -15.5t-12 -40.5t-6 -75t-1.5 -118q0 -96 19.5 -159.5t51.5 -101t74.5 -52.5t88.5 -15q29 0 45.5 3t36.5 13q17 8 35 26.5t32.5 51.5t23.5 82.5t9 119.5q0 28 -0.5 66t-1.5 77.5t-3.5 76t-6.5 61.5l-66 10q-6 19 0 39h203
q8 -19 0 -39l-44 -10q-9 -3 -14.5 -15.5t-9 -46t-4.5 -94.5t-1 -160q0 -84 -20.5 -144t-56 -98.5t-84 -56.5t-104.5 -18q-19 0 -48.5 3t-62 14t-65 32.5t-58.5 59.5t-42 95t-16 138q0 85 -0.5 163t-3.5 127l-72 11q-6 20 0 39h256zM549 791q0 -28 -10.5 -47.5t-26 -31.5
t-32.5 -17.5t-30 -5.5q-40 0 -65 26t-25 65q0 29 11.5 48.5t27.5 31.5t32.5 17t26.5 5q41 0 66 -26.5t25 -64.5zM404 790q0 -26 18.5 -41t39.5 -15q6 0 15.5 1t14.5 3q5 5 9 14.5t4 27.5q0 25 -17.5 41.5t-39.5 16.5q-11 0 -17 -2t-11 -4q-3 -2 -9.5 -12t-6.5 -30z" />
    <glyph glyph-name="uring" unicode="&#x16f;" horiz-adv-x="583" 
d="M486 475q1 -30 -0.5 -62t-3.5 -71.5t-4 -90.5t-2 -119q0 -32 3 -54t16 -30h42q10 -16 0 -35l-90 -26q-16 6 -28 19t-19 43q-21 -14 -44.5 -25t-47 -19t-44 -12.5t-34.5 -4.5q-32 0 -59.5 12t-48 36t-32.5 60t-12 84q0 45 3 82t5 65t2 48.5t-6 32.5h-52q-8 15 0 34l130 42
l4 -4q6 -24 6.5 -53.5t-2 -63.5t-5.5 -72t-3 -77q0 -57 14 -90t34.5 -50t42.5 -21.5t37 -4.5q30 0 58.5 11t48.5 25q-2 11 -2 23.5v26.5q0 22 1.5 49.5t3 55.5t3.5 53t2 41q0 28 -2 46t-7 27l-37 2q-8 15 0 34l125 37zM386 638q0 -28 -10.5 -47.5t-26 -31.5t-32.5 -17.5
t-30 -5.5q-40 0 -65 26t-25 65q0 29 11.5 48.5t27.5 31.5t32.5 17t26.5 5q41 0 66 -26.5t25 -64.5zM241 637q0 -26 18.5 -41t39.5 -15q6 0 15.5 1t14.5 3q5 5 9 14.5t4 27.5q0 25 -17.5 41.5t-39.5 16.5q-11 0 -17 -2t-11 -4q-3 -2 -9.5 -12t-6.5 -30z" />
    <glyph glyph-name="Uhungarumlaut" unicode="&#x170;" horiz-adv-x="793" 
d="M335 667q8 -19 0 -39l-51 -10q-13 -3 -20.5 -15.5t-12 -40.5t-6 -75t-1.5 -118q0 -96 19.5 -159.5t51.5 -101t74.5 -52.5t88.5 -15q29 0 45.5 3t36.5 13q17 8 35 26.5t32.5 51.5t23.5 82.5t9 119.5q0 28 -0.5 66t-1.5 77.5t-3.5 76t-6.5 61.5l-66 10q-6 19 0 39h203
q8 -19 0 -39l-44 -10q-9 -3 -14.5 -15.5t-9 -46t-4.5 -94.5t-1 -160q0 -84 -20.5 -144t-56 -98.5t-84 -56.5t-104.5 -18q-19 0 -48.5 3t-62 14t-65 32.5t-58.5 59.5t-42 95t-16 138q0 85 -0.5 163t-3.5 127l-72 11q-6 20 0 39h256zM348 691l56 174q23 6 42 -2t27 -30
l-75 -142h-50zM471 691l81 165q23 6 45 -3t31 -32l-109 -130h-48z" />
    <glyph glyph-name="uhungarumlaut" unicode="&#x171;" horiz-adv-x="583" 
d="M486 475q1 -30 -0.5 -62t-3.5 -71.5t-4 -90.5t-2 -119q0 -32 3 -54t16 -30h42q10 -16 0 -35l-90 -26q-16 6 -28 19t-19 43q-21 -14 -44.5 -25t-47 -19t-44 -12.5t-34.5 -4.5q-32 0 -59.5 12t-48 36t-32.5 60t-12 84q0 45 3 82t5 65t2 48.5t-6 32.5h-52q-8 15 0 34l130 42
l4 -4q6 -24 6.5 -53.5t-2 -63.5t-5.5 -72t-3 -77q0 -57 14 -90t34.5 -50t42.5 -21.5t37 -4.5q30 0 58.5 11t48.5 25q-2 11 -2 23.5v26.5q0 22 1.5 49.5t3 55.5t3.5 53t2 41q0 28 -2 46t-7 27l-37 2q-8 15 0 34l125 37zM310 536l81 165q23 6 45 -3t31 -32l-109 -130h-48z
M187 536l56 174q23 6 42 -2t27 -30l-75 -142h-50z" />
    <glyph glyph-name="Uogonek" unicode="&#x172;" horiz-adv-x="793" 
d="M335 667q8 -19 0 -39l-51 -10q-13 -3 -20.5 -15.5t-12 -40.5t-6 -75t-1.5 -118q0 -96 19.5 -159.5t51.5 -101t74.5 -52.5t88.5 -15q29 0 45.5 3t36.5 13q17 8 35 26.5t32.5 51.5t23.5 82.5t9 119.5q0 28 -0.5 66t-1.5 77.5t-3.5 76t-6.5 61.5l-66 10q-6 19 0 39h203
q8 -19 0 -39l-44 -10q-9 -3 -14.5 -15.5t-9 -46t-4.5 -94.5t-1 -160q0 -127 -45 -199.5t-117 -100.5q-15 -12 -29.5 -26.5t-25.5 -31t-17.5 -33.5t-6.5 -32q0 -26 13.5 -41t35.5 -15q15 0 30 2.5t29 7.5q4 -4 7.5 -9t5.5 -17q-20 -13 -48.5 -22.5t-52.5 -13.5
q-45 0 -70.5 22t-25.5 60q0 37 25 72.5t59 61.5q-8 -1 -16 -1.5t-16 -0.5q-19 0 -48.5 3t-62 14t-65 32.5t-58.5 59.5t-42 95t-16 138q0 85 -0.5 163t-3.5 127l-72 11q-6 20 0 39h256z" />
    <glyph glyph-name="uogonek" unicode="&#x173;" horiz-adv-x="583" 
d="M486 475q1 -30 -0.5 -62t-3.5 -71.5t-4 -90.5t-2 -119q0 -32 3 -54t16 -30h42q10 -16 0 -35l-31 -9q-32 -24 -56.5 -58.5t-24.5 -66.5q0 -26 13.5 -41t35.5 -15q15 0 30 2.5t29 7.5q4 -4 7.5 -9t5.5 -17q-20 -13 -48.5 -22.5t-52.5 -13.5q-45 0 -70.5 22t-25.5 60
q0 19 7.5 38t19.5 37t28.5 34t34.5 29q-14 6 -23.5 19t-15.5 39q-21 -14 -44.5 -25t-47 -19t-44 -12.5t-34.5 -4.5q-32 0 -59.5 12t-48 36t-32.5 60t-12 84q0 45 3 82t5 65t2 48.5t-6 32.5h-52q-8 15 0 34l130 42l4 -4q6 -24 6.5 -53.5t-2 -63.5t-5.5 -72t-3 -77
q0 -57 14 -90t34.5 -50t42.5 -21.5t37 -4.5q30 0 58.5 11t48.5 25q-2 11 -2 23.5v26.5q0 22 1.5 49.5t3 55.5t3.5 53t2 41q0 28 -2 46t-7 27l-37 2q-8 15 0 34l125 37z" />
    <glyph glyph-name="Ydieresis" unicode="&#x178;" horiz-adv-x="626" 
d="M683 667q6 -18 0 -38l-44 -11q-12 -3 -30 -21.5t-39 -47t-44 -63t-45 -70t-41.5 -69t-33.5 -58.5q0 -86 1 -142.5t7 -98.5l84 -11q6 -20 0 -38h-270q-5 20 2 38l57 11q10 1 15.5 12.5t8.5 36.5t4 66t1 101q-16 29 -39 65.5t-48 74.5t-50.5 75t-47 66.5t-36 49t-18.5 23.5
l-56 11q-6 20 0 38h237q9 -18 0 -38l-39 -11q-10 -3 -1 -27.5t32 -63.5t57 -90t74 -109q21 34 47 79t50.5 88t43 77t23.5 46l-45 11q-6 19 1 38h182zM332 817q-1 -15 -9 -25.5t-20.5 -17.5t-27 -10.5t-29.5 -3.5l-33 63q1 15 9.5 25.5t21.5 17.5t27.5 10t27.5 3zM525 819
q-1 -14 -9 -24.5t-20 -17.5t-27 -10.5t-29 -3.5l-34 62q1 15 9.5 25.5t21 17.5t27 10t28.5 3z" />
    <glyph glyph-name="Zacute" unicode="&#x179;" horiz-adv-x="646" 
d="M613 668q5 -19 -5 -34l-45 -66t-68.5 -99t-81 -115.5t-82 -116.5t-72 -102.5t-50.5 -72.5l2 -4q91 -5 172 -3.5t166 12.5l43 138q18 8 35 0l-24 -217l-12 -8q-17 3 -36.5 5.5t-46.5 4.5t-64 3.5t-88.5 3t-120.5 2t-160 0.5q-2 9 -0.5 18.5t6.5 17.5q17 20 50 64.5
t73.5 101.5t84.5 120t84 120.5t71.5 103.5t47.5 69l-4 2h-93.5t-90.5 -1t-79 -3t-59 -6l-37 -117q-18 -5 -33 0l13 193l11 7q13 -3 28.5 -5.5t39 -5t57.5 -4.5t84.5 -3.5t120 -2t163.5 -0.5zM319 736l154 148q17 -5 28 -10t18 -12t11.5 -17t9.5 -23l-202 -110z" />
    <glyph glyph-name="zacute" unicode="&#x17a;" horiz-adv-x="442" 
d="M408 463q5 -14 -6 -35q-22 -33 -55.5 -79t-70 -95t-72 -96.5t-61.5 -84.5l3 -4q40 6 71 7t55.5 0.5t43.5 -2.5t35 -3l32 74q19 3 36 -5q-5 -26 -9 -53t-9 -48.5t-13 -35t-21 -13.5t-37.5 2.5t-64.5 5t-97.5 3.5t-135.5 -2q-3 18 5 36q17 20 39 47.5t47 59.5t51.5 66.5
t51 67t45.5 62t37 52.5l-3 2q-32 -3 -62 -4t-56 -0.5t-47.5 1.5t-35.5 1l-26 -75q-24 -6 -37 5q1 25 3 53.5t6.5 52t11 39t16.5 15.5q7 0 27 -4t59 -8.5t98.5 -6.5t145.5 2zM192 561l154 148q17 -5 28 -10t18 -12t11.5 -17t9.5 -23l-202 -110z" />
    <glyph glyph-name="Zdotaccent" unicode="&#x17b;" horiz-adv-x="646" 
d="M613 668q5 -19 -5 -34l-45 -66t-68.5 -99t-81 -115.5t-82 -116.5t-72 -102.5t-50.5 -72.5l2 -4q91 -5 172 -3.5t166 12.5l43 138q18 8 35 0l-24 -217l-12 -8q-17 3 -36.5 5.5t-46.5 4.5t-64 3.5t-88.5 3t-120.5 2t-160 0.5q-2 9 -0.5 18.5t6.5 17.5q17 20 50 64.5
t73.5 101.5t84.5 120t84 120.5t71.5 103.5t47.5 69l-4 2h-93.5t-90.5 -1t-79 -3t-59 -6l-37 -117q-18 -5 -33 0l13 193l11 7q13 -3 28.5 -5.5t39 -5t57.5 -4.5t84.5 -3.5t120 -2t163.5 -0.5zM411 780q-5 -33 -30.5 -44t-52.5 -2l-23 42q3 31 26 44.5t58 4.5z" />
    <glyph glyph-name="zdotaccent" unicode="&#x17c;" horiz-adv-x="442" 
d="M408 463q5 -14 -6 -35q-22 -33 -55.5 -79t-70 -95t-72 -96.5t-61.5 -84.5l3 -4q40 6 71 7t55.5 0.5t43.5 -2.5t35 -3l32 74q19 3 36 -5q-5 -26 -9 -53t-9 -48.5t-13 -35t-21 -13.5t-37.5 2.5t-64.5 5t-97.5 3.5t-135.5 -2q-3 18 5 36q17 20 39 47.5t47 59.5t51.5 66.5
t51 67t45.5 62t37 52.5l-3 2q-32 -3 -62 -4t-56 -0.5t-47.5 1.5t-35.5 1l-26 -75q-24 -6 -37 5q1 25 3 53.5t6.5 52t11 39t16.5 15.5q7 0 27 -4t59 -8.5t98.5 -6.5t145.5 2zM284 623q-5 -33 -30.5 -44t-52.5 -2l-23 42q3 31 26 44.5t58 4.5z" />
    <glyph glyph-name="Zcaron" unicode="&#x17d;" horiz-adv-x="646" 
d="M613 668q5 -19 -5 -34l-45 -66t-68.5 -99t-81 -115.5t-82 -116.5t-72 -102.5t-50.5 -72.5l2 -4q91 -5 172 -3.5t166 12.5l43 138q18 8 35 0l-24 -217l-12 -8q-17 3 -36.5 5.5t-46.5 4.5t-64 3.5t-88.5 3t-120.5 2t-160 0.5q-2 9 -0.5 18.5t6.5 17.5q17 20 50 64.5
t73.5 101.5t84.5 120t84 120.5t71.5 103.5t47.5 69l-4 2h-93.5t-90.5 -1t-79 -3t-59 -6l-37 -117q-18 -5 -33 0l13 193l11 7q13 -3 28.5 -5.5t39 -5t57.5 -4.5t84.5 -3.5t120 -2t163.5 -0.5zM238 856q5 9 12 16.5t20 12.5l100 -70l79 65q19 -5 27 -23l-107 -117h-28z" />
    <glyph glyph-name="zcaron" unicode="&#x17e;" horiz-adv-x="442" 
d="M408 463q5 -14 -6 -35q-22 -33 -55.5 -79t-70 -95t-72 -96.5t-61.5 -84.5l3 -4q40 6 71 7t55.5 0.5t43.5 -2.5t35 -3l32 74q19 3 36 -5q-5 -26 -9 -53t-9 -48.5t-13 -35t-21 -13.5t-37.5 2.5t-64.5 5t-97.5 3.5t-135.5 -2q-3 18 5 36q17 20 39 47.5t47 59.5t51.5 66.5
t51 67t45.5 62t37 52.5l-3 2q-32 -3 -62 -4t-56 -0.5t-47.5 1.5t-35.5 1l-26 -75q-24 -6 -37 5q1 25 3 53.5t6.5 52t11 39t16.5 15.5q7 0 27 -4t59 -8.5t98.5 -6.5t145.5 2zM122 652q5 9 12 16.5t20 12.5l100 -70l79 65q19 -5 27 -23l-107 -117h-28z" />
    <glyph glyph-name="longs" unicode="&#x17f;" horiz-adv-x="329" 
d="M306 37q11 -18 0 -38h-267q-6 19 1 38l46 11q8 2 14 8.5t9.5 23t5.5 46.5t2 80q0 57 -1 109.5t-3 95.5h-82q-4 13 -4 25.5t5 25.5h45q21 0 27.5 7t6.5 31q0 48 13.5 82t35 56t48 35t53 19t50 7.5t39.5 1.5q31 -7 52.5 -21t27.5 -30t-6 -30t-46 -21q-17 25 -48.5 40.5
t-67.5 9.5q-20 -13 -33 -29.5t-20.5 -38.5t-10 -51.5t-2.5 -67.5v-279q0 -54 -0.5 -85.5t-2.5 -48.5z" />
    <glyph glyph-name="florin" unicode="&#x192;" horiz-adv-x="281" 
d="M374 629q-9 6 -23.5 10.5t-31.5 7t-34 2t-30 -4.5q-9 -10 -16 -20t-13 -27t-11 -44t-9 -72h79q2 -12 1 -24t-7 -22h-77l-19 -212q-12 -138 -35.5 -228.5t-58.5 -143t-81.5 -72.5t-106.5 -17q-10 14 -8 37.5t16 37.5q27 -8 60 -7t56 9q16 20 29 54.5t25 100.5t23 171.5
t22 269.5h-75q-6 23 7 46h72q4 70 22 113.5t47 68t68 33t87 8.5q30 0 41.5 -12t11.5 -26q0 -9 -8 -21t-23 -16z" />
    <glyph glyph-name="pi" unicode="&#x3c0;" horiz-adv-x="607" 
d="M399 463q61 0 92.5 4t49.5 21l8 -1v-75q-11 -17 -32.5 -26t-45.5 -10q-5 -16 -8.5 -33t-6 -37t-4 -45.5t-1.5 -58.5q0 -41 3 -67t8 -41.5t12 -21.5t16 -6q17 0 32 5t29 12q5 -5 8 -19t-1 -24q-6 -9 -16 -20t-23.5 -20.5t-30 -15.5t-34.5 -6q-35 0 -49.5 34.5t-14.5 109.5
q0 32 3 69.5t6.5 72.5t8 64.5t7.5 46.5h-169q-3 -81 -13 -153t-29 -126.5t-49 -86t-73 -31.5q-20 0 -33 12.5t-16.5 29t3.5 31.5t27 21h41q24 7 42 39.5t29 77t15.5 94.5t1.5 92q-23 2 -48.5 -3t-39.5 -15q-8 8 -13.5 22.5t-3.5 31.5q20 23 58 37.5t93 14.5h161z" />
    <glyph glyph-name="afii10023" unicode="&#x401;" horiz-adv-x="633" 
d="M99 -1q-8 20 0 39l49 10q9 2 16 5t12 12.5t8 28t4.5 51.5t2 82.5t0.5 121.5q0 33 -0.5 72.5t-1 77t-2 69t-3.5 48.5l-91 13q-6 18 0 38h359q16 0 33.5 1t33.5 3.5t29.5 7t22.5 10.5l11 -9l-23 -170q-23 -8 -42 0v104q-63 5 -119 5.5t-109 -4.5q-8 -49 -10.5 -114
t-2.5 -138q67 -2 111 0t64 11l20 56q11 4 22 3.5t22 -3.5l-20 -194q-15 -7 -36 -2l-1 80q-41 1 -87.5 1t-94.5 -2v-61.5t1 -74t2 -71.5t4 -55q99 -10 154.5 -3.5t74.5 14.5l46 98q9 4 17 3.5t16 -3.5l-27 -162l-17 -12q-9 4 -37.5 8.5t-79.5 4.5h-331zM530 779
q-1 -15 -9 -25.5t-20 -17.5t-26.5 -10.5t-28.5 -3.5l-35 63q1 15 10 25.5t21.5 17.5t27 10t28.5 3zM336 777q-1 -15 -9 -25.5t-20 -17.5t-27 -10.5t-29 -3.5l-34 62q1 15 9.5 25.5t21.5 17.5t27.5 10t27.5 3z" />
    <glyph glyph-name="afii10051" unicode="&#x402;" horiz-adv-x="756" 
d="M737 263q0 -127 -16.5 -211t-44 -135.5t-63.5 -76t-75 -31.5q-27 0 -44.5 12.5t-22.5 29.5t5 33t38 24l70 -30q29 8 48.5 93.5t19.5 251.5q0 60 -13 93.5t-32.5 49.5t-43.5 19t-46 3q-35 0 -67.5 -11t-55.5 -22v-11q0 -84 0.5 -132t1.5 -76.5t2.5 -46t2.5 -39.5l77 -13
q8 -21 0 -38h-261q-5 17 0 38l56 11q7 1 12.5 4t9.5 12.5t7 28t4.5 51t2.5 82t1 120.5q0 127 -2.5 191t-3.5 83q-23 0 -52 -1t-54.5 -3t-43 -4.5t-18.5 -6.5l-53 -173q-20 -8 -39 0l29 249l12 8q28 -9 97 -15.5t176 -6.5q69 0 119.5 1.5t86.5 4.5t59 7t36 9l13 -9l-27 -170
q-11 -3 -25 -3t-25 3v105q-13 1 -40 2t-56.5 2t-56 1h-39.5q-2 -9 -3.5 -23t-2.5 -39t-2 -65t-1 -101q25 11 54 21.5t56.5 18t50.5 12t35 4.5q63 0 105 -47t42 -138z" />
    <glyph glyph-name="afii10052" unicode="&#x403;" horiz-adv-x="562" 
d="M100 -1q-6 17 0 39l50 10q14 3 22.5 10t13 36t6 88t1.5 167v73t-1 78t-2 69.5t-4 48.5l-91 13q-10 19 0 36h285q69 0 113 4t72 10l9 -14l-27 -235q-22 -10 -46 0v174q-32 6 -59 9t-51.5 3.5t-49 -0.5t-50.5 -3q-9 -53 -11 -124t-2 -152v-59t1 -82.5t2 -84.5t4 -64
l131 -12q8 -21 0 -38h-316zM274 724l152 149q16 -5 26.5 -9.5t17.5 -11t11 -16t8 -23.5l-192 -113z" />
    <glyph glyph-name="afii10053" unicode="&#x404;" horiz-adv-x="661" 
d="M641 677l-23 -188q-22 -10 -39 0l-10 103q-10 7 -27 13.5t-37.5 11.5t-43 8t-43.5 3q-53 0 -83 -6t-55 -18q-17 -10 -36 -30t-35.5 -49.5t-28 -69t-13.5 -87.5q38 -2 76.5 -2.5t71 0.5t56 3t32.5 6l31 71q16 7 35 0l-16 -193q-16 -8 -38 -2l-10 64q-46 4 -108.5 4.5
t-128.5 -3.5q4 -59 25 -109.5t58.5 -88.5t92.5 -59.5t128 -21.5q50 0 87.5 14t72.5 31q7 -6 11 -14.5t2 -19.5q-14 -9 -41 -21.5t-60 -23.5t-69 -18.5t-67 -7.5q-70 0 -130.5 22t-105.5 64.5t-70.5 104.5t-25.5 142q0 81 24.5 150t71 120t113.5 79.5t153 28.5q19 0 43 -2.5
t49 -4.5t49.5 -1t45.5 9z" />
    <glyph glyph-name="uni0406" unicode="&#x406;" horiz-adv-x="432" 
d="M96 -1q-4 16 2 38l61 11q16 3 25.5 6.5t15 16.5t7.5 39t2 73v112t-1 121t-3 113.5t-6 88.5l-107 11q-6 18 0 38h315q5 -16 0 -38l-55 -11q-19 -4 -30.5 -9.5t-17.5 -26.5t-8 -64t-2 -122q0 -60 0.5 -109t1 -90t1.5 -77t3 -72l107 -11q4 -18 1 -38h-312z" />
    <glyph glyph-name="afii10056" unicode="&#x407;" horiz-adv-x="432" 
d="M225 758q-1 -15 -9 -25.5t-20 -17.5t-27 -10.5t-29 -3.5l-34 62q1 15 9.5 25.5t21.5 17.5t27.5 10t27.5 3zM399 760q-1 -15 -9 -25.5t-20 -17.5t-27 -10.5t-29 -3.5l-35 63q1 15 10 25.5t21.5 17.5t27.5 10t29 3zM96 -1q-4 16 2 38l61 11q16 3 25.5 6.5t15 16.5t7.5 39
t2 73v112t-1 121t-3 113.5t-6 88.5l-107 11q-6 18 0 38h315q5 -16 0 -38l-55 -11q-19 -4 -30.5 -9.5t-17.5 -26.5t-8 -64t-2 -122q0 -60 0.5 -109t1 -90t1.5 -77t3 -72l107 -11q4 -18 1 -38h-312z" />
    <glyph glyph-name="afii10058" unicode="&#x409;" horiz-adv-x="972" 
d="M452 -1q-7 18 -1 38l29 11q13 5 22 12.5t14 34.5t7.5 81.5t2.5 152.5q0 35 -0.5 79t-1 85t-1.5 74.5t-1 47.5h-177q-3 -152 -19.5 -269t-45.5 -196.5t-70.5 -121t-95.5 -41.5q-33 0 -51 19t-19.5 43.5t13 47t46.5 29.5l58 -41q34 7 58 53.5t38.5 119t21 164.5t5.5 190
l-107 11q-7 23 0 44h528q8 -20 0 -38l-49 -11q-12 -3 -20 -9t-12.5 -27.5t-7 -66t-2.5 -124.5q20 3 44.5 7t47 7t40.5 5t27 2q35 0 69 -13.5t60.5 -38t42.5 -59t16 -77.5q0 -65 -25.5 -108t-69.5 -69t-102.5 -37t-124.5 -11h-187zM704 359q-18 0 -43 -2t-47 -7v-20v-58.5
t1 -83t3 -82t6 -55.5q54 -8 97.5 -4t71.5 13q40 19 58.5 58t18.5 80q0 33 -11.5 62.5t-33 51.5t-52.5 34.5t-69 12.5z" />
    <glyph glyph-name="afii10059" unicode="&#x40a;" horiz-adv-x="1085" 
d="M98 -1q-6 20 0 38l56 11q9 1 15 7.5t9.5 21.5t5 40.5t1.5 66.5v111.5t-1 120.5t-3 113.5t-6 88.5l-82 11q-8 18 0 38h262q8 -21 0 -38l-53 -11q-8 -2 -13.5 -8.5t-10 -28.5t-6.5 -65.5t-2 -118.5v-14q92 -5 181.5 -6t191.5 5q-1 69 -3 132t-6 104l-65 11q-8 18 0 38h252
q7 -17 -1 -38l-51 -11q-12 -3 -20 -10t-12.5 -29.5t-6 -65.5t-1.5 -116v-12q20 4 44 7.5t46.5 6.5t40.5 5t27 2q35 0 68.5 -12.5t60 -36t42.5 -57t16 -76.5q0 -62 -26 -104.5t-69 -69.5t-99.5 -39t-116.5 -12h-199q-9 17 0 38l50 11q9 1 14.5 7t9 20.5t5 40.5t1.5 68v141
q-60 3 -108.5 4t-92 1t-85.5 -1.5t-88 -3.5q0 -44 0.5 -82t1 -71.5t1.5 -63.5t3 -60l63 -11q6 -20 0 -38h-241zM732 54q55 -8 101 -5.5t75 11.5q39 19 57 58t18 80q0 33 -11.5 61.5t-33 49.5t-52 33t-69.5 12q-17 0 -41.5 -2.5t-46.5 -7.5v-160.5t3 -129.5z" />
    <glyph glyph-name="afii10060" unicode="&#x40b;" horiz-adv-x="797" 
d="M671 680l-27 -170q-11 -3 -25 -3t-25 3v105q-13 1 -40 2t-56.5 2t-56 1h-39.5q-2 -9 -3.5 -23t-2.5 -39t-2 -65t-1 -101q25 11 54 21.5t56.5 18t50.5 12t35 4.5q31 -5 57.5 -16t45.5 -31.5t30 -52.5t11 -80q0 -45 -1 -78t-2.5 -58.5t-2.5 -45.5t-1 -38l51 -10
q5 -10 4 -20t-5 -19h-200q-6 21 2 38l38 11q11 3 18 13t10.5 30t5 52t1.5 80q0 60 -12.5 93t-31 49t-40 19.5t-40.5 3.5q-42 0 -76.5 -11t-57.5 -22v-11q0 -84 0.5 -132t1.5 -76.5t2.5 -46t2.5 -39.5l77 -13q8 -21 0 -38h-261q-6 17 0 38l56 11q10 2 17 9t11.5 36t6 88
t1.5 165q0 127 -2 191t-4 83q-23 0 -51.5 -1t-54 -3t-43.5 -4.5t-19 -6.5l-52 -173q-20 -8 -39 0l29 249l12 8q27 -9 96 -15.5t177 -6.5q68 0 118.5 1.5t86.5 4.5t59 7t37 9z" />
    <glyph glyph-name="afii10061" unicode="&#x40c;" horiz-adv-x="728" 
d="M696 667q5 -18 -5 -39l-48 -11q-19 -4 -49 -33.5t-64.5 -69t-69.5 -81.5t-65 -71q39 -29 78.5 -72t81.5 -91t87 -95.5t96 -86.5q6 -12 -2 -30h-65q-30 0 -65.5 24.5t-72 61.5t-72.5 79.5t-68.5 79.5t-59.5 61.5t-44 24.5h-17q0 -85 1 -148.5t4 -121.5l63 -11q7 -19 1 -38
h-250q-5 22 3 38l61 11q9 1 15 5.5t9.5 18t5 40t1.5 73.5v111.5t-1 120t-3 112.5t-6 88l-81 11q-8 18 0 39h247q8 -22 0 -39l-39 -11q-7 -2 -13 -7.5t-10 -26.5t-6 -64t-2 -122v-41q15 -1 30.5 0.5t25.5 7.5q13 7 37.5 32.5t53.5 61t59.5 77.5t56.5 82l-45 11q-6 19 0 39
h206zM342 724l152 149q16 -5 26.5 -9.5t17.5 -11t11 -16t8 -23.5l-192 -113z" />
    <glyph glyph-name="afii10062" unicode="&#x40e;" horiz-adv-x="667" 
d="M293 -63q-12 0 -25.5 5t-24.5 14t-18 21.5t-7 28.5q0 21 17.5 44t48.5 31l45 -48q16 1 27.5 14.5t25.5 40.5q-15 27 -39 71.5t-51.5 97t-56.5 108.5t-55.5 106t-48 89t-33.5 58l-58 11q-8 18 0 38h244q8 -20 0 -38l-30 -11q-13 -5 -20 -14t-2 -25q19 -47 43 -100
t49.5 -105.5t50.5 -101t46 -85.5l8 -3q11 31 30.5 81t41 109.5t42 122.5t35.5 120l-60 11q-7 19 1 39h199q6 -20 0 -38l-27 -11q-8 -3 -15.5 -5.5t-14.5 -7t-14 -12.5t-16 -23q-14 -25 -34 -70.5t-43 -103.5t-48.5 -124t-51.5 -132q-16 -39 -33.5 -76t-37 -65t-42 -45
t-48.5 -17zM363 839q22 -9 48.5 -9.5t53 7.5t51.5 23.5t44 38.5q22 -5 25 -23q-9 -18 -27 -38t-44 -36.5t-59.5 -27.5t-74.5 -11q-60 0 -97 29t-37 72q0 15 8.5 27t22 19.5t31.5 9.5t37 -4z" />
    <glyph glyph-name="afii10145" unicode="&#x40f;" horiz-adv-x="863" 
d="M835 47q5 -11 5.5 -23.5t-5.5 -24.5h-328l-17 -209q-25 -10 -49 0l-17 209h-330q-10 16 0 39l54 10q13 2 20.5 8t12 28t6 65t1.5 120v109t-1 90.5t-2 77.5l-2 72l-83 11q-8 18 0 38h246q10 -19 1 -38l-44 -11q-9 -2 -14.5 -7t-8.5 -19t-4.5 -40t-1.5 -70v-111.5t1 -120
t3 -112t6 -87.5h335q8 0 13.5 5t9 26t5 65t1.5 122v109t-1 90.5t-2 77.5l-2 72l-64 11q-6 18 0 38h242q8 -19 1 -38l-57 -11q-9 -2 -15 -6.5t-9.5 -18t-5 -40t-1.5 -71.5v-110.5t1 -117.5t3 -109.5t6 -86.5z" />
    <glyph glyph-name="afii10017" unicode="&#x410;" horiz-adv-x="688" 
d="M333 668q26 23 61 21q11 -34 31 -89t44 -120t50.5 -133t50.5 -128t43.5 -105.5t30.5 -65.5l42 -11q8 -18 0 -38h-226q-9 20 0 38l42 11q13 3 22 7t5 20q-11 34 -25.5 75.5t-31.5 86.5q-64 2 -122.5 3t-122.5 -1q-20 -54 -37 -103.5t-28 -87.5l68 -11q9 -19 1 -38h-185
q-9 21 0 43l17 6q11 3 23 13.5t20 24.5q6 11 17.5 38t27.5 64.5t34.5 83t37.5 93t37 94.5t33 88t25.5 72.5t14.5 48.5zM348 553q-8 -21 -19 -50t-24.5 -63.5t-28.5 -73t-30 -77.5q28 -2 52 -3.5t48 -1.5t50 0.5t57 2.5q-16 42 -31.5 82.5t-29.5 76t-24.5 63.5t-15.5 45z" />
    <glyph glyph-name="afii10018" unicode="&#x411;" horiz-adv-x="623" 
d="M404 667q40 0 80.5 4t66.5 12l14 -16l-23 -158q-18 -6 -40 1v97q-45 5 -98.5 6.5t-104.5 1.5q-8 -1 -13.5 -7t-9 -31t-5 -75t-1.5 -140q20 3 42.5 6.5t43 6.5t37 4.5t24.5 1.5q34 0 67 -11t59.5 -32.5t42.5 -53.5t16 -74q0 -66 -24.5 -107t-68.5 -64.5t-104 -31.5
t-132 -8h-181q-6 17 0 39l58 10q11 2 18 9.5t10.5 29t5 62.5t1.5 111q0 99 -1.5 194t-4.5 164l-82 11q-9 19 0 38h307zM344 328q-16 0 -36 -2t-38 -6q0 -72 1.5 -140.5t3.5 -128.5q54 -8 102 -4t77 13q32 17 45 53t13 71q0 66 -45 105t-123 39z" />
    <glyph glyph-name="afii10019" unicode="&#x412;" horiz-adv-x="648" 
d="M188 249v108t-0.5 104t-1.5 93.5t-3 75.5q-23 -2 -43.5 -4.5t-39.5 -4.5q-4 9 -5 19t4 20l91 14q12 2 41.5 4.5t61.5 5t60 4t38 1.5q16 0 47 -5.5t62 -23t54.5 -49.5t23.5 -86q0 -32 -10.5 -58.5t-28.5 -46.5t-41.5 -34t-49.5 -21v-4q39 0 68.5 -14t50 -36t31 -49
t10.5 -53q0 -45 -13.5 -77.5t-36.5 -55t-55 -37t-69 -24.5q-42 -11 -102 -13.5t-117 -2.5h-123q-8 18 0 38l61 11q11 2 18 7.5t10.5 25.5t5 59t1.5 109zM349 326q-21 0 -40.5 -2.5t-35.5 -7.5q0 -70 1.5 -134t3.5 -124q49 -6 98 -3t78 12q29 12 46 42.5t17 74.5
q0 66 -45 104t-123 38zM279 636q-1 -22 -2 -53t-1.5 -66t-1.5 -71.5t-1 -67.5q23 -1 46.5 -1h43.5q28 0 51 9t39 25.5t25 38t9 47.5q0 74 -45.5 107t-117.5 33h-23t-22 -1z" />
    <glyph glyph-name="afii10020" unicode="&#x413;" horiz-adv-x="562" 
d="M100 -1q-6 17 0 39l50 10q14 3 22.5 10t13 36t6 88t1.5 167v73t-1 78t-2 69.5t-4 48.5l-91 13q-10 19 0 36h285q69 0 113 4t72 10l9 -14l-27 -235q-22 -10 -46 0v174q-32 6 -59 9t-51.5 3.5t-49 -0.5t-50.5 -3q-9 -53 -11 -124t-2 -152v-59t1 -82.5t2 -84.5t4 -64
l131 -12q8 -21 0 -38h-316z" />
    <glyph glyph-name="afii10021" unicode="&#x414;" horiz-adv-x="722" 
d="M655 667q5 -21 -2 -37l-27 -12q-8 -4 -14.5 -9t-11.5 -15.5t-8 -30.5t-5 -53.5t-3 -84.5t-1 -124v-51t1 -72.5t3 -73.5t5 -53l123 -2l-36 -253q-13 -5 -26 -5.5t-27 5.5v129q0 37 -9.5 55.5t-41.5 18.5h-455l-32 -203q-14 -6 -28.5 -5.5t-27.5 5.5v253h50q28 0 51 23
t41 63.5t31.5 95t21.5 117.5t11.5 131.5t1.5 136.5l-96 12q-8 19 0 39h511zM436 51q19 0 31.5 7.5t19 33.5t9 77t2.5 138q0 21 -0.5 50t-1 61.5t-1 65.5t-1 60t-1.5 46t-1 25h-160q-15 0 -21 -29t-9.5 -76.5t-8 -108t-16 -123.5t-32.5 -122.5t-58 -104.5h249z" />
    <glyph glyph-name="afii10022" unicode="&#x415;" horiz-adv-x="633" 
d="M99 -1q-8 20 0 39l49 10q9 2 16 5t12 12.5t8 28t4.5 51.5t2 82.5t0.5 121.5q0 33 -0.5 72.5t-1 77t-2 69t-3.5 48.5l-91 13q-6 18 0 38h359q16 0 33.5 1t33.5 3.5t29.5 7t22.5 10.5l11 -9l-23 -170q-23 -8 -42 0v104q-63 5 -119 5.5t-109 -4.5q-8 -49 -10.5 -114
t-2.5 -138q67 -2 111 0t64 11l20 56q11 4 22 3.5t22 -3.5l-20 -194q-15 -7 -36 -2l-1 80q-41 1 -87.5 1t-94.5 -2v-61.5t1 -74t2 -71.5t4 -55q99 -10 154.5 -3.5t74.5 14.5l46 98q9 4 17 3.5t16 -3.5l-27 -162l-17 -12q-9 4 -37.5 8.5t-79.5 4.5h-331z" />
    <glyph glyph-name="afii10024" unicode="&#x416;" horiz-adv-x="990" 
d="M951 667q7 -18 -2 -38l-38 -11q-15 -4 -35.5 -28t-46.5 -61t-57 -81.5t-67 -88.5q30 -27 59 -69t61.5 -89.5t69.5 -96t82 -88.5q6 -12 0 -30h-59q-26 0 -54.5 23t-56.5 58t-55.5 76.5t-51.5 77.5t-44 62t-33 30q-6 2 -26.5 3t-37.5 2q0 -28 0.5 -66t1.5 -77t2.5 -73.5
t4.5 -53.5l37 -11q10 -21 0 -38h-176q-9 18 0 38l25 11q7 3 12 11.5t7.5 35t4 78.5t1.5 143q-16 -2 -37 -2.5t-28 -0.5q-17 0 -37.5 -24t-43.5 -60.5t-48.5 -79t-52.5 -79t-54 -60.5t-53 -24h-56q-7 13 0 25q32 28 62 71.5t61.5 92t65 97t72.5 86.5q-23 25 -50.5 63
t-54.5 76.5t-51 71.5t-38 49l-44 11q-6 18 0 38h203q6 -18 -1 -38l-42 -11q-12 -7 -17 -12.5t0 -13.5q22 -40 46 -78t46.5 -68.5t42 -52t33.5 -28.5q8 -5 29 -9t47 -4q0 25 -0.5 63t-1.5 76.5t-2.5 73t-3.5 53.5l-38 11q-3 10 -3 19.5t5 18.5h174q8 -20 0 -38l-26 -11
q-6 -3 -10.5 -10t-7.5 -32.5t-4.5 -78.5t-1.5 -147q58 2 93 23q13 8 27.5 26t34 47.5t45 72t60.5 99.5l-70 11q-7 19 0 38h202z" />
    <glyph glyph-name="afii10025" unicode="&#x417;" horiz-adv-x="552" 
d="M127 139q8 -14 24 -31.5t40 -33.5t54.5 -26.5t68.5 -10.5q24 0 47 9t41.5 25.5t29.5 40t11 53.5q0 48 -22.5 80.5t-56 50t-73 21.5t-72.5 -3l-3 4q1 30 9 39t34 9q33 0 62.5 10.5t51.5 29t34.5 44.5t12.5 58q0 34 -12.5 57t-32 37t-43.5 20.5t-48 6.5q-35 0 -65.5 -7
t-49.5 -23l-38 -120q-20 -8 -36 2l18 186l16 15q23 -10 51 -11t55.5 1.5t51 6t37.5 3.5q30 0 63 -7.5t60 -24.5t44.5 -44.5t17.5 -68.5q0 -31 -11.5 -57t-30 -47.5t-43.5 -38.5t-52 -29v-4q75 -14 117.5 -57.5t42.5 -110.5q0 -51 -26 -91t-65.5 -67.5t-87.5 -42.5t-92 -15
q-71 0 -113.5 21.5t-58 49.5t-5.5 54.5t43 36.5z" />
    <glyph glyph-name="afii10026" unicode="&#x418;" horiz-adv-x="839" 
d="M639 558q-24 -35 -66 -95t-96 -136.5t-118 -163.5t-133 -175q-13 -7 -27 -9.5t-27 -1.5v208v111.5t-1 120.5t-3 113t-6 88l-82 11q-5 18 0 38h260q6 -20 0 -38l-51 -11q-8 -2 -14 -9t-10 -29.5t-6 -67t-2 -120.5v-102t-0.5 -74t-1.5 -57.5t-2 -53.5h5q30 36 64.5 82.5
t70.5 97.5t73 104.5t72 104.5t67 96.5t59 80.5q19 6 38.5 7.5t36.5 0.5q-2 -24 -7.5 -94.5t-5.5 -190.5q0 -60 0.5 -108.5t1 -89.5t1.5 -76.5t2 -71.5l83 -11q8 -20 0 -38h-250q-8 18 0 38l47 11q8 2 13.5 7.5t9 19.5t5 40t1.5 70v105t1 104.5t3 93t5 70.5h-10z" />
    <glyph glyph-name="afii10027" unicode="&#x419;" horiz-adv-x="839" 
d="M639 558q-24 -35 -66 -95t-96 -136.5t-118 -163.5t-133 -175q-13 -7 -27 -9.5t-27 -1.5v208v111.5t-1 120.5t-3 113t-6 88l-82 11q-5 18 0 38h260q6 -20 0 -38l-51 -11q-8 -2 -14 -9t-10 -29.5t-6 -67t-2 -120.5v-102t-0.5 -74t-1.5 -57.5t-2 -53.5h5q30 36 64.5 82.5
t70.5 97.5t73 104.5t72 104.5t67 96.5t59 80.5q19 6 38.5 7.5t36.5 0.5q-2 -24 -7.5 -94.5t-5.5 -190.5q0 -60 0.5 -108.5t1 -89.5t1.5 -76.5t2 -71.5l83 -11q8 -20 0 -38h-250q-8 18 0 38l47 11q8 2 13.5 7.5t9 19.5t5 40t1.5 70v105t1 104.5t3 93t5 70.5h-10zM431 839
q22 -9 48.5 -9.5t53 7.5t51.5 23.5t44 38.5q22 -5 25 -23q-9 -18 -27 -38t-44 -36.5t-59.5 -27.5t-74.5 -11q-60 0 -97 29t-37 72q0 15 8.5 27t22 19.5t31.5 9.5t37 -4z" />
    <glyph glyph-name="afii10028" unicode="&#x41a;" horiz-adv-x="728" 
d="M696 667q5 -18 -5 -39l-48 -11q-19 -4 -49 -33.5t-64.5 -69t-69.5 -81.5t-65 -71q39 -29 78.5 -72t81.5 -91t87 -95.5t96 -86.5q6 -12 -2 -30h-65q-30 0 -65.5 24.5t-72 61.5t-72.5 79.5t-68.5 79.5t-59.5 61.5t-44 24.5h-17q0 -85 1 -148.5t4 -121.5l63 -11q7 -19 1 -38
h-250q-5 22 3 38l61 11q9 1 15 5.5t9.5 18t5 40t1.5 73.5v111.5t-1 120t-3 112.5t-6 88l-81 11q-8 18 0 39h247q8 -22 0 -39l-39 -11q-7 -2 -13 -7.5t-10 -26.5t-6 -64t-2 -122v-41q15 -1 30.5 0.5t25.5 7.5q13 7 37.5 32.5t53.5 61t59.5 77.5t56.5 82l-45 11q-6 19 0 39
h206z" />
    <glyph glyph-name="afii10029" unicode="&#x41b;" horiz-adv-x="732" 
d="M706 667q9 -20 0 -38l-48 -11q-13 -3 -21.5 -10t-13 -34.5t-6 -84t-1.5 -159.5v-59t0.5 -83.5t1.5 -82t3 -56.5l69 -12q6 -20 0 -38h-237q-8 18 0 38l28 11q13 5 22 12.5t14 34.5t7.5 81.5t2.5 152.5q0 35 -0.5 79t-1 85t-1.5 74.5t-1 47.5h-188q-6 -137 -20.5 -252.5
t-41 -199t-68 -130t-101.5 -46.5q-33 0 -50.5 19t-19.5 43.5t12.5 47t47.5 29.5l57 -41q35 7 59 53.5t38.5 119t21 164.5t5.5 190l-108 11q-6 23 0 44h539z" />
    <glyph glyph-name="afii10030" unicode="&#x41c;" horiz-adv-x="918" 
d="M75 -1q-9 18 0 38l41 11q8 2 14 10t11.5 29t10.5 58.5t9 100.5t8 154t9 218l-72 11q-7 19 0 38h188q34 -101 83 -222t106 -253h6q26 67 48.5 127.5t43 118.5t39.5 114.5t37 114.5h199q11 -18 0 -38l-63 -11q-6 -1 -6.5 -26t1.5 -68.5t5.5 -103.5t6.5 -131q4 -77 9 -134.5
t13 -106.5l77 -11q8 -20 0 -38h-239q-6 18 0 38l39 11q14 4 17.5 50t0.5 121t-10.5 171t-13.5 200h-15q-19 -56 -39 -112t-41.5 -117t-46.5 -130.5t-54 -152.5q-25 -22 -53 -22q-18 43 -40 94.5t-44.5 105t-43.5 105.5t-38 97t-28.5 79.5t-13.5 52.5l-14 -1q-1 -20 -3 -54.5
t-3.5 -79t-3.5 -96t-3.5 -105t-3.5 -106.5t-3 -100l41 -11q8 -21 0 -38h-168z" />
    <glyph glyph-name="afii10031" unicode="&#x41d;" horiz-adv-x="868" 
d="M586 -1q-9 17 0 38l50 11q9 1 14.5 7t9 21t5 41t1.5 67v131q-62 3 -113.5 4.5t-98.5 1.5t-91.5 -1t-92.5 -4q0 -43 0.5 -79.5t1 -68.5t1.5 -61.5t3 -58.5l63 -11q6 -20 0 -38h-241q-6 20 0 38l56 11q9 1 15 7.5t9.5 21.5t5 40.5t1.5 66.5v111.5t-1 120.5t-3 113.5
t-6 88.5l-82 11q-8 18 0 38h262q8 -21 0 -38l-53 -11q-8 -2 -13.5 -8.5t-10 -29t-6.5 -65.5t-2 -118v-24q94 -5 193 -5.5t202 5.5q-1 72 -2.5 137.5t-6.5 107.5l-65 11q-8 18 0 38h252q7 -17 -1 -38l-51 -11q-12 -3 -20 -10.5t-12.5 -30t-6 -65t-1.5 -115.5q0 -60 0.5 -109
t1 -90.5t1.5 -77.5t3 -72l82 -11q6 -18 0 -38h-253z" />
    <glyph glyph-name="afii10032" unicode="&#x41e;" horiz-adv-x="788" 
d="M778 364q0 -107 -34 -180.5t-86.5 -119.5t-116 -66.5t-122.5 -20.5q-72 0 -135 22.5t-109 66t-72.5 108t-26.5 148.5q0 97 36.5 167t93.5 114t126 65t133 21q54 0 109.5 -20.5t101 -61.5t74 -101.5t28.5 -141.5zM167 364q0 -77 24.5 -137.5t66 -102.5t96.5 -64.5
t115 -22.5q33 0 55 5.5t53 17.5q21 12 40.5 34t35.5 53.5t25.5 73t9.5 93.5q0 77 -24.5 136t-65 98.5t-93 60t-109.5 20.5q-34 0 -63 -6.5t-55 -19.5q-23 -15 -43 -38t-35 -53.5t-24 -67.5t-9 -80z" />
    <glyph glyph-name="afii10033" unicode="&#x41f;" horiz-adv-x="824" 
d="M799 667q7 -16 0 -38l-52 -11q-12 -3 -19.5 -9.5t-12 -28.5t-6 -65t-1.5 -118v-109t1 -90.5t1.5 -77.5t2.5 -72l83 -11q8 -20 0 -38h-249q-7 16 0 38l45 11q9 2 14.5 7t9 18.5t5 39.5t1.5 71v111.5t-1 119.5t-3 112t-6 88h-311q-8 0 -14 -5t-10 -26t-6 -65t-2 -122
q0 -60 0.5 -109t1 -90.5t1.5 -77.5t3 -72l63 -11q7 -19 1 -38h-241q-4 8 -5 17.5t4 20.5l56 11q9 1 15 6t9.5 19.5t5 40.5t1.5 70v111.5t-1 120.5t-3 113.5t-6 88.5l-82 11q-6 18 0 38h707z" />
    <glyph glyph-name="afii10034" unicode="&#x420;" horiz-adv-x="630" 
d="M101 -1q-6 18 0 38l54 11q10 2 17 9t10.5 34.5t5 84.5t1.5 159q0 88 -1 162.5t-4 125.5l-92 13q-7 18 0 31q20 2 49.5 3.5t62 3t66 3t61.5 2.5t48 1.5t26 0.5q101 0 153.5 -50.5t52.5 -139.5q0 -60 -26 -102.5t-71.5 -69.5t-107 -39t-132.5 -10q0 -63 2 -120t7 -102
l95 -11q7 -20 0 -38h-277zM274 325q44 -5 81.5 -5.5t71.5 7.5q52 23 72.5 61t20.5 82q0 34 -10.5 63.5t-32.5 50.5t-56 33t-81 12h-28.5t-31.5 -1q-1 -54 -3.5 -124t-2.5 -164v-15z" />
    <glyph glyph-name="afii10035" unicode="&#x421;" horiz-adv-x="661" 
d="M641 677l-23 -188q-22 -10 -39 0l-10 103q-10 7 -27 13.5t-37.5 11.5t-43 8t-43.5 3q-53 0 -83 -6t-55 -18q-18 -11 -37.5 -32.5t-36.5 -53.5t-28 -75t-11 -96q0 -64 18.5 -120.5t56.5 -98.5t95.5 -66.5t134.5 -24.5q50 0 87.5 14t72.5 31q7 -6 11 -14.5t2 -19.5
q-14 -9 -41 -21.5t-60 -23.5t-69 -18.5t-67 -7.5q-70 0 -130.5 22t-105.5 64.5t-70.5 104.5t-25.5 142q0 81 24.5 150t71 120t113.5 79.5t153 28.5q19 0 43 -2.5t49 -4.5t49.5 -1t45.5 9z" />
    <glyph glyph-name="afii10036" unicode="&#x422;" horiz-adv-x="618" 
d="M673 680l-33 -226q-23 -8 -44 0v161q-13 1 -40 2t-56.5 2t-56 1h-39.5q-2 -10 -3 -25.5t-2.5 -45.5t-2 -79t-0.5 -126q0 -84 0.5 -132t1.5 -76.5t2 -46t3 -39.5l79 -13q8 -21 0 -38h-263q-6 17 0 38l56 11q7 1 12.5 4t9.5 13t6.5 28.5t4.5 51.5t2.5 82t0.5 119
q0 127 -2 191t-4 83q-23 0 -51.5 -1t-54 -3t-43.5 -4.5t-19 -6.5l-52 -151q-21 -7 -40 0l30 227l12 8q27 -9 96 -15.5t177 -6.5q68 0 118.5 1.5t86.5 4.5t59 7t37 9z" />
    <glyph glyph-name="afii10037" unicode="&#x423;" horiz-adv-x="670" 
d="M296 -63q-12 0 -25.5 5t-24.5 14t-18 21.5t-7 28.5q0 21 17.5 44t48.5 31l45 -48q16 1 27.5 14.5t25.5 40.5q-15 27 -39 71.5t-51.5 97t-56.5 108.5t-55.5 106t-48 89t-33.5 58l-58 11q-8 18 0 38h244q8 -20 0 -38l-30 -11q-13 -5 -20 -14t-2 -25q19 -47 43 -100
t49.5 -105.5t50.5 -101t46 -85.5l8 -3q11 31 30.5 81t41 109.5t42 122.5t35.5 120l-60 11q-7 19 1 39h199q6 -20 0 -38l-27 -11q-8 -3 -15.5 -5.5t-14.5 -7t-14 -12.5t-16 -23q-14 -25 -34 -70.5t-43 -103.5t-48.5 -124t-51.5 -132q-16 -39 -33.5 -76t-37 -65t-42 -45
t-48.5 -17z" />
    <glyph glyph-name="afii10038" unicode="&#x424;" horiz-adv-x="813" 
d="M304 -47q-8 15 0 32l60 11q7 1 12.5 4t9.5 9.5t6.5 18.5t4.5 32l-29 2q-60 4 -113.5 20t-93 47t-62.5 79t-23 115q0 72 26 123.5t70.5 85t102 52t120.5 24.5q-1 18 -2 33t-2 27l-78 12q-6 18 0 32h249q7 -16 0 -33l-47 -10q-7 -2 -12 -3.5t-9 -7.5t-7 -17t-5 -32
q14 1 27.5 1.5t29.5 -1.5q51 -4 98.5 -19.5t84 -45t59 -75t22.5 -110.5q0 -72 -26 -125.5t-70 -90t-102 -57t-121 -25.5q0 -18 0.5 -34.5t1.5 -30.5l83 -11q8 -14 0 -32h-265zM719 327q0 65 -20.5 107.5t-54 68.5t-76.5 38.5t-89 16.5q-1 -26 -1 -60.5v-79.5q0 -81 1 -161
t3 -147q28 1 57 5t52 10q23 9 46 25t41 41t29.5 58.5t11.5 77.5zM161 343q0 -59 20 -100t53 -68t76 -41.5t89 -19.5q1 11 1 23.5v26.5v86.5t-0.5 103t-1.5 107.5t-2 100q-28 -1 -59 -4.5t-54 -8.5q-17 -8 -38 -23.5t-40 -40.5t-31.5 -60t-12.5 -81z" />
    <glyph glyph-name="afii10039" unicode="&#x425;" horiz-adv-x="756" 
d="M85 -1q-4 15 1 38l41 11q10 3 27.5 18.5t39 39t45 52.5t46 58.5t42.5 57.5l35 49q-2 3 -4.5 6t-4.5 7q-29 40 -64 87t-67 88.5t-55.5 71.5t-28.5 35l-57 11q-8 18 0 38h229q5 -10 4 -19.5t-4 -18.5l-35 -11q-8 -3 -5.5 -13.5t18 -35t46.5 -67.5t81 -111q15 21 39.5 54.5
t48.5 68t43.5 63.5t24.5 41l-46 8q-9 21 0 41h186q7 -20 0 -38l-40 -11q-18 -5 -49 -35t-64.5 -70.5t-65.5 -83t-53 -72.5l11 -14q28 -39 63 -85t67.5 -88.5t58.5 -75.5t38 -46l59 -11q10 -21 1 -38h-233q-6 18 0 38l40 11q8 2 6.5 9t-18.5 31t-52.5 71t-93.5 129
q-16 -23 -41 -58.5t-49.5 -71.5t-44 -66.5t-24.5 -42.5l47 -12q6 -20 0 -38h-189z" />
    <glyph glyph-name="afii10040" unicode="&#x426;" horiz-adv-x="869" 
d="M850 47l-37 -251q-26 -9 -51 0v130q0 37 -9 55t-41 18h-618q-10 16 0 39l54 10q13 2 20.5 8.5t12 28.5t6 65t1.5 119v109t-1 90.5t-2 77.5l-2 72l-83 11q-8 18 0 38h246q10 -19 1 -38l-44 -11q-9 -2 -14.5 -7t-8.5 -19t-4.5 -40t-1.5 -70v-111.5t1 -120t3 -112t6 -87.5
h335q8 0 13.5 5t9 26t5 65t1.5 122v109t-1 90.5t-2 77.5l-2 72l-64 11q-6 18 0 38h242q8 -19 1 -38l-57 -11q-9 -2 -15 -6.5t-9.5 -18t-5 -40t-1.5 -71.5v-110.5t1 -117.5t3 -109.5t6 -86.5z" />
    <glyph glyph-name="afii10041" unicode="&#x427;" horiz-adv-x="680" 
d="M650 667q8 -20 0 -38l-32 -11q-12 -4 -19.5 -9.5t-11 -22t-5 -50.5t-1.5 -95v-49v-76.5t0.5 -88t1 -83.5t1.5 -64.5t2 -30.5l68 -12q8 -20 -1 -38h-300q-6 19 1 38l79 11q21 3 33.5 8.5t19 22t8 49.5t1.5 90v76q-51 -18 -101 -28t-79 -10q-39 0 -76.5 9.5t-66.5 34.5
t-46.5 67t-17.5 107q0 16 0.5 38.5t0.5 44.5t-0.5 39t-2.5 22l-59 11q-8 20 0 38h212q5 -20 -3 -38l-36 -11q-8 -2 -13 -7t-9 -17.5t-5.5 -35t-1.5 -59.5q0 -99 39 -141.5t114 -42.5q36 0 77 6t74 18v83.5t-0.5 82t-1.5 69t-2 44.5l-54 11q-8 20 0 38h213z" />
    <glyph glyph-name="afii10042" unicode="&#x428;" horiz-adv-x="1074" 
d="M92 -1q-8 19 0 39l55 10q13 2 21 8.5t12.5 28.5t6.5 65t2 118v109t-1 90.5t-2 78t-2 72.5l-83 11q-5 18 0 38h246q6 -18 0 -38l-42 -11q-8 -3 -14 -8.5t-9.5 -20t-5 -40t-1.5 -68.5q0 -51 0.5 -111.5t1.5 -119.5t3 -111.5t6 -87.5h238q2 20 4 50.5t2 82.5v111.5t-1 120.5
t-3 113.5t-6 88.5l-72 11q-8 20 0 38h249q6 -21 -2 -38l-41 -10q-11 -3 -18 -9t-11.5 -28t-6.5 -65t-2 -120q0 -112 1 -195t3 -151h218q8 0 14 5t10.5 26.5t6.5 65t2 120.5v109t-1 90.5t-2 78t-3 72.5l-60 11q-7 22 0 38h239q3 -9 4 -18.5t-4 -19.5l-57 -11q-9 -2 -15 -7.5
t-9.5 -20t-4.5 -40.5t-1 -69q0 -51 0.5 -111.5t1.5 -120.5t3 -113t6 -88l82 -11q2 -9 2 -18.5t-2 -19.5h-958z" />
    <glyph glyph-name="afii10043" unicode="&#x429;" horiz-adv-x="1084" 
d="M1074 47l-37 -251q-24 -12 -50 0v133q0 18 -2 31.5t-9.5 22t-23 12.5t-42.5 4h-818q-6 19 0 39l55 10q13 2 21 9t13 29.5t7 65t2 116.5q0 60 -0.5 109t-1 90.5t-2 78t-2.5 72.5l-85 12q-6 9 -5.5 18t5.5 19h248q6 -20 0 -38l-42 -11q-8 -3 -14 -8t-9.5 -19.5t-5 -40.5
t-1.5 -69q0 -51 0.5 -111.5t1.5 -119.5t3 -111.5t6 -87.5h239q2 20 4 50.5t2 82.5v111.5t-1 120.5t-3.5 113.5t-6.5 88.5l-72 11q-5 18 0 38h249q8 -20 -1 -38l-42 -10q-11 -3 -18 -10t-11.5 -29.5t-6.5 -65.5t-2 -117q0 -112 1 -195t4 -151h217q8 0 14 5t10.5 26.5t7 65
t2.5 120.5q0 60 -0.5 109t-1 90.5t-2 78t-3.5 72.5l-60 11q-10 20 0 38h240q6 -18 -1 -38l-57 -11q-9 -2 -15 -6.5t-9 -18t-4.5 -40t-1.5 -72.5q0 -51 0.5 -110t1.5 -117t3 -109.5t6 -86.5z" />
    <glyph glyph-name="afii10044" unicode="&#x42a;" horiz-adv-x="737" 
d="M292 616q-23 0 -48.5 -0.5t-48 -2.5t-39.5 -5.5t-22 -8.5l-44 -167q-19 -7 -38 0l19 245l14 12q10 -5 29 -9t49.5 -7t76 -4.5t109.5 -1.5h144q9 -19 0 -36l-76 -13q-9 -3 -15 -10t-9.5 -30.5t-5.5 -69t-2 -125.5q19 3 40 6.5t42 6.5t39.5 4.5t32.5 1.5q35 0 68.5 -12.5
t60 -36t42.5 -57.5t16 -77q0 -63 -21.5 -105t-62 -67.5t-100.5 -36.5t-136 -11h-202q-10 16 0 39l60 10q11 1 18 7t11 26t5.5 60t1.5 110q0 49 -0.5 99.5t-2 98t-3 90.5t-2.5 77zM467 350q-17 0 -39.5 -2t-42.5 -6v-8q0 -75 1.5 -147.5t3.5 -135.5q54 -8 102 -4t77 13
q29 17 47.5 51t18.5 83q0 33 -11.5 61.5t-33 49.5t-53 33t-70.5 12z" />
    <glyph glyph-name="afii10045" unicode="&#x42b;" horiz-adv-x="950" 
d="M92 -1q-7 17 -1 38l71 11q11 1 17.5 8.5t10.5 29t5 63t1 111.5q0 99 -1.5 194t-3.5 164l-80 11q-8 17 0 38h250q5 -21 -2 -38l-45 -11q-9 -3 -15 -9t-9.5 -28.5t-5.5 -66.5t-2 -122q18 3 38 6.5t39 6.5t36.5 5t30.5 2q35 0 68.5 -13.5t60 -38t42.5 -59t16 -77.5
q0 -63 -19 -106t-57 -69.5t-96 -38t-136 -11.5h-213zM658 -1q-5 20 2 38l53 14q10 2 17.5 6.5t11.5 17.5t6 38t2 70v111.5t-1 120.5t-3 113.5t-6 88.5l-75 12q-8 18 0 38h254q7 -20 1 -39l-45 -10q-11 -3 -19 -9.5t-12.5 -29t-6.5 -65.5t-2 -118q0 -60 1 -108.5t2 -89
t2.5 -76t3.5 -71.5l79 -14q11 -21 0 -38h-265zM356 359q-34 0 -74 -8v-7q0 -76 1 -152.5t3 -140.5q54 -8 102.5 -4t76.5 13q29 19 43 55.5t14 82.5q0 33 -10 62.5t-31 51.5t-52 34.5t-73 12.5z" />
    <glyph glyph-name="afii10046" unicode="&#x42c;" horiz-adv-x="643" 
d="M92 -1q-7 18 -1 38l71 11q11 1 17.5 8.5t10.5 29t5 63t1 111.5q0 99 -1.5 194t-3.5 164l-80 11q-8 20 0 38h250q5 -22 -2 -38l-45 -11q-9 -3 -15 -9t-9.5 -28.5t-5.5 -66.5t-2 -122q21 3 46 6.5t48.5 6.5t42 5t26.5 2q35 0 68.5 -13.5t60 -38t42.5 -59t16 -77.5
q0 -60 -22.5 -102.5t-65 -69.5t-103 -40t-135.5 -13h-214zM375 359q-17 0 -43.5 -2t-49.5 -6v-7q0 -76 1 -153t3 -140q54 -8 102.5 -4t76.5 13q40 19 58 58t18 80q0 33 -11.5 62.5t-33 51.5t-52 34.5t-69.5 12.5z" />
    <glyph glyph-name="afii10047" unicode="&#x42d;" horiz-adv-x="664" 
d="M135 689q17 -9 42 -10t52.5 1.5t55.5 5.5t52 3q69 0 127 -20.5t100 -61.5t66 -102.5t24 -144.5q0 -96 -29 -166.5t-79.5 -116.5t-117.5 -68.5t-142 -22.5q-52 4 -99 19.5t-75.5 39.5t-31.5 54.5t33 65.5q15 -14 38.5 -34t54.5 -39t67.5 -32t76.5 -13q35 0 57 6t36 12
q15 7 35.5 27t39 51.5t31.5 74.5t14 97q-44 1 -87.5 2t-79.5 1t-62.5 -1.5t-35.5 -5.5l-30 -72q-19 -6 -35 1l15 192q16 8 39 3l9 -65q51 -5 121.5 -5t143.5 5q-12 128 -83 193.5t-189 65.5q-35 0 -62.5 -3.5t-38.5 -10.5l-46 -152q-17 -6 -35 0l9 216z" />
    <glyph glyph-name="afii10048" unicode="&#x42e;" horiz-adv-x="1058" 
d="M1058 352q0 -77 -20 -135t-51.5 -100t-71 -69t-79.5 -43t-76.5 -22t-60.5 -6q-66 0 -122.5 24t-98 69t-65 109t-23.5 143v1q-30 1 -58.5 0.5t-59.5 -2.5q0 -87 1.5 -150.5t3.5 -122.5l64 -11q5 -19 0 -38h-250q-5 20 3 38l63 11q9 1 15 5.5t9.5 19t5 40.5t1.5 71v111
t-1 119t-3 111t-6 87l-81 11q-10 22 0 45h258q11 -24 0 -45l-50 -11q-8 -2 -14 -8t-10.5 -27t-6.5 -63t-2 -117v-26q31 -2 61 -3t59 1q6 70 29.5 120.5t56 86.5t71.5 58t77 34t71 16.5t54 4.5q53 0 107.5 -21t99 -63t72.5 -105t28 -148zM480 362q0 -77 22.5 -137t60.5 -102
t88 -64t106 -22q30 0 52.5 5.5t45.5 14.5q17 10 37 31t36.5 52t27.5 71.5t11 90.5q0 79 -22.5 140t-61 102.5t-88.5 63t-105 21.5q-16 0 -33.5 -2t-33.5 -6t-29.5 -8.5t-20.5 -9.5q-16 -14 -32.5 -35.5t-30 -51.5t-22 -68.5t-8.5 -85.5z" />
    <glyph glyph-name="afii10049" unicode="&#x42f;" horiz-adv-x="679" 
d="M653 667q9 -18 0 -38l-59 -11q-11 -2 -18 -8t-10.5 -26t-5 -59.5t-1.5 -108.5q0 -49 0.5 -100t1 -100t1.5 -92t2 -76l84 -11q7 -18 1 -38h-254q-6 18 0 38l46 11q9 2 15 9t10 31.5t6 72t2 129.5q-21 -2 -42.5 -2.5t-38.5 -0.5q-9 -1 -29 -25t-46 -60.5t-57 -79.5t-62 -82
q-32 -39 -57 -54.5t-53 -15.5h-43q-3 11 0 20q17 14 32.5 28.5t37.5 43.5q23 31 47.5 65t48 65t44 57.5t35.5 43.5l1 6q-19 4 -43 15.5t-45 33t-35.5 53.5t-14.5 76q0 58 23.5 95t64.5 58t97 29t121 8h193zM416 328q14 0 29 0.5t29 2.5v3q0 75 -1.5 146.5t-3.5 134.5
q-53 8 -91.5 3.5t-66.5 -13.5q-17 -14 -29.5 -27.5t-20.5 -28.5t-12 -33.5t-4 -42.5q0 -33 15.5 -60t40 -46t55 -29t60.5 -10z" />
    <glyph glyph-name="afii10065" unicode="&#x430;" horiz-adv-x="501" 
d="M476 52q7 -17 0 -31l-84 -30q-30 0 -44.5 22t-19.5 57q-18 -15 -43.5 -30t-51 -27t-47.5 -19t-35 -7q-24 0 -43.5 8.5t-33.5 22.5t-22 32t-8 38q0 50 28 82t93 50l57 15q21 6 53 14t56 13q1 11 1 22v22q0 57 -23.5 86.5t-61.5 29.5q-6 0 -17.5 -1t-24.5 -4t-26 -7.5
t-23 -10.5v-73q-13 -14 -29 -18.5t-29.5 -1.5t-23 14.5t-9.5 29.5q0 23 18 45.5t50.5 40t76 28.5t94.5 11q28 0 48 -12.5t33 -34.5t19.5 -52.5t6.5 -65.5q0 -37 -4 -88t-4 -99q0 -32 9 -50.5t28 -20.5h36zM325 131q0 22 0.5 42t1.5 38q-23 -2 -56 -6t-58 -9l-47 -9
q-23 -14 -30.5 -33t-7.5 -36q0 -35 18 -53t49 -18q8 0 24 4.5t34.5 12t37.5 18.5t34 25v24z" />
    <glyph glyph-name="afii10066" unicode="&#x431;" horiz-adv-x="541" 
d="M100 320q16 25 40 46t52.5 37.5t60.5 26.5t65 13q38 0 73.5 -14.5t63.5 -41.5t44.5 -65.5t16.5 -86.5q0 -56 -22 -101.5t-57 -78t-79.5 -50t-90.5 -17.5q-51 0 -92 21.5t-70.5 60t-45.5 90.5t-16 112q0 57 12.5 113.5t39 104.5t68 85t100.5 55q26 9 51 14t46.5 9.5
t38.5 8.5t28 11l19 28q17 1 31 -11l-21 -54q-8 -25 -35 -43.5t-80 -27.5q-64 -11 -117.5 -35t-80.5 -62q-14 -20 -29 -57t-20 -91h6zM127 267q0 -51 15.5 -92t40 -69t54.5 -43t59 -15q22 0 36 1.5t35 10.5q12 7 23.5 20.5t20.5 32.5t15 41.5t6 48.5q0 42 -13.5 75t-37 56.5
t-54.5 35.5t-65 12q-21 0 -44.5 -11.5t-43.5 -28.5t-33.5 -37t-13.5 -38z" />
    <glyph glyph-name="afii10067" unicode="&#x432;" horiz-adv-x="529" 
d="M35 424q-6 20 1 37l88 3q15 0 38 1.5t46.5 2.5t44.5 2t32 1q31 0 61.5 -4.5t55.5 -16.5t40.5 -33.5t15.5 -55.5q0 -42 -27.5 -72.5t-72.5 -37.5v-4q57 -2 90.5 -31t33.5 -75q0 -48 -19 -76t-56 -43t-91.5 -19t-126.5 -4h-146q-9 20 0 38l43 11q10 3 16.5 7.5t10.5 22.5
t5.5 55t1.5 104q0 44 -0.5 89.5t-2.5 85.5zM267 220q-14 0 -33 -1t-37 -3v-40v-31t1 -34t2 -33t3 -27q9 -3 26 -4t36 -1t38.5 1t34.5 3q21 8 39.5 25t18.5 51q0 54 -36 74t-93 20zM202 418q-1 -8 -1.5 -11t-1 -6.5t-1 -10t-1 -22t-0.5 -42v-69.5q12 0 26.5 -0.5t27.5 -1
t24 -0.5h16q14 0 28.5 6t26.5 16.5t20 27t8 37.5q0 47 -34.5 63.5t-91.5 17.5q-14 0 -24.5 -1t-21.5 -4z" />
    <glyph glyph-name="afii10068" unicode="&#x433;" horiz-adv-x="455" 
d="M442 467l-32 -197q-21 -11 -40 0v130q-17 2 -62.5 6.5t-98.5 4.5q-2 -10 -3.5 -28t-2.5 -40.5t-2 -48.5t-1 -52q0 -32 0.5 -58t1.5 -48.5t2 -43t3 -42.5l90 -13q9 -20 0 -38h-248q-9 17 1 38l33 11q10 4 17.5 9t12.5 23t7 56t2 108q0 24 -0.5 50t-1.5 49.5t-2 42.5t-2 28
l-81 12q-5 19 1 37h129q73 0 119.5 1t75.5 2.5t45 3.5t30 5z" />
    <glyph glyph-name="afii10069" unicode="&#x434;" horiz-adv-x="556" 
d="M503 463q8 -18 0 -38l-31 -11q-13 -4 -21.5 -9t-13.5 -22.5t-7 -53.5t-2 -101v-39.5t1 -46.5t3 -47t5 -41l96 -11l-39 -211q-24 -10 -42 0v95q0 39 -19 55.5t-54 16.5h-304l-46 -167q-21 -10 -41 0v214h50q24 0 42 17.5t31 47t21.5 67.5t13 79t5.5 81.5t0 74.5l-79 11
q-8 20 0 39h431zM292 49q19 0 30.5 4t17.5 22t8 55t2 103q0 63 -2 112t-3 66h-102q-19 0 -26.5 -17.5t-11 -47t-5 -67.5t-8 -78t-20.5 -79.5t-42 -72.5h162z" />
    <glyph glyph-name="afii10070" unicode="&#x435;" horiz-adv-x="507" 
d="M44 208q0 65 24 115t60.5 83.5t81 51t86.5 17.5q31 0 60 -10.5t51.5 -30t37 -49t15.5 -66.5q-5 -8 -14.5 -14.5t-20.5 -12t-22.5 -10t-20.5 -6.5l-250 -67q7 -44 27 -74.5t46.5 -50t57.5 -28.5t60 -9q33 0 64.5 13.5t55.5 32.5q19 -10 21 -38q-17 -13 -39.5 -25
t-48 -21.5t-52.5 -15.5t-54 -6q-50 0 -91.5 16.5t-71.5 45.5t-46.5 70t-16.5 89zM184 396q-20 -18 -36.5 -48.5t-18.5 -84.5l182 33q62 12 62 25q0 16 -8 33t-23 30.5t-37.5 22t-50.5 8.5q-22 0 -40.5 -5.5t-29.5 -13.5z" />
    <glyph glyph-name="afii10072" unicode="&#x436;" horiz-adv-x="738" 
d="M454 463q6 -18 0 -38l-30 -11q-6 -2 -10 -6t-6.5 -20t-4 -47.5t-1.5 -88.5q10 0 21.5 1.5t16.5 3.5q19 8 36.5 24t34.5 37t34.5 46t37.5 50l-44 11q-8 20 0 38h163q6 -18 0 -38l-40 -11q-11 -3 -28 -21t-37 -41.5t-41.5 -48.5t-41.5 -42v-5q25 -18 49.5 -49t50 -65
t52.5 -67.5t57 -56.5q3 -8 2.5 -14.5t-2.5 -14.5h-73q-23 11 -45 32.5t-42 47.5t-37.5 53.5t-33 50t-28.5 37t-22 14.5h-18t-22 1q0 -46 1 -90.5t6 -86.5l37 -11q8 -20 0 -38h-163q-8 17 0 38l27 11q7 3 11.5 8.5t7.5 22.5t4 50.5t1 93.5q-11 -1 -22.5 -1h-17.5
q-11 0 -26.5 -17.5t-33 -43t-37.5 -56t-41 -56t-43 -43t-44 -17.5h-51q-9 13 1 27q27 24 51.5 55.5t49 65t50.5 65.5t56 56v4q-24 16 -47 39.5t-43 47t-36 41.5t-26 24l-41 11q-8 20 0 38h161q7 -19 0 -38l-17 -11q-4 -3 -5 -11.5t4 -16.5q31 -42 62.5 -77.5t61.5 -50.5
q5 -2 14.5 -4t19.5 -3q-1 43 -2.5 84.5t-3.5 78.5l-38 11q-7 18 0 38h164z" />
    <glyph glyph-name="afii10073" unicode="&#x437;" horiz-adv-x="473" 
d="M88 141q8 -13 22 -30t36 -32.5t52.5 -26.5t70.5 -11q13 1 26 6.5t23.5 15t17 23.5t6.5 33q0 30 -14.5 51.5t-39 34t-56 15t-65.5 -4.5l-3 4q-2 24 6.5 33.5t24.5 9.5q21 0 43 4.5t40 14t29.5 25t11.5 37.5q0 42 -26 60t-66 18q-35 0 -57.5 -6t-39.5 -18l-32 -92
q-15 -6 -30 0l10 164l11 5q16 -5 41 -5.5t50.5 1t48.5 3t36 1.5q21 0 45 -3.5t44.5 -14.5t34 -30.5t13.5 -50.5q0 -38 -25 -69t-80 -48v-4q57 -1 92.5 -28t35.5 -81q0 -41 -19 -70.5t-49.5 -48.5t-70 -28.5t-80.5 -9.5q-34 0 -62.5 9t-49 23.5t-33 32t-14.5 34.5t7.5 31.5
t33.5 22.5z" />
    <glyph glyph-name="afii10074" unicode="&#x438;" horiz-adv-x="603" 
d="M233 463q7 -20 0 -38l-30 -11q-9 -3 -14.5 -9t-8.5 -23.5t-4 -51t-1 -92.5v-137l9 1q4 9 23.5 36t45.5 63.5t56.5 78t57.5 78.5t47 65.5t26 39.5q18 8 36.5 11t35.5 3q-2 -45 -2 -113v-143q0 -50 0.5 -96t5.5 -75l51 -13q8 -20 0 -38h-191q-2 9 -1.5 18.5t4.5 19.5l32 11
q6 2 9.5 6.5t6 21t3.5 49.5t1 93v144h-8q-14 -23 -45 -64.5t-68 -92t-76 -104t-69 -101.5q-17 -8 -35 -11t-35 -1q1 21 1.5 51t0.5 63.5v68v63.5v39t-0.5 48t-1.5 49t-3 44l-59 11q-7 21 -1 38h201z" />
    <glyph glyph-name="afii10075" unicode="&#x439;" horiz-adv-x="603" 
d="M233 463q7 -20 0 -38l-30 -11q-9 -3 -14.5 -9t-8.5 -23.5t-4 -51t-1 -92.5v-137l9 1q4 9 23.5 36t45.5 63.5t56.5 78t57.5 78.5t47 65.5t26 39.5q18 8 36.5 11t35.5 3q-2 -45 -2 -113v-143q0 -50 0.5 -96t5.5 -75l51 -13q8 -20 0 -38h-191q-2 9 -1.5 18.5t4.5 19.5l32 11
q6 2 9.5 6.5t6 21t3.5 49.5t1 93v144h-8q-14 -23 -45 -64.5t-68 -92t-76 -104t-69 -101.5q-17 -8 -35 -11t-35 -1q1 21 1.5 51t0.5 63.5v68v63.5v39t-0.5 48t-1.5 49t-3 44l-59 11q-7 21 -1 38h201zM287 620q19 -8 42 -8t46.5 7t45 21t38.5 34q15 -3 23 -21
q-8 -15 -23.5 -32.5t-38.5 -32.5t-53 -24.5t-66 -9.5q-51 0 -84.5 25.5t-33.5 62.5q0 13 7.5 24t19.5 17.5t27.5 8t32.5 -2.5z" />
    <glyph glyph-name="afii10076" unicode="&#x43a;" horiz-adv-x="524" 
d="M241 463q7 -19 -2 -38l-22 -11q-7 -3 -12.5 -9t-9 -22.5t-6 -48t-2.5 -87.5q6 0 13.5 0.5t11.5 2.5q18 6 40.5 27t44 46.5t41 51t32.5 41.5l-30 7q-7 21 0 40h163q8 -17 0 -38l-57 -12q-13 -3 -33 -22.5t-42 -44t-44 -50t-39 -40.5v-4q25 -13 53 -45t55.5 -68t54.5 -69.5
t50 -49.5q8 -13 0 -31h-56q-19 1 -41 18t-44 42t-43 54t-40.5 53.5t-36 41t-27.5 17.5q-7 0 -13.5 -0.5t-12.5 -1.5q0 -43 1.5 -83.5t7.5 -80.5l44 -12q8 -20 0 -38h-197q-8 18 0 39l40 10q9 2 14 8.5t8 25t4 54.5t1 97q0 48 -0.5 94.5t-4.5 86.5l-63 11q-4 10 -3 19.5
t4 18.5h198z" />
    <glyph glyph-name="afii10077" unicode="&#x43b;" horiz-adv-x="559" 
d="M518 463q8 -18 0 -38l-38 -11q-13 -4 -21.5 -9t-13 -22t-6 -51t-1.5 -97v-44t0.5 -50.5t1.5 -49t3 -41.5l67 -13q8 -20 0 -38h-209q-2 8 -2 17.5t2 20.5l29 11q8 3 13.5 9.5t9 25t5 54t1.5 97.5q0 70 -1.5 110t-2.5 68h-126q0 -80 -10 -157.5t-31 -139t-54.5 -99.5
t-81.5 -38q-22 0 -36.5 15t-17.5 34.5t7.5 38t39.5 26.5l41 -20q25 7 43 45t29 89t15.5 107t1.5 98l-86 12q-6 22 0 40h429z" />
    <glyph glyph-name="afii10078" unicode="&#x43c;" horiz-adv-x="702" 
d="M584 414q-1 -13 0 -39.5t3.5 -60.5t5.5 -72.5t7 -75t8.5 -67.5t8.5 -51l57 -11q7 -18 0 -38h-199q-6 17 -1 38l39 11q7 3 9.5 29.5t1 71.5t-5.5 106t-8 132l-9 2q-9 -24 -26.5 -69t-38 -97t-40 -102.5t-32.5 -85.5q-10 -8 -22 -11.5t-26 -2.5q-16 41 -35 90t-38.5 98.5
t-37 95.5t-30.5 81l-14 -1q-3 -30 -5.5 -69.5t-4.5 -84.5t-4 -91.5t-4 -89.5l45 -13q6 -20 0 -38h-165q-8 18 0 38l38 11q7 2 13 7.5t11.5 18.5t10 37t8 63.5t7 97.5t7.5 139l-54 14q-5 21 1 38h151q6 -11 16.5 -36.5t23.5 -58t28 -68.5t28.5 -69t24.5 -59t18 -39h5
q6 15 16.5 41.5t23.5 59t26 67.5t25 67t21 57t13 38h148q7 -18 0 -36z" />
    <glyph glyph-name="afii10079" unicode="&#x43d;" horiz-adv-x="638" 
d="M592 463q5 -20 -2 -38l-29 -11q-12 -5 -19.5 -10.5t-11 -22.5t-5 -51.5t-1.5 -96.5v-53t0.5 -56t1.5 -47.5t3 -26.5l68 -13q5 -22 -3 -38h-210q-8 18 0 38l33 11q7 3 12.5 7t9 21t5.5 51.5t2 98.5q-33 -10 -68 -15t-68 -6.5t-63 -0.5t-55 3q0 -41 1 -80t5 -77l44 -13
q6 -21 -2 -38h-198q-9 19 0 39l30 10q13 4 20.5 11.5t12 26.5t6 53.5t1.5 93.5q0 48 -0.5 94.5t-4.5 86.5l-63 11q-6 20 0 38h203q6 -17 -1 -38l-27 -11q-7 -3 -12 -7t-8 -18.5t-5 -44t-2 -82.5q60 -8 125.5 -8t128.5 11q0 40 -1 78t-5 71l-50 11q-6 17 1 38h201z" />
    <glyph glyph-name="afii10080" unicode="&#x43e;" horiz-adv-x="584" 
d="M538 245q0 -61 -21 -109t-57 -81t-84.5 -50.5t-103.5 -17.5q-48 0 -90 18t-72.5 49.5t-48 73.5t-17.5 90q0 55 21.5 102.5t59 81.5t87 53.5t106.5 19.5q49 0 90 -17.5t69.5 -48.5t44.5 -73t16 -91zM129 241q0 -45 16 -82t42.5 -63.5t59.5 -41t66 -14.5q21 0 37.5 2.5
t33.5 11.5q11 8 23 22.5t22.5 35.5t17.5 48.5t7 60.5q0 45 -15 82t-40 63.5t-58.5 41t-70.5 14.5q-20 0 -34 -3.5t-27 -8.5q-14 -9 -28 -24.5t-25.5 -36.5t-19 -48t-7.5 -60z" />
    <glyph glyph-name="afii10081" unicode="&#x43f;" horiz-adv-x="618" 
d="M575 463q5 -18 0 -38l-35 -11q-12 -4 -19 -8.5t-11 -21.5t-5 -52t-1 -99v-53t0.5 -56t2 -47.5t3.5 -26.5l67 -13q6 -20 0 -38h-208q-9 18 0 38l28 11q7 3 12.5 8t9 22.5t5.5 53.5t2 101q0 48 -1.5 93t-6.5 85h-198q-7 0 -12 -3.5t-8.5 -21t-5 -53.5t-1.5 -100
q0 -48 1 -93t7 -90l43 -13q8 -18 0 -38h-202q-9 18 0 38l32 11q13 4 21 10.5t12.5 24.5t6 53t1.5 97q0 48 -2 94.5t-6 86.5l-63 11q-6 20 0 38h531z" />
    <glyph glyph-name="afii10082" unicode="&#x440;" horiz-adv-x="583" 
d="M32 -239q-8 17 0 38l47 11q7 2 13 5.5t10 16t6 36.5t2 66v122q0 81 -1 139.5t-3.5 99.5t-6.5 66t-11 38h-49q-9 19 0 36l148 39l8 -5q-1 -13 -1.5 -26.5t-2.5 -31.5q51 32 93.5 47t59.5 16q43 0 79.5 -13.5t62 -40.5t40 -66.5t14.5 -91.5q0 -68 -24.5 -119.5t-66.5 -86
t-99 -51.5t-123 -17h-21t-20 1q0 -27 0.5 -55.5t1.5 -54t2 -44.5t2 -25l99 -11q8 -20 0 -38h-259zM186 50q39 -9 88 -9q32 0 61.5 4.5t51.5 15.5q10 8 22 21.5t22.5 33.5t17.5 47.5t7 65.5q0 49 -12.5 84t-34 57.5t-49.5 33t-59 10.5q-30 0 -59.5 -12.5t-52.5 -30.5
q-2 -32 -2.5 -77.5t-0.5 -111.5v-132z" />
    <glyph glyph-name="afii10083" unicode="&#x441;" horiz-adv-x="478" 
d="M431 88q11 -7 14.5 -16.5t5.5 -20.5q-17 -14 -40.5 -26t-49 -20.5t-50 -13t-42.5 -4.5q-53 0 -94.5 18t-70.5 48t-44.5 69.5t-15.5 82.5q0 73 24 124.5t61.5 83.5t83.5 46.5t90 14.5q22 -1 45 -7t42 -17t31 -26.5t12 -36.5q0 -14 -14 -30t-42 -21l-6 2q-15 38 -48 57
t-71 19q-14 0 -32.5 -2.5t-27.5 -8.5q-23 -15 -43 -51t-20 -95q0 -56 17.5 -95.5t44.5 -65t59 -37.5t61 -12q38 0 68.5 13.5t51.5 27.5z" />
    <glyph glyph-name="afii10084" unicode="&#x442;" horiz-adv-x="541" 
d="M520 466l-35 -196q-22 -11 -41 0v140q-14 1 -30.5 2.5t-34 2.5t-34 1.5t-29.5 0.5q-2 -10 -3 -29t-2.5 -43t-2 -50.5t-0.5 -52.5q0 -32 0.5 -58t1.5 -48.5t2 -43t3 -42.5l64 -13q5 -21 -2 -38h-224q-3 9 -3.5 19t4.5 20l36 10q11 3 18.5 8.5t12 24.5t6.5 57t2 106
q0 24 -0.5 50.5t-1.5 50.5t-2 43.5t-2 28.5q-39 0 -62 -1t-35 -3t-16.5 -5t-6.5 -7l-39 -131q-21 -11 -38 0l14 196l9 11q16 -1 30.5 -3.5t37 -4.5t59 -4t96.5 -2q67 0 109.5 1.5t68.5 3t38.5 3.5t20.5 4z" />
    <glyph glyph-name="afii10085" unicode="&#x443;" horiz-adv-x="528" 
d="M532 463q6 -20 0 -38l-34 -11q-5 -2 -20 -31t-36 -77.5t-46.5 -111.5t-52.5 -133q-19 -50 -39 -103t-41.5 -98t-45 -75t-50.5 -34q-37 1 -51 24t-12 49q45 14 86 52.5t70 99.5q-20 41 -43 87t-46 92.5t-45 89.5t-40.5 78t-31.5 59t-19 32l-34 11q-9 20 0 38h218
q6 -18 0 -38l-34 -11q-9 -3 -17 -7.5t-8 -18.5q0 -16 12.5 -49.5t32.5 -77t44.5 -93t49.5 -96.5q29 75 59 164.5t56 177.5l-58 11q-8 20 0 38h176z" />
    <glyph glyph-name="afii10086" unicode="&#x444;" horiz-adv-x="732" 
d="M415 697q-2 -24 -4 -54t-4 -62.5t-3 -65.5t-2 -62q15 5 30.5 9t29.5 6.5t26 4t18 1.5q30 0 62.5 -13t59 -39.5t44 -65.5t17.5 -91q0 -66 -19 -116t-52.5 -83.5t-80.5 -52.5t-104 -24l-31 1q1 -34 2 -64.5t1.5 -54.5t1.5 -39.5t1 -19.5l48 -13q4 -10 5 -19t-4 -19h-192
q-6 20 0 38l34 11q7 3 13 7t10 17.5t6.5 40t2.5 74.5v60q-15 -5 -30.5 -9t-30 -6.5t-26 -4t-17.5 -1.5q-30 0 -62 12.5t-59 39t-44.5 66t-17.5 93.5q0 66 18.5 115t52.5 83t82 52.5t106 22.5l28 1v26q0 55 -3.5 85t-13.5 44l-51 2q-7 18 0 37l147 35zM281 48q12 0 24.5 0.5
t25.5 3.5v350q-14 5 -30.5 8.5t-35.5 3.5t-35 -3.5t-39 -13.5q-11 -8 -22.5 -21.5t-22 -33t-17 -44.5t-6.5 -55q0 -92 43.5 -143.5t114.5 -51.5zM402 55q15 -4 32 -5.5t34 -1.5q24 0 39.5 3t34.5 14q10 7 22 21t22 33.5t16.5 44.5t6.5 55q0 42 -11.5 78.5t-32 62.5t-49.5 41
t-65 15q-24 0 -49 -6v-20v-321v-14z" />
    <glyph glyph-name="afii10087" unicode="&#x445;" horiz-adv-x="537" 
d="M24 -1q-10 18 -1 38l42 11q13 3 34 21.5t44 44t45.5 54.5t39.5 54q-2 2 -3 4l-2 4q-23 34 -45.5 65t-42.5 55.5t-35 41.5t-21 22l-57 11q-6 20 0 38h208q8 -18 0 -38l-27 -10q-7 -3 -3.5 -13.5t15 -28t28 -40.5t36.5 -50q12 15 26 34t28 37t25 34t17 26l-34 11
q-8 21 0 38h162q8 -18 0 -38l-41 -11q-14 -4 -34.5 -20.5t-43 -40t-44.5 -51t-39 -51.5l10 -13q45 -65 84.5 -114.5t63.5 -75.5l59 -11q10 -18 0 -38h-213q-5 18 0 38l31 10q8 3 3.5 14.5t-17 30.5t-31.5 44t-40 54q-11 -16 -24.5 -35.5t-27.5 -39.5t-26.5 -37.5
t-20.5 -28.5l33 -12q9 -20 0 -38h-161z" />
    <glyph glyph-name="afii10088" unicode="&#x446;" horiz-adv-x="629" 
d="M249 463q9 -17 0 -38l-25 -11q-7 -3 -12.5 -8.5t-9 -23.5t-5.5 -54t-2 -99q0 -48 1.5 -93t6.5 -85h192q7 0 12.5 3.5t9 21t5 53t1.5 100.5q0 47 -0.5 94t-5.5 91l-45 11q-6 20 1 38h194q6 -17 1 -38l-26 -11q-12 -5 -20 -11.5t-12.5 -24t-6.5 -52.5t-2 -97q0 -94 9 -173
l105 -10l-42 -214q-24 -10 -44 0v73q0 49 -5 71.5t-34 22.5h-449q-8 17 0 38l38 11q13 4 20 8.5t11 21.5t5 52t1 99v53t-0.5 57.5t-2 48t-3.5 26.5l-66 11q-6 18 0 38h205z" />
    <glyph glyph-name="afii10089" unicode="&#x447;" horiz-adv-x="565" 
d="M518 463q7 -18 0 -38l-30 -11q-12 -4 -19.5 -11.5t-11.5 -26.5t-5.5 -52.5t-1.5 -90.5v-53t0.5 -56t2 -47.5t3.5 -26.5l67 -13q8 -20 0 -38h-253q-9 17 0 38l41 11q19 5 31 10.5t18.5 20.5t9 44t2.5 82q-45 -20 -80.5 -29t-54.5 -9q-31 0 -60 9t-51 28.5t-35.5 50.5
t-13.5 75q0 32 -0.5 53t-5.5 31l-48 11q-8 20 0 38h184q8 -18 0 -38l-24 -11q-8 -4 -13 -9t-7.5 -14t-3 -23t-0.5 -35q0 -57 31.5 -85t83.5 -28q22 0 47 4.5t51 15.5q0 46 -0.5 91t-4.5 83l-49 11q-8 18 0 38h200z" />
    <glyph glyph-name="afii10090" unicode="&#x448;" horiz-adv-x="839" 
d="M520 463q6 -18 0 -38l-31 -11q-7 -3 -12.5 -7t-9 -21.5t-5 -53t-1.5 -99.5q0 -45 0.5 -92.5t5.5 -89.5h150q8 0 13.5 4.5t8.5 22.5t4.5 54.5t1.5 100.5q0 48 -1.5 94.5t-5.5 86.5l-49 11q-6 18 0 38h204q3 -9 4 -18.5t-3 -19.5l-33 -11q-12 -4 -19.5 -8.5t-11.5 -21.5
t-5 -52t-1 -99v-53t0.5 -56t1.5 -47.5t3 -26.5l67 -13q9 -20 0 -38h-754q-5 20 0 38l36 11q13 4 21.5 9.5t12.5 23t5.5 52.5t1.5 100q0 48 -1 94.5t-5 86.5l-64 11q-8 23 0 38h198q8 -17 0 -38l-22 -11q-6 -3 -11 -8.5t-8.5 -23t-5.5 -52.5t-2 -97q0 -48 1 -92.5t7 -89.5
h161q4 5 7.5 16.5t5 32.5t2.5 53t1 80t-1.5 94.5t-6.5 86.5l-36 11q-8 18 0 38h181z" />
    <glyph glyph-name="afii10091" unicode="&#x449;" horiz-adv-x="846" 
d="M259 463q5 -23 -2 -38l-28 -11q-8 -3 -13 -7.5t-8.5 -22t-5 -53.5t-1.5 -102q0 -48 1.5 -93t5.5 -85h156q4 5 7.5 16.5t5 32.5t2.5 53t1 80t-2 94.5t-6 86.5l-35 11q-8 18 0 38l174 2q8 -21 1 -40l-27 -11q-6 -3 -11 -7.5t-8.5 -21.5t-5.5 -52.5t-2 -99.5q0 -42 0.5 -91
t4.5 -91h149q7 0 12.5 3.5t9 21t5 53t1.5 100.5q0 47 -1 94t-7 91l-43 11q-7 20 0 38h195q5 -9 5 -18.5t-3 -19.5l-27 -11q-12 -5 -20 -10.5t-12.5 -22.5t-6.5 -52.5t-2 -99.5q0 -94 9 -173l105 -10l-47 -214q-11 -5 -21 -5t-21 5v85q0 47 -5.5 64.5t-31.5 17.5h-665
q-5 18 2 38l42 11q12 3 19.5 8t11.5 22t5 52t1 99q0 23 -0.5 53t-1.5 57.5t-2.5 48t-3.5 26.5l-65 11q-9 20 0 38h210z" />
    <glyph glyph-name="afii10092" unicode="&#x44a;" horiz-adv-x="582" 
d="M197 413q-32 0 -53.5 -1t-35 -4t-20.5 -8.5t-10 -15.5l-34 -114q-19 -6 -34 0l21 197l11 8q11 -3 24 -5.5t35.5 -4t57 -2t87.5 -0.5h113q7 -19 0 -40l-56 -9q-6 -1 -10 -4.5t-6.5 -16.5t-4 -39t-2.5 -73q18 4 37.5 8t37.5 7t33.5 4.5t25.5 1.5q31 0 57.5 -10.5
t45.5 -29.5t30 -45.5t11 -57.5q0 -36 -15.5 -65.5t-49.5 -50.5t-88 -32.5t-130 -11.5h-165q-6 18 0 38l53 11q12 3 19.5 7.5t12 22.5t6.5 55t2 104q0 44 -1 90.5t-5 85.5zM360 250q-18 0 -37.5 -1.5t-42.5 -3.5v-98q0 -32 0.5 -52t5.5 -37q9 -4 23.5 -6.5t32 -3t37 1.5
t37.5 8q7 3 16.5 10.5t18.5 18t15.5 25.5t6.5 33q0 52 -32.5 78.5t-80.5 26.5z" />
    <glyph glyph-name="afii10093" unicode="&#x44b;" horiz-adv-x="732" 
d="M46 425q-6 21 2 38h245q8 -18 0 -38l-66 -11q-6 -1 -10 -4.5t-6.5 -16.5t-4 -38.5t-2.5 -70.5q18 4 37.5 7.5t37 6t31 4t20.5 1.5q31 0 55.5 -12t41.5 -32t26 -45.5t9 -53.5q0 -38 -12.5 -68t-41.5 -50.5t-78.5 -31.5t-122.5 -11h-165q-5 18 0 38l45 11q12 3 19.5 8
t12 23t6.5 54.5t2 103.5q0 44 -1 91t-5 86zM686 463q6 -18 0 -38l-30 -11q-9 -3 -15 -8.5t-9 -23.5t-4 -52.5t-1 -96.5v-53t0.5 -56t2 -47.5t3.5 -26.5l55 -13q7 -17 2 -38h-199q-6 18 0 38l28 11q7 3 12.5 8.5t9.5 23.5t5.5 54t1.5 99q0 48 -1 94.5t-6 86.5l-49 11
q-5 21 2 38h192zM269 251q-29 0 -65 -3v-101q0 -32 1 -53t5 -38q18 -8 53.5 -9.5t71.5 11.5q17 7 29.5 29t12.5 59q0 49 -30 77t-78 28z" />
    <glyph glyph-name="afii10094" unicode="&#x44c;" horiz-adv-x="497" 
d="M35 425q-6 19 2 38h244q9 -20 0 -38l-65 -11q-6 -1 -10 -4.5t-7 -16.5t-4.5 -38.5t-2.5 -70.5q19 4 40 7.5t40 6t34 4t23 1.5q32 0 58 -12t45 -32t29 -45.5t10 -53.5q0 -76 -65 -118.5t-210 -42.5h-165q-5 9 -4.5 18.5t4.5 19.5l45 11q12 3 19.5 8t12 23t6 54.5
t1.5 103.5q0 44 -0.5 91t-4.5 86zM267 251q-14 0 -34 -0.5t-41 -2.5v-101q0 -32 1.5 -53t6.5 -38q9 -4 24 -6.5t33.5 -2.5t38 2.5t37.5 8.5q17 7 35 29t18 59q0 24 -9.5 43.5t-25.5 33t-38 21t-46 7.5z" />
    <glyph glyph-name="afii10095" unicode="&#x44d;" horiz-adv-x="495" 
d="M79 474q16 -9 39.5 -10t47.5 1t46.5 5.5t37.5 3.5q27 0 62 -10t65.5 -35t52 -66.5t21.5 -104.5q0 -74 -25 -125t-62.5 -83.5t-81.5 -47t-83 -14.5q-44 0 -83.5 15t-62 37.5t-21 48t40.5 47.5q9 -14 25.5 -29t38 -28.5t48.5 -22t57 -8.5q25 0 49 7q13 7 25.5 19.5t23 32
t17 46.5t8.5 64q-28 -6 -59.5 -5t-61.5 3.5t-57.5 4t-46.5 -3.5l-5 3q-3 23 22.5 41t66.5 18q31 0 69 -8t71 -10q-4 39 -20.5 69.5t-40 50.5t-52.5 30.5t-59 10.5q-20 0 -39.5 -4.5t-36.5 -14.5l-28 -101q-18 -11 -33 0l12 166z" />
    <glyph glyph-name="afii10096" unicode="&#x44e;" horiz-adv-x="802" 
d="M759 244q0 -51 -18 -97.5t-50 -82t-76 -56t-97 -20.5t-93.5 18.5t-68.5 49t-42.5 71t-15.5 84.5q-25 -5 -52 -7t-51 -1q0 -40 1.5 -78t6.5 -75l43 -13q7 -18 0 -38h-204q-7 20 2 38l32 11q12 4 20 9t12.5 22.5t6.5 53t2 100.5q0 48 -1.5 94.5t-6.5 86.5l-64 11
q-6 20 0 38h199q8 -20 0 -38l-21 -11q-6 -3 -11 -8t-9 -20t-6 -44.5t-2 -82.5q26 -2 53.5 -3t51.5 0q6 50 26 90.5t51 69t71 43.5t86 15q54 0 95.5 -18t70.5 -49t44 -73t15 -90zM381 241q0 -49 15 -85t38.5 -60t52 -36t56.5 -12q42 0 76 17q19 17 36.5 53t17.5 103
q0 45 -15 80.5t-39 60.5t-55.5 38.5t-64.5 13.5q-22 0 -38 -5t-33 -13q-27 -30 -37 -71t-10 -84z" />
    <glyph glyph-name="afii10097" unicode="&#x44f;" horiz-adv-x="521" 
d="M183 204q-20 3 -39 12t-33 23t-22.5 33.5t-8.5 43.5q0 51 25.5 80.5t67 44.5t95.5 18.5t111 3.5h100q7 -19 0 -40l-39 -9q-8 -2 -13 -7.5t-8 -24.5t-4.5 -56t-1.5 -100v-48t0.5 -50.5t1.5 -45.5t3 -33l53 -12q6 -20 0 -38h-189q-7 19 1 38l28 11q6 2 10.5 6t7.5 17.5
t4.5 42t1.5 79.5q-12 -1 -22 -1h-17q-19 0 -35 -16t-32.5 -39.5t-33.5 -51t-37.5 -51t-45 -39t-54.5 -15.5h-38q-8 15 0 30q20 10 38.5 29t37.5 44t40.5 55t48.5 62zM278 227q16 0 29.5 1t27.5 6q0 29 -0.5 52t-1 44t-1 40.5t-1.5 40.5q-11 3 -27 4.5t-33 1.5t-33 -1t-28 -4
q-16 -8 -30.5 -29t-14.5 -48q0 -31 11 -52t28 -33.5t37 -17.5t37 -5z" />
    <glyph glyph-name="afii10071" unicode="&#x451;" horiz-adv-x="507" 
d="M44 208q0 65 24 115t60.5 83.5t81 51t86.5 17.5q31 0 60 -10.5t51.5 -30t37 -49t15.5 -66.5q-5 -8 -14.5 -14.5t-20.5 -12t-22.5 -10t-20.5 -6.5l-250 -67q7 -44 27 -74.5t46.5 -50t57.5 -28.5t60 -9q33 0 64.5 13.5t55.5 32.5q19 -10 21 -38q-17 -13 -39.5 -25
t-48 -21.5t-52.5 -15.5t-54 -6q-50 0 -91.5 16.5t-71.5 45.5t-46.5 70t-16.5 89zM184 396q-20 -18 -36.5 -48.5t-18.5 -84.5l182 33q62 12 62 25q0 16 -8 33t-23 30.5t-37.5 22t-50.5 8.5q-22 0 -40.5 -5.5t-29.5 -13.5zM232 632q-1 -15 -9 -25.5t-20.5 -17.5t-27 -10.5
t-29.5 -3.5l-33 63q1 15 9.5 25.5t21.5 17.5t27.5 10t27.5 3zM425 634q-1 -14 -9 -24.5t-20 -17.5t-27 -10.5t-29 -3.5l-34 62q1 15 9.5 25.5t21 17.5t27 10t28.5 3z" />
    <glyph glyph-name="afii10099" unicode="&#x452;" horiz-adv-x="606" 
d="M525 263q0 -127 -16.5 -211t-44 -135.5t-63 -76t-74.5 -31.5q-27 0 -45 12.5t-23 29.5t4.5 33t37.5 24l72 -30q29 8 48.5 93.5t19.5 251.5q0 60 -13 93.5t-33 49.5t-43.5 19t-45.5 3q-34 0 -66 -10.5t-55 -21.5v-103q0 -91 3 -140.5t5 -64.5l48 -11q8 -18 0 -38h-194
q-8 20 0 38l28 11q8 3 14 8t10 24.5t6 59.5t2 114v247h-68q-13 25 0 50h68q0 25 -3.5 45.5t-10.5 33.5h-53q-7 19 0 37l150 34l5 -4q-3 -31 -5 -51.5t-3 -36t-1.5 -29t-0.5 -29.5h144q11 -23 0 -50h-144v-108q24 11 53 21t56 17.5t49.5 12t35.5 4.5q31 0 58 -12t46.5 -35
t30.5 -58t11 -80z" />
    <glyph glyph-name="afii10100" unicode="&#x453;" horiz-adv-x="455" 
d="M442 467l-32 -197q-21 -11 -40 0v130q-17 2 -62.5 6.5t-98.5 4.5q-2 -10 -3.5 -28t-2.5 -40.5t-2 -48.5t-1 -52q0 -32 0.5 -58t1.5 -48.5t2 -43t3 -42.5l90 -13q9 -20 0 -38h-248q-9 17 1 38l33 11q10 4 17.5 9t12.5 23t7 56t2 108q0 24 -0.5 50t-1.5 49.5t-2 42.5t-2 28
l-81 12q-5 19 1 37h129q73 0 119.5 1t75.5 2.5t45 3.5t30 5zM156 561l154 148q17 -5 28 -10t18 -12t11.5 -17t9.5 -23l-202 -110z" />
    <glyph glyph-name="afii10101" unicode="&#x454;" horiz-adv-x="479" 
d="M439 88q11 -7 14.5 -16.5t5.5 -20.5q-17 -14 -40.5 -26t-49 -20.5t-50 -13t-42.5 -4.5q-53 0 -94.5 18t-70.5 48t-44.5 69.5t-15.5 82.5q0 73 24 124.5t61.5 83.5t83.5 46.5t90 14.5q22 -1 45 -7t42 -17t31 -26.5t12 -36.5q0 -14 -14 -30t-42 -21l-6 2q-15 38 -48 57
t-71 19q-14 0 -32.5 -2.5t-27.5 -8.5q-23 -15 -43 -51t-20 -95v-3l196 10q9 -33 -2 -63l-191 11q7 -44 26 -75t44.5 -51t54 -29.5t54.5 -9.5q38 0 68.5 13.5t51.5 27.5z" />
    <glyph glyph-name="afii10103" unicode="&#x456;" horiz-adv-x="326" 
d="M234 625q-1 -17 -10 -28.5t-22.5 -19t-30 -11t-32.5 -3.5l-37 67q1 16 11 28t24.5 19.5t31 11t31.5 3.5zM222 480q-6 -63 -8 -127.5t-2 -142.5q0 -66 0.5 -105t2.5 -56l65 -12q6 -20 0 -38h-218q-5 20 2 38l37 11q10 3 16 9t9.5 22.5t5 47.5t1.5 85q0 45 -1 77t-3.5 54.5
t-6 36.5t-8.5 22l-46 1q-8 20 0 37l148 45z" />
    <glyph glyph-name="afii10104" unicode="&#x457;" horiz-adv-x="367" 
d="M160 632q-1 -15 -9 -25.5t-20.5 -17t-27 -10t-29.5 -3.5l-34 62q1 15 10 25.5t21.5 17.5t27 10t28.5 3zM332 635q-1 -15 -9 -25.5t-20 -17.5t-27 -10.5t-29 -3.5l-34 62q1 15 9.5 26t21 17.5t27 9.5t28.5 3zM243 480q-6 -63 -8 -127.5t-2 -142.5q0 -66 0.5 -105t2.5 -56
l65 -12q6 -20 0 -38h-218q-5 20 2 38l37 11q10 3 16 9t9.5 22.5t5 47.5t1.5 85q0 45 -1 77t-3.5 54.5t-6 36.5t-8.5 22l-46 1q-8 20 0 37l148 45z" />
    <glyph glyph-name="afii10106" unicode="&#x459;" horiz-adv-x="717" 
d="M477 414q-11 -3 -19 -7t-12.5 -16.5t-7 -37t-3.5 -68.5q33 8 66 13t49 5q33 0 59 -12t44 -32t27.5 -45.5t9.5 -53.5q0 -33 -12 -62t-41.5 -51t-78 -35t-121.5 -13h-143q-8 17 0 38l24 11q12 5 19.5 12t12 25t6.5 52.5t2 96.5q0 70 -1.5 110t-3.5 68h-124
q-2 -90 -11 -169.5t-28 -138t-50 -92.5t-78 -34q-24 0 -39.5 15.5t-18.5 35t8.5 38t41.5 25.5l55 -19q15 9 26.5 32.5t19.5 54t12.5 66.5t6.5 70.5t2 64.5t-1 50l-86 12q-6 22 0 40h427q6 -19 -1 -38zM435 235v-79t0.5 -50.5t2 -30.5t3.5 -19q9 -4 22.5 -6.5t29.5 -2.5
t34 2.5t36 8.5q17 7 30 29t13 59q0 49 -30 77t-79 28q-28 0 -62 -3v-13z" />
    <glyph glyph-name="afii10107" unicode="&#x45a;" horiz-adv-x="798" 
d="M379 425q-7 19 1 38h222q8 -18 0 -38l-66 -11q-6 -1 -10 -4.5t-6.5 -16.5t-4 -38.5t-2.5 -70.5q34 8 67 13.5t50 5.5q35 0 61.5 -12t44 -32t26.5 -45.5t9 -53.5q0 -76 -60.5 -118.5t-193.5 -42.5h-143q-5 9 -4.5 18.5t4.5 19.5l23 11q11 5 18 12t11.5 24.5t7 51t2.5 90.5
q-66 -20 -131 -22t-113 3q0 -41 1 -80t5 -77l44 -13q6 -21 -2 -38h-198q-9 19 0 39l30 10q13 4 20.5 10t12 24t6 53t1.5 98q0 48 -0.5 94.5t-4.5 86.5l-63 11q-6 20 0 38h203q6 -17 -1 -38l-27 -11q-7 -3 -12 -7t-8 -18.5t-5 -44t-2 -82.5q59 -8 121 -7.5t123 11.5
q0 38 -1 76.5t-4 71.5zM579 251q-29 0 -66 -3v-101q0 -32 1.5 -53t6.5 -38q17 -8 52 -9t71 11q13 6 28 30t15 65q0 44 -30 71t-78 27z" />
    <glyph glyph-name="afii10108" unicode="&#x45b;" horiz-adv-x="606" 
d="M195 697q-3 -31 -5 -51.5t-3 -36t-1.5 -29t-0.5 -29.5h144q11 -23 0 -50h-144v-110q24 12 53.5 22t57 18t51 12.5t36.5 4.5q28 0 54 -10t46 -31.5t31.5 -55.5t11.5 -81q0 -45 -1 -78.5t-2 -59.5t-2 -46t-1 -38l50 -10q9 -19 -1 -39h-200q-6 21 2 38l39 11q10 3 17 13
t10.5 30.5t5 53t1.5 80.5q0 91 -30.5 127t-95.5 36q-42 0 -76 -11t-57 -22v-102q0 -91 3 -140.5t5 -64.5l48 -11q8 -18 0 -38h-194q-8 20 0 38l28 11q8 3 14 8t10 24.5t6 59.5t2 114v247h-68q-13 25 0 50h68q0 25 -3.5 45.5t-10.5 33.5h-53q-7 19 0 37l150 34z" />
    <glyph glyph-name="afii10109" unicode="&#x45c;" horiz-adv-x="524" 
d="M241 463q7 -19 -2 -38l-22 -11q-7 -3 -12.5 -9t-9 -22.5t-6 -48t-2.5 -87.5q6 0 13.5 0.5t11.5 2.5q18 6 40.5 27t44 46.5t41 51t32.5 41.5l-30 7q-7 21 0 40h163q8 -17 0 -38l-57 -12q-13 -3 -33 -22.5t-42 -44t-44 -50t-39 -40.5v-4q25 -13 53 -45t55.5 -68t54.5 -69.5
t50 -49.5q8 -13 0 -31h-56q-19 1 -41 18t-44 42t-43 54t-40.5 53.5t-36 41t-27.5 17.5q-7 0 -13.5 -0.5t-12.5 -1.5q0 -43 1.5 -83.5t7.5 -80.5l44 -12q8 -20 0 -38h-197q-8 18 0 39l40 10q9 2 14 8.5t8 25t4 54.5t1 97q0 48 -0.5 94.5t-4.5 86.5l-63 11q-4 10 -3 19.5
t4 18.5h198zM202 561l154 148q17 -5 28 -10t18 -12t11.5 -17t9.5 -23l-202 -110z" />
    <glyph glyph-name="afii10110" unicode="&#x45e;" horiz-adv-x="528" 
d="M532 463q6 -20 0 -38l-34 -11q-5 -2 -20 -31t-36 -77.5t-46.5 -111.5t-52.5 -133q-19 -50 -39 -103t-41.5 -98t-45 -75t-50.5 -34q-37 1 -51 24t-12 49q45 14 86 52.5t70 99.5q-20 41 -43 87t-46 92.5t-45 89.5t-40.5 78t-31.5 59t-19 32l-34 11q-9 20 0 38h218
q6 -18 0 -38l-34 -11q-9 -3 -17 -7.5t-8 -18.5q0 -16 12.5 -49.5t32.5 -77t44.5 -93t49.5 -96.5q29 75 59 164.5t56 177.5l-58 11q-8 20 0 38h176zM253 620q19 -8 42 -8t46.5 7t45 21t38.5 34q15 -3 23 -21q-8 -15 -23.5 -32.5t-38.5 -32.5t-53 -24.5t-66 -9.5
q-51 0 -84.5 25.5t-33.5 62.5q0 13 7.5 24t19.5 17.5t27.5 8t32.5 -2.5z" />
    <glyph glyph-name="afii10193" unicode="&#x45f;" horiz-adv-x="624" 
d="M249 463q9 -17 0 -38l-25 -11q-7 -3 -12.5 -8.5t-9 -23.5t-5.5 -53.5t-2 -99.5q0 -48 1.5 -93t6.5 -85h192q7 0 12.5 3.5t9 21t5 53t1.5 100.5q0 47 -0.5 94t-5.5 91l-45 11q-6 20 1 38h194q6 -17 1 -38l-26 -11q-12 -5 -20 -11.5t-12.5 -24t-6.5 -52.5t-2 -97
q0 -94 9 -173l70 -11q11 -28 0 -46h-229l-17 -167q-24 -10 -45 0l-18 167h-230q-8 17 0 38l38 11q13 4 20 8.5t11 21.5t5 52t1 99v53t-0.5 57.5t-2 48t-3.5 26.5l-66 11q-6 18 0 38h205z" />
    <glyph glyph-name="uni0462" unicode="&#x462;" horiz-adv-x="581" 
d="M47 -1q-6 21 0 38l61 11q10 2 17 9.5t11 29t5.5 63t0.5 112.5l-1 192h-100q-10 25 0 48h65q20 0 28 8t8 27q0 22 -1 40t-4 41l-81 11q-8 20 0 38h248q5 -11 4 -20.5t-4 -17.5l-43 -11q-7 -2 -13 -6t-10.5 -15.5t-7 -34t-2.5 -60.5h170q4 -12 4 -24.5t-7 -23.5h-166
l-1 -95q19 3 41 6.5t42 6.5t36.5 5t24.5 2q35 0 68.5 -11.5t60 -34t42.5 -55.5t16 -76q0 -59 -20.5 -98.5t-60.5 -62.5t-100 -32.5t-138 -9.5h-193zM302 326q-16 0 -35.5 -2t-38.5 -5q-1 -75 0.5 -140t3.5 -128q54 -8 102.5 -4t76.5 13q29 19 43 50.5t14 65.5
q0 67 -45 108.5t-121 41.5z" />
    <glyph glyph-name="uni0463" unicode="&#x463;" horiz-adv-x="491" 
d="M204 697q-2 -16 -3.5 -29.5t-3 -33.5t-2.5 -50.5t-2 -80.5h153q10 -25 0 -48h-153l-1 -144q18 6 39.5 12t41.5 11t34.5 8.5t19.5 3.5q31 -2 57.5 -15t46 -34.5t30 -51.5t10.5 -64q0 -89 -65.5 -135.5t-211.5 -46.5h-161q-6 10 -5.5 19t5.5 19l44 11q8 2 15 5.5t12.5 12
t8.5 25t3 44.5v320h-83q-8 22 0 48h50q19 0 26 8.5t7 24.5q0 40 -4.5 62t-12.5 32h-46q-6 20 0 37l146 34zM269 294q-16 0 -36.5 -4.5t-40.5 -10.5v-27v-43.5t1 -57t2.5 -55t3.5 -37.5q9 -4 24.5 -7t34 -3.5t38.5 1.5t38 8q17 7 35 33t18 74q0 66 -34.5 97.5t-83.5 31.5z
" />
    <glyph glyph-name="afii10050" unicode="&#x490;" horiz-adv-x="494" 
d="M73 -1q-8 17 0 39l49 10q15 3 23.5 10t13 36t6 88t1.5 167q0 33 -0.5 73t-1 78t-2 69.5t-4.5 48.5l-91 13q-4 9 -4.5 18t4.5 18h283q32 0 57 1t46 3l39 139l33 6l6 -9l-17 -209l-11 -6q-26 6 -56 11.5t-61.5 8.5t-63 4t-58.5 -1q-9 -53 -11 -124t-2 -152v-59t0.5 -82.5
t2 -84.5t3.5 -64l131 -12q10 -21 0 -38h-315z" />
    <glyph glyph-name="afii10098" unicode="&#x491;" horiz-adv-x="406" 
d="M431 579l-18 -187l-10 -2q-45 11 -93 16t-101 5q-2 -10 -3.5 -28t-2.5 -40.5t-2 -48.5t-1 -52q0 -32 0.5 -58t1.5 -48.5t2 -43t3 -42.5l90 -13q9 -20 0 -38h-248q-9 17 1 38l33 11q10 4 17.5 9.5t12.5 24.5t7 56.5t2 105.5q0 24 -0.5 50t-1.5 49.5t-2 42.5t-2 28l-81 12
q-5 19 1 37h129q41 0 71.5 0.5t53.5 1t40.5 1t32.5 1.5l27 114l34 7z" />
    <glyph glyph-name="endash" unicode="&#x2013;" horiz-adv-x="833" 
d="M665 334q-3 -33 -27 -61h-500q1 18 8 32.5t19 28.5h500z" />
    <glyph glyph-name="emdash" unicode="&#x2014;" horiz-adv-x="1080" 
d="M914 330q3 -16 1 -30.5t-14 -30.5h-737q-2 17 2.5 31.5t17.5 29.5h730z" />
    <glyph glyph-name="quoteleft" unicode="&#x2018;" horiz-adv-x="209" 
d="M63 548q0 39 16 70.5t37 53.5t41.5 34t30.5 13q5 -5 6.5 -9t2.5 -13q-20 -13 -35 -33.5t-15 -52.5q0 -18 2.5 -30t7.5 -21t14 -16.5t22 -16.5q-7 -42 -49 -70q-42 0 -61.5 27t-19.5 64z" />
    <glyph glyph-name="quoteright" unicode="&#x2019;" horiz-adv-x="212" 
d="M149 597q0 -39 -14.5 -70.5t-34 -53.5t-38 -34t-27.5 -12q-12 12 -13 23q19 16 33 38.5t14 51.5q0 19 -7 33t-17 24.5t-20.5 18l-17.5 12.5q7 23 19.5 42.5t32.5 34.5q42 0 66 -29t24 -79z" />
    <glyph glyph-name="quotesinglbase" unicode="&#x201a;" horiz-adv-x="314" 
d="M233 -3q0 -39 -14.5 -70.5t-34 -53.5t-38 -34t-27.5 -12q-12 12 -13 23q19 16 33 38.5t14 51.5q0 19 -7 33t-17 24.5t-20.5 18l-17.5 12.5q7 23 19.5 42.5t32.5 34.5q42 0 66 -29t24 -79z" />
    <glyph glyph-name="quotedblleft" unicode="&#x201c;" horiz-adv-x="452" 
d="M274 548q0 39 16 70.5t37 53.5t41.5 34t30.5 13q5 -5 6.5 -9t2.5 -13q-20 -13 -35 -33.5t-15 -52.5q0 -18 2.5 -30t7.5 -21t14 -16.5t22 -16.5q-7 -42 -49 -70q-42 0 -61.5 27t-19.5 64zM63 548q0 39 16 70.5t37 53.5t41.5 34t30.5 13q5 -5 6.5 -9t2.5 -13
q-20 -13 -35 -33.5t-15 -52.5q0 -18 2.5 -30t7.5 -21t14 -16.5t22 -16.5q-7 -42 -49 -70q-42 0 -61.5 27t-19.5 64z" />
    <glyph glyph-name="quotedblright" unicode="&#x201d;" horiz-adv-x="455" 
d="M182 599q0 -39 -14.5 -70.5t-34 -53.5t-38 -34t-27.5 -12q-12 12 -13 23q19 16 33 38.5t14 51.5q0 19 -7 33t-17 24.5t-20.5 18l-17.5 12.5q7 23 19.5 42.5t32.5 34.5q42 0 66 -29t24 -79zM392 599q0 -39 -14.5 -70.5t-34 -53.5t-38 -34t-27.5 -12q-12 12 -13 23
q19 16 33 38.5t14 51.5q0 19 -7 33t-17 24.5t-20.5 18l-17.5 12.5q7 23 19.5 42.5t32.5 34.5q42 0 66 -29t24 -79z" />
    <glyph glyph-name="quotedblbase" unicode="&#x201e;" horiz-adv-x="481" 
d="M443 -3q0 -39 -14.5 -70.5t-34 -53.5t-38 -34t-27.5 -12q-12 12 -13 23q19 16 33 38.5t14 51.5q0 19 -7 33t-17 24.5t-20.5 18l-17.5 12.5q7 23 19.5 42.5t32.5 34.5q42 0 66 -29t24 -79zM230 -3q0 -39 -14.5 -70.5t-34 -53.5t-38 -34t-27.5 -12q-12 12 -13 23
q19 16 33 38.5t14 51.5q0 19 -7 33t-17 24.5t-20.5 18l-17.5 12.5q7 23 19.5 42.5t32.5 34.5q42 0 66 -29t24 -79z" />
    <glyph glyph-name="dagger" unicode="&#x2020;" horiz-adv-x="833" 
d="M372 441h-234q1 18 8 32.5t19 28.5h207v255q14 8 28 11t28 3v-269h237q-3 -33 -27 -61h-210v-652q-22 -19 -56 -19v671z" />
    <glyph glyph-name="daggerdbl" unicode="&#x2021;" horiz-adv-x="833" 
d="M369 312v148h-231q1 18 8 32.5t19 28.5h204v236q14 8 28 11t28 3v-250h240q-3 -33 -27 -61h-213v-148h240q-3 -33 -27 -61h-213v-462q-22 -19 -56 -19v481h-231q1 18 8 32.5t19 28.5h204z" />
    <glyph glyph-name="bullet" unicode="&#x2022;" horiz-adv-x="561" 
d="M288 299q13 -41 5 -71.5t-27 -50.5t-43.5 -30t-44.5 -10q-15 0 -35 7.5t-37.5 22t-30 36.5t-12.5 51q0 25 12 44.5t32 35t45 26.5t51 19l14 -9q-3 -40 18 -59.5t53 -11.5z" />
    <glyph glyph-name="ellipsis" unicode="&#x2026;" horiz-adv-x="1131" 
d="M1036 41q0 -16 -9 -28t-22.5 -20t-30 -12t-31.5 -4l-41 71q1 16 11 28t24 19.5t30.5 11.5t30.5 4zM632 40q0 -16 -9 -28t-22.5 -20t-30 -12t-31.5 -4l-41 71q1 16 11 28t24 19.5t30.5 11.5t30.5 4zM229 38q0 -16 -9 -28t-22.5 -20t-30 -12t-31.5 -4l-41 71q1 16 11 28
t24 19.5t30.5 11.5t30.5 4z" />
    </font>
</defs>
</svg>
